<?xml version="1.0" standalone="no"?>
<!DOCTYPE svg PUBLIC "-//W3C//DTD SVG 1.1//EN" "http://www.w3.org/Graphics/SVG/1.1/DTD/svg11.dtd" >
<svg xmlns="http://www.w3.org/2000/svg" xmlns:xlink="http://www.w3.org/1999/xlink" version="1.1">
<metadata>
Created by FontForge 20170731 at Tue Feb  4 04:02:28 2014
 By Aleksey,,,
Copyright (c) 2013 by Type Dynamic. All rights reserved.
</metadata>
<defs>
<font id="Larsseit-Light" horiz-adv-x="230" >
  <font-face 
    font-family="Larsseit Light"
    font-weight="300"
    font-stretch="normal"
    units-per-em="1000"
    panose-1="0 0 0 0 0 0 0 0 0 0"
    ascent="800"
    descent="-200"
    x-height="502"
    cap-height="700"
    bbox="-200 -258 2918 973"
    underline-thickness="50"
    underline-position="-250"
    unicode-range="U+0020-FB01"
  />
<missing-glyph horiz-adv-x="600" 
d="M68 0v700h465v-700h-465zM299 389l166 265h-333zM487 89v514l-162 -257zM461 46l-162 257l-163 -257h325zM272 346l-158 252v-504z" />
    <glyph glyph-name="fi" unicode="fi" horiz-adv-x="540" 
d="M235 737q42 0 67 -13v-58q-27 13 -65 13q-64 0 -64 -88v-89h129v-58h-129v-444h-63v444h-102v58h102v90q0 68 33 106.5t92 38.5zM392 502h63v-502h-63v502zM424 710q20 0 34.5 -14.5t14.5 -34.5t-14.5 -34t-34.5 -14q-21 0 -35 14t-14 34t14 34.5t35 14.5z" />
    <glyph glyph-name="f_j" unicode="fj" horiz-adv-x="540" 
d="M235 737q42 0 67 -13v-58q-27 13 -65 13q-64 0 -64 -88v-89h129v-58h-129v-444h-63v444h-102v58h102v90q0 68 33 106.5t92 38.5zM392 502h63v-574q0 -90 -40 -121q-39 -33 -100 -33q-35 0 -56 7v59q26 -8 50 -8q44 0 63.5 24t19.5 73v573zM424 710q20 0 34.5 -14.5
t14.5 -34.5t-14.5 -34t-34.5 -14q-21 0 -35 14t-14 34t14 34.5t35 14.5z" />
    <glyph glyph-name=".notdef" horiz-adv-x="600" 
d="M68 0v700h465v-700h-465zM299 389l166 265h-333zM487 89v514l-162 -257zM461 46l-162 257l-163 -257h325zM272 346l-158 252v-504z" />
    <glyph glyph-name=".null" horiz-adv-x="0" 
 />
    <glyph glyph-name="nonmarkingreturn" horiz-adv-x="333" 
 />
    <glyph glyph-name="space" unicode=" " horiz-adv-x="211" 
 />
    <glyph glyph-name="exclam" unicode="!" 
d="M84 700h63v-507h-63v507zM170 42q0 -22 -15.5 -37.5t-38.5 -15.5t-38.5 15t-15.5 38t15.5 38.5t38.5 15.5t38.5 -15.5t15.5 -38.5z" />
    <glyph glyph-name="quotedbl" unicode="&#x22;" horiz-adv-x="288" 
d="M43 718h65l-16 -200h-43zM184 718h65l-16 -200h-43z" />
    <glyph glyph-name="numbersign" unicode="#" horiz-adv-x="646" 
d="M451 259h134v-59h-144l-35 -200h-62l35 200h-170l-35 -200h-62l35 200h-132v59h142l37 209h-133v58h143l31 174h62l-31 -174h170l31 174h62l-31 -174h133v-58h-143zM426 468h-170l-37 -209h170z" />
    <glyph glyph-name="dollar" unicode="$" horiz-adv-x="534" 
d="M247 798h55v-88q74 -9 116.5 -58.5t43.5 -130.5h-67q-1 51 -25.5 84.5t-67.5 43.5v-268q101 -41 142 -83q42 -42 42 -113q0 -85 -49.5 -137t-134.5 -60v-85h-55v86q-90 8 -141.5 65t-52.5 148h67q1 -66 34 -105.5t93 -47.5v281q-91 38 -131 78q-41 43 -41 118
q0 77 46 128.5t126 57.5v86zM419 182q0 42 -27 71t-90 55v-260q56 7 86.5 43t30.5 91zM142 529q0 -46 22.5 -72t82.5 -53v248q-50 -5 -77.5 -37t-27.5 -86z" />
    <glyph glyph-name="percent" unicode="%" horiz-adv-x="820" 
d="M595 700h73l-443 -700h-73zM196 713q71 0 117 -49q47 -50 47 -123t-47 -122q-47 -48 -117 -48t-117 48q-46 47 -46 122q0 74 46 123t117 49zM87 541q0 -50 31 -83t78 -33t77 33t30 83q0 51 -30 84.5t-77 33.5t-78 -33.5t-31 -84.5zM625 329q70 0 116 -49q47 -50 47 -123
t-47 -122q-47 -48 -116 -48q-71 0 -118 48q-46 47 -46 122q0 74 46 123t118 49zM625 275q-48 0 -78.5 -33.5t-30.5 -84.5q0 -50 30.5 -83t78.5 -33q46 0 76.5 33t30.5 83q0 51 -30.5 84.5t-76.5 33.5z" />
    <glyph glyph-name="ampersand" unicode="&#x26;" horiz-adv-x="613" 
d="M264 713q73 0 116.5 -42t43.5 -113q-3 -39 -9.5 -59.5t-25.5 -42.5l-21 -23q-3 -3 -29 -22l-27 -18q-1 0 -30 -19l-2 -2l170 -190q8 28 11 66q3 61 -14 116l63 10q18 -58 15 -130q-3 -64 -28 -115l117 -129h-85l-67 74q-73 -87 -199 -87q-104 0 -166.5 51.5t-62.5 142.5
q0 63 33.5 107t105.5 88l12 7l-17 19q-70 77 -70 156q0 68 45.5 111.5t120.5 43.5zM264 45q106 0 157 74l-196 219l-6 -3q-63 -39 -90 -72t-27 -81q0 -66 42.5 -101.5t119.5 -35.5zM164 558q0 -57 58 -121l18 -21l6 4q63 38 80 57q31 32 31 79q0 45 -25 72t-67 27
q-45 0 -72.5 -26.5t-28.5 -70.5z" />
    <glyph glyph-name="quotesingle" unicode="'" horiz-adv-x="147" 
d="M43 718h65l-16 -200h-43z" />
    <glyph glyph-name="parenleft" unicode="(" horiz-adv-x="262" 
d="M203 733l46 -34q-72 -90 -103 -176q-32 -88 -32 -202t32 -202q31 -86 103 -176l-46 -34q-77 98 -114 196t-37 216t37 216t114 196z" />
    <glyph glyph-name="parenright" unicode=")" horiz-adv-x="262" 
d="M13 699l46 34q77 -98 114 -196t37 -216t-37 -216t-114 -196l-46 34q72 90 103 176q32 88 32 202t-32 202q-31 86 -103 176z" />
    <glyph glyph-name="asterisk" unicode="*" horiz-adv-x="350" 
d="M148 737h52l-1 -133l122 42l18 -49l-123 -40l80 -107l-42 -31l-78 107l-77 -107l-42 30l78 106l-124 40l16 50l122 -41z" />
    <glyph glyph-name="plus" unicode="+" horiz-adv-x="472" 
d="M206 556h60v-177h176v-58h-176v-177h-60v177h-176v58h176v177z" />
    <glyph glyph-name="comma" unicode="," horiz-adv-x="186" 
d="M144 37q0 -42 -19 -88t-49 -79l-23 9q30 52 37 113q-32 0 -44.5 31.5t10.5 53.5q23 25 57 10.5t31 -50.5z" />
    <glyph glyph-name="hyphen" unicode="-" horiz-adv-x="365" 
d="M25 288h315v-57h-315v57z" />
    <glyph glyph-name="period" unicode="." horiz-adv-x="191" 
d="M149 42q0 -22 -15.5 -37.5t-37.5 -15.5q-35 0 -49.5 33t10.5 58q24 26 59.5 11.5t32.5 -49.5z" />
    <glyph glyph-name="slash" unicode="/" horiz-adv-x="381" 
d="M313 700h63l-309 -700h-62z" />
    <glyph glyph-name="zero" unicode="0" horiz-adv-x="549" 
d="M503 351q0 -167 -60 -266q-60 -98 -168 -98q-109 0 -169 98q-59 100 -59 266t59 264q60 98 169 98t168 -98q60 -97 60 -264zM275 651q-78 0 -119.5 -79t-41.5 -221q0 -143 41.5 -222.5t119.5 -79.5q77 0 118.5 80t41.5 222t-41.5 221t-118.5 79z" />
    <glyph glyph-name="one" unicode="1" horiz-adv-x="319" 
d="M186 700h53v-700h-66v564h-147v56q83 0 115 16q33 17 45 64z" />
    <glyph glyph-name="two" unicode="2" horiz-adv-x="482" 
d="M243 713q89 0 138 -50t49 -139q0 -96 -83 -206l-197 -256h296v-62h-387v49l231 299q41 52 57 90t16 84q0 129 -121 129q-58 0 -91.5 -38t-33.5 -109h-66q0 96 52.5 152.5t139.5 56.5z" />
    <glyph glyph-name="three" unicode="3" horiz-adv-x="524" 
d="M446 520q0 -61 -29 -102t-75 -56q55 -13 91.5 -61t36.5 -116q0 -86 -59 -142t-150 -56q-99 0 -156.5 55.5t-57.5 151.5h65q1 -72 41 -108.5t109 -36.5q63 0 101.5 37t38.5 100q0 71 -49 108.5t-140 37.5h-13v60h13q86 0 125.5 30t39.5 97q0 63 -31 97.5t-90 34.5
q-58 0 -92.5 -37t-34.5 -106h-66q0 94 52.5 149.5t140.5 55.5q89 0 138 -55q51 -54 51 -138z" />
    <glyph glyph-name="four" unicode="4" horiz-adv-x="523" 
d="M320 700h71v-486h103v-61h-103v-153h-66v153h-293v54zM325 214v378l-24 -45l-195 -333h219z" />
    <glyph glyph-name="five" unicode="5" horiz-adv-x="528" 
d="M91 700h361v-62h-294v-238q46 30 124 30q96 0 151 -60q57 -58 57 -155q0 -99 -58 -163q-57 -65 -155 -65q-95 0 -150.5 51.5t-55.5 145.5h66q1 -67 38 -101t102 -34q68 0 106.5 44.5t38.5 119.5q0 71 -39 113t-107 42q-71 0 -127 -35h-58v367z" />
    <glyph glyph-name="six" unicode="6" horiz-adv-x="538" 
d="M287 713q82 0 134.5 -50t56.5 -133h-67q-13 121 -126 121q-82 0 -122 -75.5t-41 -238.5q21 37 66 62t96 25q97 0 153 -62q57 -62 57 -153q0 -95 -58 -159q-58 -63 -154 -63q-97 0 -159 68q-68 77 -68 275q0 192 56.5 287.5t175.5 95.5zM281 363q-61 0 -106 -45
q-44 -44 -44 -109q0 -63 42 -112t108 -49q65 0 105 45q40 46 40 115q0 66 -40 110q-40 45 -105 45z" />
    <glyph glyph-name="seven" unicode="7" horiz-adv-x="476" 
d="M40 700h407v-54l-295 -646h-72l291 637h-331v63z" />
    <glyph glyph-name="eight" unicode="8" horiz-adv-x="540" 
d="M270 713q87 0 139 -55q54 -56 54 -137q0 -59 -27.5 -101.5t-64.5 -58.5q50 -20 82.5 -64t32.5 -109q0 -87 -62 -144t-154 -57q-94 0 -155 57q-62 57 -62 144q0 63 32.5 110t82.5 63q-38 16 -64.5 58.5t-26.5 101.5q0 81 53 137q52 55 140 55zM270 48q61 0 105 38
q44 39 44 103t-44 103q-43 39 -105 39q-61 0 -106 -39q-44 -39 -44 -103t44 -103q44 -38 106 -38zM270 652q-56 0 -91.5 -36.5t-35.5 -95.5q0 -58 35.5 -93t91.5 -35t91 35t35 93q0 59 -35.5 95.5t-90.5 36.5z" />
    <glyph glyph-name="nine" unicode="9" horiz-adv-x="538" 
d="M250 -13q-82 0 -134.5 50t-56.5 133h67q13 -121 126 -121q82 0 122 75.5t41 238.5q-21 -37 -66 -62t-96 -25q-97 0 -154 61q-56 62 -56 154q0 96 58 158q58 64 154 64q97 0 159 -68q68 -77 68 -275q0 -192 -56.5 -287.5t-175.5 -95.5zM256 337q61 0 105 44q45 45 45 110
q0 61 -42 111t-108 50q-65 0 -105 -46q-40 -44 -40 -114q0 -66 40 -110q41 -45 105 -45z" />
    <glyph glyph-name="colon" unicode=":" horiz-adv-x="191" 
d="M96 406q-23 0 -38.5 15t-15.5 38t15.5 38.5t38.5 15.5t38 -15.5t15 -38.5t-15.5 -38t-37.5 -15zM149 42q0 -22 -15.5 -37.5t-37.5 -15.5q-35 0 -49.5 33t10.5 58q24 26 59.5 11.5t32.5 -49.5z" />
    <glyph glyph-name="semicolon" unicode=";" horiz-adv-x="191" 
d="M96 406q-23 0 -38.5 15t-15.5 38t15.5 38.5t38.5 15.5t38 -15.5t15 -38.5t-15.5 -38t-37.5 -15zM96 92q21 0 35.5 -15.5t14.5 -39.5q0 -42 -18.5 -87.5t-48.5 -79.5l-23 9q30 52 37 113q-21 2 -35 15.5t-14 34.5t15 35.5t37 14.5z" />
    <glyph glyph-name="less" unicode="&#x3c;" horiz-adv-x="244" 
d="M163 446h67l-154 -196l154 -195h-67l-149 187v17z" />
    <glyph glyph-name="equal" unicode="=" horiz-adv-x="472" 
d="M30 481h412v-58h-412v58zM30 276h412v-58h-412v58z" />
    <glyph glyph-name="greater" unicode="&#x3e;" horiz-adv-x="244" 
d="M14 446h68l148 -187v-17l-148 -187h-68l155 195z" />
    <glyph glyph-name="question" unicode="?" horiz-adv-x="400" 
d="M195 717q81 0 136 -51q56 -50 56 -139q0 -93 -59 -152q-10 -10 -35 -33t-36.5 -35t-23 -32.5t-11.5 -40.5v-41h-63v42q0 35 17 64t41.5 51t49 44.5t41.5 56t17 74.5q0 64 -35.5 100t-93.5 36q-63 0 -98 -37t-35 -105h-62q1 93 54 145.5t140 52.5zM245 42
q0 -22 -15.5 -37.5t-38.5 -15.5t-38.5 15t-15.5 38t15.5 38.5t38.5 15.5t38.5 -15.5t15.5 -38.5z" />
    <glyph glyph-name="at" unicode="@" horiz-adv-x="798" 
d="M389 383q-62 0 -98 -42t-36 -111t36 -110t96 -41q58 0 96 37.5t38 99.5v23q0 65 -38 104.5t-94 39.5zM401 595q160 0 259 -103q99 -104 99 -261q0 -100 -39 -152t-100 -52q-77 0 -95 64q-19 -29 -57 -47.5t-86 -18.5q-83 0 -134 58q-51 59 -51 147q0 90 51 148t135 58
q49 0 85.5 -21.5t52.5 -54.5l2 67h52v-297q0 -54 50 -54q80 0 80 155q0 135 -84 224t-220 89q-138 0 -224 -89q-84 -89 -84 -224q0 -137 84 -225q86 -89 224 -89q73 0 136 29l18 -49q-69 -31 -154 -31q-163 0 -263 103q-99 103 -99 262q0 160 99 262q100 102 263 102z" />
    <glyph glyph-name="A" unicode="A" horiz-adv-x="675" 
d="M350 572l-13 37l-13 -37l-126 -306h278zM306 700h63l287 -700h-74l-83 203h-324l-81 -203h-74z" />
    <glyph glyph-name="B" unicode="B" horiz-adv-x="557" 
d="M82 700h180q98 0 155.5 -50t57.5 -135q0 -97 -82 -146q60 -19 93.5 -65t33.5 -107q0 -90 -61 -143.5t-166 -53.5h-211v700zM293 328h-145v-266h145q74 0 117 36t43 100q0 60 -42.5 95t-117.5 35zM262 638h-114v-248h119q64 0 103 34t39 89q0 59 -39 92t-108 33z" />
    <glyph glyph-name="C" unicode="C" horiz-adv-x="723" 
d="M386 713q115 0 195 -55.5t110 -155.5h-74q-25 70 -84 109.5t-147 39.5q-120 0 -198 -86q-77 -86 -77 -215q0 -130 77 -216q78 -85 198 -85q89 0 148 40t84 111h74q-31 -102 -110 -157.5t-196 -55.5q-150 0 -247 103t-97 260q0 156 97 259q98 104 247 104z" />
    <glyph glyph-name="D" unicode="D" horiz-adv-x="727" 
d="M82 700h246q161 0 256 -96q96 -94 96 -254q0 -159 -96 -255q-95 -95 -256 -95h-246v700zM328 638h-180v-576h180q130 0 207 77q78 77 78 211q0 133 -77 210q-76 78 -208 78z" />
    <glyph glyph-name="E" unicode="E" horiz-adv-x="505" 
d="M82 700h376v-62h-310v-246h275v-62h-275v-268h310v-62h-376v700z" />
    <glyph glyph-name="F" unicode="F" horiz-adv-x="475" 
d="M82 700h366v-62h-300v-255h255v-63h-255v-320h-66v700z" />
    <glyph glyph-name="G" unicode="G" horiz-adv-x="748" 
d="M386 713q115 0 195 -55.5t110 -155.5h-74q-25 70 -84 109.5t-147 39.5q-120 0 -198 -86q-77 -86 -77 -215q0 -130 77 -216q78 -85 199 -85q115 0 180 60t66 177h-232v63h301v-40q0 -150 -83 -236t-232 -86q-151 0 -248 103t-97 260q0 156 97 259q98 104 247 104z" />
    <glyph glyph-name="H" unicode="H" horiz-adv-x="704" 
d="M556 700h66v-700h-66v330h-408v-330h-66v700h66v-307h408v307z" />
    <glyph glyph-name="I" unicode="I" 
d="M82 700h66v-700h-66v700z" />
    <glyph glyph-name="J" unicode="J" horiz-adv-x="484" 
d="M345 700h66v-506q0 -100 -48 -153t-137 -53q-188 0 -198 214h66q8 -152 132 -152q57 0 88 37.5t31 108.5v504z" />
    <glyph glyph-name="K" unicode="K" horiz-adv-x="663" 
d="M486 700h83l-242 -307l315 -393h-83l-275 341l-128 -158v-183h-67v700h67v-418z" />
    <glyph glyph-name="L" unicode="L" horiz-adv-x="493" 
d="M81 700h66v-638h323v-62h-389v700z" />
    <glyph glyph-name="M" unicode="M" horiz-adv-x="867" 
d="M717 700h69v-700h-66v563l-19 -48l-242 -515h-50l-243 515l-18 48v-563h-66v700h68l262 -547l21 -48l22 48z" />
    <glyph glyph-name="N" unicode="N" horiz-adv-x="701" 
d="M553 700h66v-700h-64l-380 544l-27 41v-585h-66v700h63l378 -541l30 -44v585z" />
    <glyph glyph-name="O" unicode="O" horiz-adv-x="793" 
d="M751 351q0 -157 -100 -260q-101 -104 -254 -104q-154 0 -255 104q-100 103 -100 260q0 155 100 258q101 104 255 104q153 0 254 -104q100 -103 100 -258zM397 651q-125 0 -206 -86q-80 -86 -80 -214q0 -130 80 -216q81 -86 206 -86q124 0 204 86q81 85 81 216
q0 128 -81 214q-80 86 -204 86z" />
    <glyph glyph-name="P" unicode="P" horiz-adv-x="523" 
d="M82 700h197q101 0 160 -58q60 -57 60 -151q0 -92 -60 -149q-59 -56 -160 -56h-131v-286h-66v700zM279 638h-131v-290h131q69 0 111.5 39t42.5 104q0 67 -42.5 107t-111.5 40z" />
    <glyph glyph-name="Q" unicode="Q" horiz-adv-x="791" 
d="M751 351q0 -96 -40.5 -176t-113.5 -129l150 -150h-93l-118 118q-68 -27 -139 -27q-154 0 -255 104q-100 103 -100 260q0 155 100 258q101 104 255 104q153 0 254 -104q100 -103 100 -258zM397 651q-125 0 -206 -86q-80 -86 -80 -214q0 -130 80 -216q81 -86 206 -86
q45 0 90 14l-135 134h93l105 -105q62 39 97 107.5t35 151.5q0 128 -81 214q-80 86 -204 86z" />
    <glyph glyph-name="R" unicode="R" horiz-adv-x="531" 
d="M82 700h177q101 0 160 -56q60 -56 60 -149q0 -71 -36.5 -120t-102.5 -69l169 -306h-76l-161 295h-124v-295h-66v700zM259 638h-111v-282h111q70 0 112 37t42 102q0 66 -42 104.5t-112 38.5z" />
    <glyph glyph-name="S" unicode="S" horiz-adv-x="517" 
d="M257 713q90 0 142.5 -50.5t53.5 -141.5h-67q-1 62 -35.5 97t-94.5 35q-58 0 -90.5 -33t-32.5 -91q0 -54 31 -81q32 -28 116 -62q110 -43 152 -85q45 -42 45 -116q0 -93 -58 -145q-58 -53 -151 -53q-104 0 -163.5 58t-60.5 157h67q1 -74 42.5 -114.5t115.5 -40.5
q67 0 104 37t37 98q0 48 -35.5 79t-124.5 64q-98 39 -141 81t-43 120q0 80 50 133q50 54 141 54z" />
    <glyph glyph-name="T" unicode="T" horiz-adv-x="603" 
d="M9 700h584v-62h-259v-638h-66v638h-259v62z" />
    <glyph glyph-name="U" unicode="U" horiz-adv-x="684" 
d="M545 700h67v-426q0 -140 -70 -213.5t-200 -73.5q-129 0 -199 73.5t-70 213.5v426h66v-426q0 -225 203 -225t203 225v426z" />
    <glyph glyph-name="V" unicode="V" horiz-adv-x="670" 
d="M579 700h72l-287 -700h-58l-287 700h72l230 -565l14 -43l13 43z" />
    <glyph glyph-name="W" unicode="W" horiz-adv-x="980" 
d="M890 700h69l-228 -700h-60l-169 531l-12 46l-12 -46l-168 -531h-60l-229 700h70l178 -542l12 -50l12 50l171 542h52l172 -542l11 -50l13 50z" />
    <glyph glyph-name="X" unicode="X" horiz-adv-x="672" 
d="M548 700h80l-249 -342l262 -358h-79l-226 306l-225 -306h-80l261 358l-249 342h81l212 -289z" />
    <glyph glyph-name="Y" unicode="Y" horiz-adv-x="667" 
d="M572 700h78l-283 -432v-268h-67v268l-283 432h78l210 -320l28 -47l28 47z" />
    <glyph glyph-name="Z" unicode="Z" horiz-adv-x="584" 
d="M40 700h499v-52l-417 -586h428v-62h-515v52l418 586h-413v62z" />
    <glyph glyph-name="bracketleft" unicode="[" horiz-adv-x="265" 
d="M70 716h170v-58h-109v-677h109v-58h-170v793z" />
    <glyph glyph-name="backslash" unicode="\" horiz-adv-x="381" 
d="M5 700h62l309 -700h-63z" />
    <glyph glyph-name="bracketright" unicode="]" horiz-adv-x="265" 
d="M25 716h170v-793h-170v58h108v677h-108v58z" />
    <glyph glyph-name="asciicircum" unicode="^" horiz-adv-x="539" 
d="M21 462l248 298l249 -298h-71l-178 214l-176 -214h-72z" />
    <glyph glyph-name="underscore" unicode="_" horiz-adv-x="635" 
d="M25 0h585v-58h-585v58z" />
    <glyph glyph-name="grave" unicode="`" horiz-adv-x="223" 
d="M10 732h81l122 -158h-66z" />
    <glyph glyph-name="a" unicode="a" horiz-adv-x="482" 
d="M239 513q83 0 127.5 -46.5t44.5 -131.5v-335h-60l-2 73q-21 -37 -63.5 -60.5t-95.5 -23.5q-65 0 -103.5 37t-38.5 97q0 115 136 143l163 34v33q0 121 -108 121q-52 0 -83 -28t-31 -80h-63q2 73 49 119q49 48 128 48zM347 201v42l-151 -33q-43 -10 -63.5 -29.5
t-20.5 -56.5q0 -36 22.5 -56t63.5 -20q72 0 116 54q33 44 33 99z" />
    <glyph glyph-name="b" unicode="b" horiz-adv-x="591" 
d="M80 730h63v-312q20 40 67.5 67.5t108.5 27.5q106 0 171 -74t65 -188q0 -115 -64 -188q-65 -74 -170 -74q-61 0 -109.5 27.5t-70.5 68.5l-3 -85h-58v730zM313 453q-70 0 -121 -53q-50 -53 -50 -142v-21q0 -85 50 -138q51 -51 123 -51q81 0 127 57q48 57 48 146
q0 90 -49 145q-49 57 -128 57z" />
    <glyph glyph-name="c" unicode="c" horiz-adv-x="537" 
d="M276 513q83 0 141 -41t78 -115h-65q-16 45 -57 71t-96 26q-77 0 -126 -58q-50 -59 -50 -146q0 -85 50 -144q51 -58 127 -58q54 0 95 26t57 71h65q-21 -74 -79 -115t-140 -41q-104 0 -172 74q-67 74 -67 187q0 115 67 188q67 75 172 75z" />
    <glyph glyph-name="d" unicode="d" horiz-adv-x="591" 
d="M449 730h62v-730h-58l-2 85q-23 -41 -71 -68.5t-109 -27.5q-106 0 -171 74q-63 73 -63 188t64 188q65 74 171 74q61 0 108.5 -27t68.5 -68v312zM278 453q-78 0 -128 -57q-49 -56 -49 -145t48 -146t128 -57q71 0 121 51q51 53 51 138v21q0 90 -51 142q-50 53 -120 53z" />
    <glyph glyph-name="e" unicode="e" horiz-adv-x="550" 
d="M272 513q104 0 166 -66.5t62 -184.5v-35h-399q4 -81 52.5 -130t121.5 -49q118 0 154 94h65q-23 -73 -80 -113t-140 -40q-104 0 -171 72q-66 72 -66 189q0 116 64 189q65 74 171 74zM272 454q-71 0 -118 -47t-53 -123h335q0 79 -44.5 124.5t-119.5 45.5z" />
    <glyph glyph-name="f" unicode="f" horiz-adv-x="318" 
d="M244 737q43 0 68 -13v-58q-27 13 -65 13q-74 0 -74 -88v-89h130v-58h-130v-444h-63v444h-97v58h97v90q0 68 35.5 106.5t98.5 38.5z" />
    <glyph glyph-name="g" unicode="g" horiz-adv-x="489" 
d="M319 502h178v-57h-97q35 -47 35 -111q0 -76 -51 -127t-136 -51q-69 0 -118 34q-29 -24 -29 -60q0 -29 20 -44t54 -15h139q76 0 115.5 -35.5t39.5 -99.5q0 -76 -53.5 -119t-148.5 -43q-104 0 -159.5 39.5t-55.5 113.5q0 71 57 99q-31 12 -50.5 39t-19.5 63q0 61 53 100
q-33 44 -33 106q0 80 51.5 129.5t137.5 49.5q36 0 71 -11zM122 334q0 -54 34 -87.5t91 -33.5t91.5 33.5t34.5 87.5q0 55 -34.5 88.5t-91.5 33.5t-91 -33.5t-34 -88.5zM306 14h-107q-36 -1 -60 -23.5t-24 -61.5q0 -98 152 -98q139 0 139 104q0 38 -26 58.5t-74 20.5z" />
    <glyph glyph-name="h" unicode="h" horiz-adv-x="521" 
d="M80 730h63v-301q13 34 53 59t89 25q78 0 121 -51.5t43 -137.5v-324h-63v318q0 65 -29.5 99.5t-81.5 34.5q-58 0 -95 -47.5t-37 -125.5v-279h-63v730z" />
    <glyph glyph-name="i" unicode="i" 
d="M84 502h63v-502h-63v502zM116 710q20 0 34.5 -14.5t14.5 -34.5t-14.5 -34t-34.5 -14q-21 0 -35 14t-14 34t14 34.5t35 14.5z" />
    <glyph glyph-name="j" unicode="j" 
d="M84 502h63v-574q0 -90 -40 -121q-39 -33 -100 -33q-35 0 -56 7v59q26 -8 50 -8q44 0 63.5 24t19.5 73v573zM116 710q20 0 34.5 -14.5t14.5 -34.5t-14.5 -34t-34.5 -14q-21 0 -35 14t-14 34t14 34.5t35 14.5z" />
    <glyph glyph-name="k" unicode="k" horiz-adv-x="478" 
d="M88 730h63v-480l210 252h79l-171 -206l197 -296h-73l-168 247l-74 -89v-158h-63v730z" />
    <glyph glyph-name="l" unicode="l" 
d="M84 730h63v-730h-63v730z" />
    <glyph glyph-name="m" unicode="m" horiz-adv-x="822" 
d="M587 513q78 0 120.5 -51t42.5 -138v-324h-63v318q0 65 -29 99.5t-81 34.5q-57 0 -93.5 -45t-37.5 -120v-287h-62v318q0 65 -29.5 99.5t-81.5 34.5q-58 0 -94 -47t-36 -126v-279h-63v502h58l3 -76q16 37 55 62t87 25q112 0 149 -102q22 45 62.5 73.5t92.5 28.5z" />
    <glyph glyph-name="n" unicode="n" horiz-adv-x="521" 
d="M285 513q78 0 121 -51.5t43 -137.5v-324h-63v318q0 65 -29.5 99.5t-81.5 34.5q-58 0 -95 -47.5t-37 -125.5v-279h-63v502h58l3 -76q16 37 55.5 62t88.5 25z" />
    <glyph glyph-name="o" unicode="o" horiz-adv-x="573" 
d="M106 439q71 74 181 74q111 0 180 -74t69 -188q0 -115 -69 -188q-69 -74 -180 -74q-110 0 -181 74q-69 73 -69 188t69 188zM288 454q-84 0 -136 -58q-51 -57 -51 -145q0 -87 51 -146q52 -57 136 -57t133 57q51 59 51 146q0 88 -51 145q-49 58 -133 58z" />
    <glyph glyph-name="p" unicode="p" horiz-adv-x="601" 
d="M330 513q107 0 170 -74q64 -73 64 -188t-64 -188q-65 -74 -171 -74q-61 0 -108.5 27t-67.5 68v-299h-64v717h60l1 -86q23 41 71.5 69t108.5 28zM324 453q-72 0 -122 -51q-50 -52 -50 -137v-21q0 -89 50 -142q51 -53 121 -53q79 0 128 57q49 56 49 145t-48 145
q-46 57 -128 57z" />
    <glyph glyph-name="q" unicode="q" horiz-adv-x="601" 
d="M271 513q60 0 108.5 -28t71.5 -69l2 86h58v-717h-62v299q-21 -41 -68.5 -68t-108.5 -27q-106 0 -171 74q-64 73 -64 188t63 188q65 74 171 74zM277 453q-81 0 -129 -57q-47 -56 -47 -145t49 -145q50 -57 128 -57q70 0 120 53q51 52 51 142v21q0 85 -50 137
q-50 51 -122 51z" />
    <glyph glyph-name="r" unicode="r" horiz-adv-x="324" 
d="M301 507v-62q-61 0 -102 -41q-48 -46 -48 -132v-272h-63v502h59l2 -91q16 42 55.5 69t96.5 27z" />
    <glyph glyph-name="s" unicode="s" horiz-adv-x="438" 
d="M216 513q72 0 115 -41t44 -110h-65q-2 92 -96 92q-44 0 -68.5 -21t-24.5 -58t22 -55q25 -18 86 -34q88 -24 125.5 -58t37.5 -91q0 -68 -47 -108t-123 -40q-82 0 -130 43t-49 115h65q1 -47 31 -73t85 -26q50 0 77 23.5t27 62.5q0 37 -26 58t-94 38q-80 21 -115.5 52.5
t-35.5 89.5q0 61 43 101t116 40z" />
    <glyph glyph-name="t" unicode="t" horiz-adv-x="335" 
d="M107 630h63l-1 -128h136v-59h-137l-2 -305q0 -47 16 -67t59 -20q34 0 64 10v-57q-27 -11 -71 -11q-67 0 -99 33t-31 104l2 313h-100v59h100z" />
    <glyph glyph-name="u" unicode="u" horiz-adv-x="517" 
d="M374 502h63v-502h-59l-2 75q-16 -37 -54.5 -61.5t-87.5 -24.5q-78 0 -120 50.5t-42 138.5v324h63v-318q0 -65 29 -100t81 -35q57 0 93 46t36 123v284z" />
    <glyph glyph-name="v" unicode="v" horiz-adv-x="494" 
d="M408 502h68l-198 -502h-61l-198 502h67l151 -389l10 -35l11 35z" />
    <glyph glyph-name="w" unicode="w" horiz-adv-x="761" 
d="M675 502h67l-164 -502h-61l-137 393l-137 -393h-61l-163 502h67l119 -376l11 -42l11 42l127 376h53l127 -376l11 -42l11 42z" />
    <glyph glyph-name="x" unicode="x" horiz-adv-x="499" 
d="M384 502h75l-169 -241l183 -261h-76l-148 209l-147 -209h-76l182 261l-168 241h75l134 -191z" />
    <glyph glyph-name="y" unicode="y" horiz-adv-x="495" 
d="M408 502h68l-283 -717h-67l88 223l-195 494h67l151 -389l10 -35l11 35z" />
    <glyph glyph-name="z" unicode="z" horiz-adv-x="449" 
d="M38 502h370v-49l-289 -395h307v-58h-391v49l289 395h-286v58z" />
    <glyph glyph-name="braceleft" unicode="{" horiz-adv-x="271" 
d="M215 716h31v-58h-30q-65 0 -65 -72v-171q0 -73 -54 -96q54 -23 54 -95v-171q0 -72 65 -72h30v-58h-31q-60 0 -92 34.5t-32 95.5v166q0 72 -65 72h-18v57h18q65 0 65 72v166q0 61 32 95.5t92 34.5z" />
    <glyph glyph-name="bar" unicode="|" horiz-adv-x="204" 
d="M72 726h61v-793h-61v793z" />
    <glyph glyph-name="braceright" unicode="}" horiz-adv-x="271" 
d="M25 716h31q60 0 92 -34.5t32 -95.5v-166q0 -72 65 -72h18v-57h-18q-65 0 -65 -72v-166q0 -61 -32 -95.5t-92 -34.5h-31v58h30q65 0 65 72v171q0 72 54 95q-54 23 -54 96v171q0 72 -65 72h-30v58z" />
    <glyph glyph-name="asciitilde" unicode="~" horiz-adv-x="571" 
d="M181 430q67 0 112 -47q48 -46 98 -46q75 0 104 86l47 -26q-42 -120 -152 -120q-66 0 -112 46q-45 47 -98 47q-75 0 -104 -86l-47 25q42 121 152 121z" />
    <glyph glyph-name="exclamdown" unicode="&#xa1;" 
d="M147 -199h-63v507h63v-507zM61 459q0 22 15.5 37.5t38.5 15.5t38.5 -15t15.5 -38t-15.5 -38.5t-38.5 -15.5t-38.5 15.5t-15.5 38.5z" />
    <glyph glyph-name="cent" unicode="&#xa2;" horiz-adv-x="537" 
d="M250 599h56v-88q70 -7 120.5 -47.5t68.5 -106.5h-65q-29 80 -124 95v-402q44 6 77 31t47 64h65q-19 -66 -69 -106.5t-120 -47.5v-88h-56v88q-94 9 -154 81q-59 74 -59 178q0 105 59 178q59 72 154 83v88zM101 250q0 -78 41 -134q42 -56 108 -66v402q-66 -11 -107.5 -66.5
t-41.5 -135.5z" />
    <glyph glyph-name="sterling" unicode="&#xa3;" horiz-adv-x="494" 
d="M167 362h165v-55h-150q5 -32 5 -56q0 -88 -49 -161l-17 -27h201q51 0 74.5 24t23.5 73h62q-2 -78 -44 -119t-117 -41h-289v34l39 56q52 77 52 162q0 30 -6 55h-100v55h84q-2 6 -10.5 27.5t-11.5 29.5q-19 55 -19 96q0 91 52 144q53 54 136 54q85 0 134 -48t51 -136h-63
q0 57 -32.5 90.5t-87.5 33.5q-59 0 -91.5 -37.5t-32.5 -101.5q0 -30 13 -79l14 -38q4 -9 8.5 -21t5.5 -14z" />
    <glyph glyph-name="currency" unicode="&#xa4;" horiz-adv-x="615" 
d="M419 419l125 124l39 -40l-123 -123q38 -53 38 -117q0 -68 -39 -119l124 -123l-39 -39l-125 123q-50 -37 -111 -37q-62 0 -111 37l-124 -123l-41 39l124 123q-38 52 -38 119q0 64 38 117l-124 123l41 40l123 -124q49 39 112 39q58 0 111 -39zM308 406q-58 0 -96 -41
t-38 -102t38 -102t96 -41q57 0 95 41q39 41 39 102t-39 102q-38 41 -95 41z" />
    <glyph glyph-name="yen" unicode="&#xa5;" horiz-adv-x="662" 
d="M383 296h114v-55h-132v-74h132v-55h-132v-112h-67v112h-134v55h134v74h-134v55h115l-264 404h78l210 -320l28 -47l28 47l211 320h78z" />
    <glyph glyph-name="brokenbar" unicode="&#xa6;" horiz-adv-x="204" 
d="M72 726h61v-280h-61v280zM72 213h61v-280h-61v280z" />
    <glyph glyph-name="section" unicode="&#xa7;" horiz-adv-x="500" 
d="M253 720q83 0 132 -42t50 -112h-66q0 48 -31 74t-86 26q-51 0 -79 -25t-28 -66q0 -38 29.5 -61t98.5 -37q100 -19 144 -53t44 -98q0 -75 -82 -121q62 -38 62 -109q0 -68 -50 -107.5t-132 -39.5q-86 0 -138.5 42.5t-53.5 111.5h66q0 -48 33.5 -74t93.5 -26q56 0 86 25
t30 66q0 39 -32 61.5t-109 37.5q-102 21 -147 55.5t-45 96.5q0 79 86 126q-48 36 -48 102q0 67 47.5 107t124.5 40zM261 244q16 -3 59 -14q77 33 77 92q0 43 -31.5 65.5t-114.5 38.5q-37 8 -69 18q-75 -32 -75 -94q0 -43 33 -66t121 -40z" />
    <glyph glyph-name="dieresis" unicode="&#xa8;" horiz-adv-x="289" 
d="M23 663q14 14 33 14t32 -14q13 -13 13 -32t-13 -32t-32 -13t-33 13q-13 13 -13 32t13 32zM201 663q14 14 33 14t32 -14q13 -13 13 -32t-13 -32t-32 -13t-33 13q-13 13 -13 32t13 32z" />
    <glyph glyph-name="copyright" unicode="&#xa9;" horiz-adv-x="578" 
d="M293 621q100 0 125 -94h-56q-16 46 -69 46q-39 0 -63.5 -27.5t-24.5 -69.5t24.5 -69.5t63.5 -27.5q57 0 72 48h54q-24 -96 -126 -96q-61 0 -102 41q-40 40 -40 104t40 104q41 41 102 41zM290 741q116 0 186 -75q72 -75 72 -190q0 -114 -72 -190q-70 -75 -186 -75t-188 75
q-72 76 -72 190q0 115 72 190t188 75zM290 693q-93 0 -152 -62q-57 -61 -57 -155t57 -156q58 -61 152 -61q93 0 150 61q57 62 57 156t-57 155q-57 62 -150 62z" />
    <glyph glyph-name="ordfeminine" unicode="&#xaa;" horiz-adv-x="377" 
d="M187 708q61 0 94.5 -31t33.5 -90v-228h-49l-2 48q-36 -55 -111 -55q-48 0 -76 25t-28 67q0 78 100 97l112 22v22q0 75 -74 75q-35 0 -55 -17.5t-20 -49.5h-54q2 52 37 83.5t92 31.5zM261 492v28l-101 -21q-57 -11 -57 -52q0 -22 15.5 -35.5t42.5 -13.5q49 0 78 35
q22 26 22 59z" />
    <glyph glyph-name="guillemotleft" unicode="&#xab;" horiz-adv-x="441" 
d="M158 446h67l-149 -196l149 -195h-67l-144 187v17zM359 446h68l-150 -196l150 -195h-68l-144 187v17z" />
    <glyph glyph-name="logicalnot" unicode="&#xac;" horiz-adv-x="563" 
d="M38 422h488v-260h-51v209h-437v51z" />
    <glyph glyph-name="registered" unicode="&#xae;" horiz-adv-x="578" 
d="M290 741q116 0 186 -75q72 -75 72 -190q0 -114 -72 -190q-70 -75 -186 -75t-188 75q-72 76 -72 190q0 115 72 190t188 75zM290 693q-93 0 -152 -62q-57 -61 -57 -155t57 -156q58 -61 152 -61q93 0 150 61q57 62 57 156t-57 155q-57 62 -150 62zM199 616h94q45 0 71 -24
t26 -65q0 -55 -51 -77l63 -114h-59l-56 106h-37v-106h-51v280zM291 570h-41v-86h41q29 -3 41.5 20t0 46t-41.5 20z" />
    <glyph glyph-name="overscore" unicode="&#xaf;" horiz-adv-x="273" 
d="M10 655h253v-55h-253v55z" />
    <glyph glyph-name="degree" unicode="&#xb0;" horiz-adv-x="335" 
d="M167 436q-63 0 -103 39q-41 41 -41 104q0 64 41 103q40 40 103 40t103 -40q42 -39 42 -103q0 -63 -41 -103t-104 -40zM167 671q-39 0 -65 -25.5t-26 -66.5t26 -67t65 -26q40 0 66 26t26 67t-26 66.5t-66 25.5z" />
    <glyph glyph-name="plusminus" unicode="&#xb1;" horiz-adv-x="472" 
d="M206 642h60v-177h176v-58h-176v-177h-60v177h-176v58h176v177zM30 155h412v-58h-412v58z" />
    <glyph glyph-name="two.sups" unicode="&#xb2;" horiz-adv-x="320" 
d="M161 807q57 0 88 -29t31 -80q0 -54 -51 -114l-107 -124h164v-52h-240v40l135 156q43 49 43 91q0 61 -64 61q-29 0 -47 -18.5t-18 -52.5h-55q0 56 33.5 89t87.5 33z" />
    <glyph glyph-name="three.sups" unicode="&#xb3;" horiz-adv-x="347" 
d="M171 807q54 0 86.5 -31t32.5 -79q0 -66 -59 -86q32 -9 52.5 -33.5t20.5 -61.5q0 -52 -36 -83.5t-94 -31.5q-62 0 -97.5 31.5t-35.5 88.5h55q0 -34 21 -52t58 -18q33 0 53.5 18.5t20.5 48.5q0 69 -99 69h-15v47h14q85 0 85 61q0 28 -16.5 44.5t-46.5 16.5t-48 -17.5
t-18 -49.5h-55q0 55 32.5 86.5t88.5 31.5z" />
    <glyph glyph-name="acute" unicode="&#xb4;" horiz-adv-x="223" 
d="M132 732h81l-137 -158h-66z" />
    <glyph glyph-name="mu" unicode="&#xb5;" horiz-adv-x="524" 
d="M382 502h62v-502h-58l-3 75q-16 -37 -54 -61.5t-87 -24.5q-61 0 -99 31v-235h-63v717h63v-325q1 -62 29.5 -95t79.5 -33q58 0 94 46t36 123v284z" />
    <glyph glyph-name="paragraph" unicode="&#xb6;" horiz-adv-x="586" 
d="M227 700h335v-48h-89v-732h-50v732h-129v-732h-50v395h-17q-90 0 -146 53q-56 54 -56 138q0 86 56 140t146 54z" />
    <glyph glyph-name="middot" unicode="&#xb7;" horiz-adv-x="191" 
d="M96 313q22 0 37.5 -15.5t15.5 -37.5q3 -36 -32.5 -50t-59.5 11q-25 24 -11 59.5t50 32.5z" />
    <glyph glyph-name="cedilla" unicode="&#xb8;" horiz-adv-x="212" 
d="M80 6h43l-17 -69h11q38 0 61.5 -22t23.5 -59q0 -39 -28 -62.5t-71 -23.5q-61 0 -93 38l29 36q24 -29 64 -29q23 0 37.5 11t14.5 29q0 19 -12.5 29.5t-32.5 10.5q-11 0 -36 -5l-22 7z" />
    <glyph glyph-name="one.sups" unicode="&#xb9;" horiz-adv-x="234" 
d="M132 800h42v-392h-55v301h-88v42q49 0 71.5 11t29.5 38z" />
    <glyph glyph-name="ordmasculine" unicode="&#xba;" horiz-adv-x="433" 
d="M394 529q0 -77 -50 -127t-128 -50t-128 50q-49 49 -49 127q0 80 49 129q50 50 128 50t128 -50t50 -129zM217 659q-54 0 -88.5 -36t-34.5 -93t34.5 -93t88.5 -36q53 0 87.5 37t34.5 92q0 56 -34 92.5t-88 36.5z" />
    <glyph glyph-name="guillemotright" unicode="&#xbb;" horiz-adv-x="441" 
d="M14 446h68l143 -187v-17l-143 -187h-68l150 195zM215 446h68l144 -187v-17l-144 -187h-68l150 195z" />
    <glyph glyph-name="onequarter" unicode="&#xbc;" horiz-adv-x="660" 
d="M505 392h64v-264h58v-49h-58v-79h-55v79h-177v44zM514 128v188l-13 -24l-104 -164h117zM132 700h42v-392h-55v301h-88v42q49 0 71.5 11t29.5 38zM500 700h73l-443 -700h-73z" />
    <glyph glyph-name="onehalf" unicode="&#xbd;" horiz-adv-x="690" 
d="M500 700h73l-443 -700h-73zM132 700h42v-392h-55v301h-88v42q49 0 71.5 11t29.5 38zM530 399q57 0 88 -29t31 -80q0 -54 -51 -114l-107 -124h164v-52h-240v40l135 156q43 49 43 91q0 61 -64 61q-30 0 -47.5 -18.5t-17.5 -52.5h-55q0 56 33.5 89t87.5 33z" />
    <glyph glyph-name="threequarters" unicode="&#xbe;" horiz-adv-x="747" 
d="M171 707q54 0 86.5 -31t32.5 -79q0 -66 -59 -86q32 -9 52.5 -33.5t20.5 -61.5q0 -52 -36 -83.5t-94 -31.5q-62 0 -97.5 31.5t-35.5 88.5h55q0 -34 21 -52t58 -18q33 0 53.5 18.5t20.5 48.5q0 69 -99 69h-15v47h14q85 0 85 61q0 28 -16.5 44.5t-46.5 16.5t-48 -17.5
t-18 -49.5h-55q0 55 32.5 86.5t88.5 31.5zM592 392h64v-264h58v-49h-58v-79h-55v79h-177v44zM601 128v188l-13 -24l-104 -164h117zM586 700h73l-443 -700h-73z" />
    <glyph glyph-name="questiondown" unicode="&#xbf;" horiz-adv-x="400" 
d="M205 -216q-82 0 -137 51q-55 49 -55 139q0 93 58 151q10 10 35.5 33.5t37 35.5t23 32.5t11.5 40.5v41h63v-42q0 -35 -17 -64t-41.5 -51t-49 -44.5t-41.5 -56t-17 -74.5q0 -64 35.5 -100t93.5 -36q63 0 98 37t35 105h62q-1 -93 -54 -145.5t-140 -52.5zM155 459
q0 22 15.5 37.5t38.5 15.5t38.5 -15t15.5 -38t-15.5 -38.5t-38.5 -15.5t-38.5 15.5t-15.5 38.5z" />
    <glyph glyph-name="Agrave" unicode="&#xc0;" horiz-adv-x="675" 
d="M350 572l-13 37l-13 -37l-126 -306h278zM306 700h63l287 -700h-74l-83 203h-324l-81 -203h-74zM176 834h98l107 -103h-79z" />
    <glyph glyph-name="Aacute" unicode="&#xc1;" horiz-adv-x="675" 
d="M350 572l-13 37l-13 -37l-126 -306h278zM306 700h63l287 -700h-74l-83 203h-324l-81 -203h-74zM395 834h98l-125 -103h-80z" />
    <glyph glyph-name="Acircumflex" unicode="&#xc2;" horiz-adv-x="675" 
d="M350 572l-13 37l-13 -37l-126 -306h278zM306 700h63l287 -700h-74l-83 203h-324l-81 -203h-74zM315 835h46l137 -105h-88l-73 57l-73 -57h-87z" />
    <glyph glyph-name="Atilde" unicode="&#xc3;" horiz-adv-x="675" 
d="M350 572l-13 37l-13 -37l-126 -306h278zM306 700h63l287 -700h-74l-83 203h-324l-81 -203h-74zM276 848q27 0 46.5 -11t28.5 -23.5t22 -23.5t28 -11q46 0 46 60h48q0 -52 -25 -82t-72 -30q-27 0 -47 11t-29 24t-22 24t-28 11q-46 0 -46 -61h-48q0 52 25 82t73 30z" />
    <glyph glyph-name="Adieresis" unicode="&#xc4;" horiz-adv-x="675" 
d="M350 572l-13 37l-13 -37l-126 -306h278zM306 700h63l287 -700h-74l-83 203h-324l-81 -203h-74zM247 824q27 2 38.5 -21.5t0 -47t-38.5 -21.5q-19 0 -32.5 13t-13.5 32t13 32t33 13zM425 824q27 2 38.5 -21.5t0 -47t-38.5 -21.5q-19 0 -32.5 13t-13.5 32t13 32t33 13z" />
    <glyph glyph-name="Aring" unicode="&#xc5;" horiz-adv-x="675" 
d="M350 572l-13 37l-13 -37l-126 -306h278zM306 700h63l287 -700h-74l-83 203h-324l-81 -203h-74zM336 770q20 0 32.5 13t12.5 32t-13 32t-32 13q-27 2 -38 -21.5t0 -47t38 -21.5zM336 903q40 0 66 -25t26 -63t-26 -63.5t-66 -25.5q-39 0 -65 25.5t-26 63.5t26 63t65 25z
" />
    <glyph glyph-name="AE" unicode="&#xc6;" horiz-adv-x="916" 
d="M480 700h388v-62h-310v-246h275v-62h-275v-268h310v-62h-376v205h-262l-140 -205h-77zM492 265v342l-20 -36l-203 -306h223z" />
    <glyph glyph-name="Ccedilla" unicode="&#xc7;" horiz-adv-x="723" 
d="M386 713q115 0 195 -55.5t110 -155.5h-74q-25 70 -84 109.5t-147 39.5q-120 0 -198 -86q-77 -86 -77 -215q0 -130 77 -216q78 -85 198 -85q89 0 148 40t84 111h74q-30 -99 -105 -154t-186 -59l-12 -50h11q38 0 61.5 -22t23.5 -59q0 -39 -28 -62.5t-71 -23.5q-61 0 -93 38
l29 36q24 -29 64 -29q23 0 37.5 11t14.5 29q0 19 -12.5 29.5t-32.5 10.5q-11 0 -36 -5l-22 7l23 91q-140 10 -228 111t-88 251q0 156 97 259q98 104 247 104z" />
    <glyph glyph-name="Egrave" unicode="&#xc8;" horiz-adv-x="505" 
d="M82 700h376v-62h-310v-246h275v-62h-275v-268h310v-62h-376v700zM116 834h98l107 -103h-79z" />
    <glyph glyph-name="Eacute" unicode="&#xc9;" horiz-adv-x="505" 
d="M82 700h376v-62h-310v-246h275v-62h-275v-268h310v-62h-376v700zM334 834h98l-125 -103h-80z" />
    <glyph glyph-name="Ecircumflex" unicode="&#xca;" horiz-adv-x="505" 
d="M254 835h46l137 -105h-88l-73 57l-73 -57h-87zM82 700h376v-62h-310v-246h275v-62h-275v-268h310v-62h-376v700z" />
    <glyph glyph-name="Edieresis" unicode="&#xcb;" horiz-adv-x="505" 
d="M82 700h376v-62h-310v-246h275v-62h-275v-268h310v-62h-376v700zM187 824q27 2 38.5 -21.5t0 -47t-38.5 -21.5q-19 0 -32.5 13t-13.5 32t13 32t33 13zM365 824q27 2 38.5 -21.5t0 -47t-38.5 -21.5q-19 0 -32.5 13t-13.5 32t13 32t33 13z" />
    <glyph glyph-name="Igrave" unicode="&#xcc;" 
d="M-46 834h98l107 -103h-79zM82 700h66v-700h-66v700z" />
    <glyph glyph-name="Iacute" unicode="&#xcd;" 
d="M172 834h98l-125 -103h-80zM82 700h66v-700h-66v700z" />
    <glyph glyph-name="Icircumflex" unicode="&#xce;" 
d="M93 835h46l137 -105h-88l-73 57l-73 -57h-87zM82 700h66v-700h-66v700z" />
    <glyph glyph-name="Idieresis" unicode="&#xcf;" 
d="M26 824q27 2 38.5 -21.5t0 -47t-38.5 -21.5q-19 0 -32.5 13t-13.5 32t13 32t33 13zM204 824q27 2 38.5 -21.5t0 -47t-38.5 -21.5q-19 0 -32.5 13t-13.5 32t13 32t33 13zM82 700h66v-700h-66v700z" />
    <glyph glyph-name="Eth" unicode="&#xd0;" horiz-adv-x="736" 
d="M91 700h246q162 0 256 -96q96 -94 96 -254q0 -159 -96 -255q-95 -95 -256 -95h-246v321h-93v55h93v324zM337 638h-180v-262h148v-55h-148v-259h180q131 0 208 77t77 211q0 133 -77 210q-77 78 -208 78z" />
    <glyph glyph-name="Ntilde" unicode="&#xd1;" horiz-adv-x="701" 
d="M553 700h66v-700h-64l-380 544l-27 41v-585h-66v700h63l378 -541l30 -44v585zM290 848q27 0 46.5 -11t28.5 -23.5t22 -23.5t28 -11q46 0 46 60h48q0 -52 -25 -82t-72 -30q-27 0 -47 11t-29 24t-22 24t-28 11q-46 0 -46 -61h-48q0 52 25 82t73 30z" />
    <glyph glyph-name="Ograve" unicode="&#xd2;" horiz-adv-x="793" 
d="M751 351q0 -157 -100 -260q-101 -104 -254 -104q-154 0 -255 104q-100 103 -100 260q0 155 100 258q101 104 255 104q153 0 254 -104q100 -103 100 -258zM397 651q-125 0 -206 -86q-80 -86 -80 -214q0 -130 80 -216q81 -86 206 -86q124 0 204 86q81 85 81 216
q0 128 -81 214q-80 86 -204 86zM235 844h98l107 -103h-79z" />
    <glyph glyph-name="Oacute" unicode="&#xd3;" horiz-adv-x="793" 
d="M751 351q0 -157 -100 -260q-101 -104 -254 -104q-154 0 -255 104q-100 103 -100 260q0 155 100 258q101 104 255 104q153 0 254 -104q100 -103 100 -258zM397 651q-125 0 -206 -86q-80 -86 -80 -214q0 -130 80 -216q81 -86 206 -86q124 0 204 86q81 85 81 216
q0 128 -81 214q-80 86 -204 86zM454 844h98l-125 -103h-80z" />
    <glyph glyph-name="Ocircumflex" unicode="&#xd4;" horiz-adv-x="793" 
d="M374 845h46l137 -105h-88l-73 57l-73 -57h-87zM751 351q0 -157 -100 -260q-101 -104 -254 -104q-154 0 -255 104q-100 103 -100 260q0 155 100 258q101 104 255 104q153 0 254 -104q100 -103 100 -258zM397 651q-125 0 -206 -86q-80 -86 -80 -214q0 -130 80 -216
q81 -86 206 -86q124 0 204 86q81 85 81 216q0 128 -81 214q-80 86 -204 86z" />
    <glyph glyph-name="Otilde" unicode="&#xd5;" horiz-adv-x="793" 
d="M335 858q27 0 46.5 -11t28.5 -23.5t22 -23.5t28 -11q46 0 46 60h48q0 -52 -25 -82t-72 -30q-27 0 -47 11t-29 24t-22 24t-28 11q-46 0 -46 -61h-48q0 52 25 82t73 30zM751 351q0 -157 -100 -260q-101 -104 -254 -104q-154 0 -255 104q-100 103 -100 260q0 155 100 258
q101 104 255 104q153 0 254 -104q100 -103 100 -258zM397 651q-125 0 -206 -86q-80 -86 -80 -214q0 -130 80 -216q81 -86 206 -86q124 0 204 86q81 85 81 216q0 128 -81 214q-80 86 -204 86z" />
    <glyph glyph-name="Odieresis" unicode="&#xd6;" horiz-adv-x="793" 
d="M751 351q0 -157 -100 -260q-101 -104 -254 -104q-154 0 -255 104q-100 103 -100 260q0 155 100 258q101 104 255 104q153 0 254 -104q100 -103 100 -258zM397 651q-125 0 -206 -86q-80 -86 -80 -214q0 -130 80 -216q81 -86 206 -86q124 0 204 86q81 85 81 216
q0 128 -81 214q-80 86 -204 86zM306 834q27 2 38.5 -21.5t0 -47t-38.5 -21.5q-19 0 -32.5 13t-13.5 32t13 32t33 13zM484 834q27 2 38.5 -21.5t0 -47t-38.5 -21.5q-19 0 -32.5 13t-13.5 32t13 32t33 13z" />
    <glyph glyph-name="multiply" unicode="&#xd7;" horiz-adv-x="410" 
d="M204 392l135 134l42 -43l-134 -135l134 -134l-42 -41l-133 134l-135 -134l-42 42l134 135l-134 134l41 42z" />
    <glyph glyph-name="Oslash" unicode="&#xd8;" horiz-adv-x="793" 
d="M397 713q77 0 146 -30l43 78l54 -26l-44 -80q73 -49 114 -129t41 -175q0 -157 -100 -260q-101 -104 -254 -104q-81 0 -150 31l-44 -82l-54 26l46 84q-72 48 -112.5 128.5t-40.5 176.5q0 155 100 258q101 104 255 104zM682 351q0 77 -31 142t-86 105l-287 -525
q52 -24 119 -24q124 0 204 86q81 85 81 216zM397 651q-125 0 -206 -86q-80 -86 -80 -214q0 -160 115 -247l287 523q-56 24 -116 24z" />
    <glyph glyph-name="Ugrave" unicode="&#xd9;" horiz-adv-x="684" 
d="M545 700h67v-426q0 -140 -70 -213.5t-200 -73.5q-129 0 -199 73.5t-70 213.5v426h66v-426q0 -225 203 -225t203 225v426zM181 834h98l107 -103h-79z" />
    <glyph glyph-name="Uacute" unicode="&#xda;" horiz-adv-x="684" 
d="M545 700h67v-426q0 -140 -70 -213.5t-200 -73.5q-129 0 -199 73.5t-70 213.5v426h66v-426q0 -225 203 -225t203 225v426zM400 834h98l-125 -103h-80z" />
    <glyph glyph-name="Ucircumflex" unicode="&#xdb;" horiz-adv-x="684" 
d="M320 835h46l137 -105h-88l-73 57l-73 -57h-87zM545 700h67v-426q0 -140 -70 -213.5t-200 -73.5q-129 0 -199 73.5t-70 213.5v426h66v-426q0 -225 203 -225t203 225v426z" />
    <glyph glyph-name="Udieresis" unicode="&#xdc;" horiz-adv-x="684" 
d="M252 824q27 2 38.5 -21.5t0 -47t-38.5 -21.5q-19 0 -32.5 13t-13.5 32t13 32t33 13zM430 824q27 2 38.5 -21.5t0 -47t-38.5 -21.5q-19 0 -32.5 13t-13.5 32t13 32t33 13zM545 700h67v-426q0 -140 -70 -213.5t-200 -73.5q-129 0 -199 73.5t-70 213.5v426h66v-426
q0 -225 203 -225t203 225v426z" />
    <glyph glyph-name="Yacute" unicode="&#xdd;" horiz-adv-x="667" 
d="M572 700h78l-283 -432v-268h-67v268l-283 432h78l210 -320l28 -47l28 47zM391 834h98l-125 -103h-80z" />
    <glyph glyph-name="Thorn" unicode="&#xde;" horiz-adv-x="549" 
d="M82 700h66v-115h144q99 0 157 -53t58 -141t-58 -140t-157 -52h-144v-199h-66v700zM292 522h-144v-260h144q69 0 109 34.5t40 94.5q0 61 -40 96t-109 35z" />
    <glyph glyph-name="germandbls" unicode="&#xdf;" horiz-adv-x="540" 
d="M268 732v-61q-60 0 -89.5 -31.5t-29.5 -100.5v-37h332v-51l-167 -242q102 -8 158 -68q57 -61 57 -143q0 -102 -60.5 -160t-173.5 -58q-37 0 -82 8l6 64q46 -11 72 -11q84 0 128.5 40t44.5 117q0 71 -50 112t-132 41h-47v41l171 251h-257v-443h-65v539q0 193 184 193z" />
    <glyph glyph-name="agrave" unicode="&#xe0;" horiz-adv-x="482" 
d="M239 513q83 0 127.5 -46.5t44.5 -131.5v-335h-60l-2 73q-21 -37 -63.5 -60.5t-95.5 -23.5q-65 0 -103.5 37t-38.5 97q0 115 136 143l163 34v33q0 121 -108 121q-52 0 -83 -28t-31 -80h-63q2 73 49 119q49 48 128 48zM347 201v42l-151 -33q-43 -10 -63.5 -29.5
t-20.5 -56.5q0 -36 22.5 -56t63.5 -20q72 0 116 54q33 44 33 99zM74 732h81l122 -158h-66z" />
    <glyph glyph-name="aacute" unicode="&#xe1;" horiz-adv-x="482" 
d="M239 513q83 0 127.5 -46.5t44.5 -131.5v-335h-60l-2 73q-21 -37 -63.5 -60.5t-95.5 -23.5q-65 0 -103.5 37t-38.5 97q0 115 136 143l163 34v33q0 121 -108 121q-52 0 -83 -28t-31 -80h-63q2 73 49 119q49 48 128 48zM347 201v42l-151 -33q-43 -10 -63.5 -29.5
t-20.5 -56.5q0 -36 22.5 -56t63.5 -20q72 0 116 54q33 44 33 99zM324 732h81l-137 -158h-66z" />
    <glyph glyph-name="acircumflex" unicode="&#xe2;" horiz-adv-x="482" 
d="M239 513q83 0 127.5 -46.5t44.5 -131.5v-335h-60l-2 73q-21 -37 -63.5 -60.5t-95.5 -23.5q-65 0 -103.5 37t-38.5 97q0 115 136 143l163 34v33q0 121 -108 121q-52 0 -83 -28t-31 -80h-63q2 73 49 119q49 48 128 48zM347 201v42l-151 -33q-43 -10 -63.5 -29.5
t-20.5 -56.5q0 -36 22.5 -56t63.5 -20q72 0 116 54q33 44 33 99zM224 732h35l134 -158h-73l-78 99l-79 -99h-73z" />
    <glyph glyph-name="atilde" unicode="&#xe3;" horiz-adv-x="482" 
d="M239 513q83 0 127.5 -46.5t44.5 -131.5v-335h-60l-2 73q-21 -37 -63.5 -60.5t-95.5 -23.5q-65 0 -103.5 37t-38.5 97q0 115 136 143l163 34v33q0 121 -108 121q-52 0 -83 -28t-31 -80h-63q2 73 49 119q49 48 128 48zM347 201v42l-151 -33q-43 -10 -63.5 -29.5
t-20.5 -56.5q0 -36 22.5 -56t63.5 -20q72 0 116 54q33 44 33 99zM185 698q26 0 45.5 -12t28.5 -26.5t22.5 -26.5t28.5 -12q46 0 46 68h48q0 -55 -25 -87.5t-72 -32.5q-27 0 -46.5 12t-28.5 27t-22.5 27t-28.5 12q-46 0 -46 -69h-48q0 56 25 88t73 32z" />
    <glyph glyph-name="adieresis" unicode="&#xe4;" horiz-adv-x="482" 
d="M239 513q83 0 127.5 -46.5t44.5 -131.5v-335h-60l-2 73q-21 -37 -63.5 -60.5t-95.5 -23.5q-65 0 -103.5 37t-38.5 97q0 115 136 143l163 34v33q0 121 -108 121q-52 0 -83 -28t-31 -80h-63q2 73 49 119q49 48 128 48zM347 201v42l-151 -33q-43 -10 -63.5 -29.5
t-20.5 -56.5q0 -36 22.5 -56t63.5 -20q72 0 116 54q33 44 33 99zM120 663q14 14 33 14t32 -14q13 -13 13 -32t-13 -32t-32 -13t-33 13q-13 13 -13 32t13 32zM298 663q14 14 33 14t32 -14q13 -13 13 -32t-13 -32t-32 -13t-33 13q-13 13 -13 32t13 32z" />
    <glyph glyph-name="aring" unicode="&#xe5;" horiz-adv-x="482" 
d="M239 513q83 0 127.5 -46.5t44.5 -131.5v-335h-60l-2 73q-21 -37 -63.5 -60.5t-95.5 -23.5q-65 0 -103.5 37t-38.5 97q0 115 136 143l163 34v33q0 121 -108 121q-52 0 -83 -28t-31 -80h-63q2 73 49 119q49 48 128 48zM347 201v42l-151 -33q-43 -10 -63.5 -29.5
t-20.5 -56.5q0 -36 22.5 -56t63.5 -20q72 0 116 54q33 44 33 99zM347 656q0 -42 -28.5 -70t-73.5 -28t-73.5 28t-28.5 70q0 44 28.5 72.5t73.5 28.5t73.5 -28.5t28.5 -72.5zM190 657q0 -22 16 -38.5t39 -16.5t39 16.5t16 38.5q0 24 -15.5 39.5t-39.5 15.5t-39.5 -16
t-15.5 -39z" />
    <glyph glyph-name="ae" unicode="&#xe6;" horiz-adv-x="860" 
d="M582 513q104 0 166 -66.5t62 -184.5v-35h-399q4 -81 52.5 -130t121.5 -49q118 0 154 94h65q-23 -73 -80 -113t-140 -40q-68 0 -121.5 32t-83.5 89q-29 -59 -77.5 -90t-106.5 -31q-68 0 -107.5 36.5t-39.5 97.5q0 114 137 143l162 33v33q0 122 -109 122q-52 0 -82.5 -28
t-30.5 -80h-63q2 73 48 119q48 48 128 48q118 0 157 -94q66 94 187 94zM582 454q-71 0 -118 -47t-53 -123h335q0 79 -44.5 124.5t-119.5 45.5zM347 196v47l-143 -31q-49 -12 -70.5 -32t-21.5 -57q0 -35 23 -55t66 -20q72 0 112 52q34 44 34 96z" />
    <glyph glyph-name="ccedilla" unicode="&#xe7;" horiz-adv-x="537" 
d="M276 513q83 0 141 -41t78 -115h-65q-16 45 -57 71t-96 26q-77 0 -126 -58q-50 -59 -50 -146q0 -85 50 -144q51 -58 127 -58q54 0 95 26t57 71h65q-20 -71 -73 -111t-129 -44l-13 -53h11q38 0 61.5 -22t23.5 -59q0 -39 -28 -62.5t-71 -23.5q-61 0 -93 38l29 36
q24 -29 64 -29q23 0 37.5 11t14.5 29q0 19 -12.5 29.5t-32.5 10.5q-11 0 -36 -5l-22 7l24 94q-94 9 -154 81q-59 74 -59 178q0 115 67 188q67 75 172 75z" />
    <glyph glyph-name="egrave" unicode="&#xe8;" horiz-adv-x="550" 
d="M272 513q104 0 166 -66.5t62 -184.5v-35h-399q4 -81 52.5 -130t121.5 -49q118 0 154 94h65q-23 -73 -80 -113t-140 -40q-104 0 -171 72q-66 72 -66 189q0 116 64 189q65 74 171 74zM272 454q-71 0 -118 -47t-53 -123h335q0 79 -44.5 124.5t-119.5 45.5zM101 732h81
l122 -158h-66z" />
    <glyph glyph-name="eacute" unicode="&#xe9;" horiz-adv-x="550" 
d="M272 513q104 0 166 -66.5t62 -184.5v-35h-399q4 -81 52.5 -130t121.5 -49q118 0 154 94h65q-23 -73 -80 -113t-140 -40q-104 0 -171 72q-66 72 -66 189q0 116 64 189q65 74 171 74zM272 454q-71 0 -118 -47t-53 -123h335q0 79 -44.5 124.5t-119.5 45.5zM351 732h81
l-137 -158h-66z" />
    <glyph glyph-name="ecircumflex" unicode="&#xea;" horiz-adv-x="550" 
d="M272 513q104 0 166 -66.5t62 -184.5v-35h-399q4 -81 52.5 -130t121.5 -49q118 0 154 94h65q-23 -73 -80 -113t-140 -40q-104 0 -171 72q-66 72 -66 189q0 116 64 189q65 74 171 74zM272 454q-71 0 -118 -47t-53 -123h335q0 79 -44.5 124.5t-119.5 45.5zM251 732h35
l134 -158h-73l-78 99l-79 -99h-73z" />
    <glyph glyph-name="edieresis" unicode="&#xeb;" horiz-adv-x="550" 
d="M272 513q104 0 166 -66.5t62 -184.5v-35h-399q4 -81 52.5 -130t121.5 -49q118 0 154 94h65q-23 -73 -80 -113t-140 -40q-104 0 -171 72q-66 72 -66 189q0 116 64 189q65 74 171 74zM272 454q-71 0 -118 -47t-53 -123h335q0 79 -44.5 124.5t-119.5 45.5zM153 663
q14 14 33 14t32 -14q13 -13 13 -32t-13 -32t-32 -13t-33 13q-13 13 -13 32t13 32zM331 663q14 14 33 14t32 -14q13 -13 13 -32t-13 -32t-32 -13t-33 13q-13 13 -13 32t13 32z" />
    <glyph glyph-name="igrave" unicode="&#xec;" 
d="M-52 732h81l122 -158h-66zM84 502h63v-502h-63v502z" />
    <glyph glyph-name="iacute" unicode="&#xed;" 
d="M197 732h81l-137 -158h-66zM84 502h63v-502h-63v502z" />
    <glyph glyph-name="icircumflex" unicode="&#xee;" 
d="M98 732h35l134 -158h-73l-78 99l-79 -99h-73zM84 502h63v-502h-63v502z" />
    <glyph glyph-name="idieresis" unicode="&#xef;" 
d="M-6 663q14 14 33 14t32 -14q13 -13 13 -32t-13 -32t-32 -13t-32 13q-14 13 -14 32t13 32zM172 663q14 14 33 14t32 -14q13 -13 13 -32t-13 -32t-32 -13t-33 13q-13 13 -13 32t13 32zM84 502h63v-502h-63v502z" />
    <glyph glyph-name="eth" unicode="&#xf0;" horiz-adv-x="549" 
d="M262 624h149v-59h-100l132 -160q67 -79 67 -175q0 -104 -66 -173q-65 -68 -169 -68q-105 0 -170 68t-65 173q0 104 65 172t170 68q5 0 35 -2l-80 97h-152v59h104l-87 106h80zM446 230q0 74 -51 135q-46 46 -120 46q-76 0 -124 -51q-47 -52 -47 -130t47 -131
q48 -52 124 -52q77 0 123 52q48 53 48 131z" />
    <glyph glyph-name="ntilde" unicode="&#xf1;" horiz-adv-x="523" 
d="M212 698q26 0 45.5 -12t28.5 -26.5t22.5 -26.5t28.5 -12q46 0 46 68h48q0 -55 -25 -87.5t-72 -32.5q-27 0 -46.5 12t-28.5 27t-22.5 27t-28.5 12q-46 0 -46 -69h-48q0 56 25 88t73 32zM285 513q78 0 121 -51.5t43 -137.5v-324h-63v318q0 65 -29.5 99.5t-81.5 34.5
q-58 0 -95 -47.5t-37 -125.5v-279h-63v502h58l3 -76q16 37 55.5 62t88.5 25z" />
    <glyph glyph-name="ograve" unicode="&#xf2;" horiz-adv-x="573" 
d="M106 439q71 74 181 74q111 0 180 -74t69 -188q0 -115 -69 -188q-69 -74 -180 -74q-110 0 -181 74q-69 73 -69 188t69 188zM288 454q-84 0 -136 -58q-51 -57 -51 -145q0 -87 51 -146q52 -57 136 -57t133 57q51 59 51 146q0 88 -51 145q-49 58 -133 58zM119 732h81
l122 -158h-66z" />
    <glyph glyph-name="oacute" unicode="&#xf3;" horiz-adv-x="573" 
d="M106 439q71 74 181 74q111 0 180 -74t69 -188q0 -115 -69 -188q-69 -74 -180 -74q-110 0 -181 74q-69 73 -69 188t69 188zM288 454q-84 0 -136 -58q-51 -57 -51 -145q0 -87 51 -146q52 -57 136 -57t133 57q51 59 51 146q0 88 -51 145q-49 58 -133 58zM368 732h81
l-137 -158h-66z" />
    <glyph glyph-name="ocircumflex" unicode="&#xf4;" horiz-adv-x="573" 
d="M268 732h35l134 -158h-73l-78 99l-79 -99h-73zM106 439q71 74 181 74q111 0 180 -74t69 -188q0 -115 -69 -188q-69 -74 -180 -74q-110 0 -181 74q-69 73 -69 188t69 188zM288 454q-84 0 -136 -58q-51 -57 -51 -145q0 -87 51 -146q52 -57 136 -57t133 57q51 59 51 146
q0 88 -51 145q-49 58 -133 58z" />
    <glyph glyph-name="otilde" unicode="&#xf5;" horiz-adv-x="573" 
d="M226 698q26 0 45.5 -12t28.5 -26.5t22.5 -26.5t28.5 -12q46 0 46 68h48q0 -55 -25 -87.5t-72 -32.5q-27 0 -46.5 12t-28.5 27t-22.5 27t-28.5 12q-46 0 -46 -69h-48q0 56 25 88t73 32zM106 439q71 74 181 74q111 0 180 -74t69 -188q0 -115 -69 -188q-69 -74 -180 -74
q-110 0 -181 74q-69 73 -69 188t69 188zM288 454q-84 0 -136 -58q-51 -57 -51 -145q0 -87 51 -146q52 -57 136 -57t133 57q51 59 51 146q0 88 -51 145q-49 58 -133 58z" />
    <glyph glyph-name="odieresis" unicode="&#xf6;" horiz-adv-x="573" 
d="M106 439q71 74 181 74q111 0 180 -74t69 -188q0 -115 -69 -188q-69 -74 -180 -74q-110 0 -181 74q-69 73 -69 188t69 188zM288 454q-84 0 -136 -58q-51 -57 -51 -145q0 -87 51 -146q52 -57 136 -57t133 57q51 59 51 146q0 88 -51 145q-49 58 -133 58zM164 663
q14 14 33 14t32 -14q13 -13 13 -32t-13 -32t-32 -13t-33 13q-13 13 -13 32t13 32zM342 663q14 14 33 14t32 -14q13 -13 13 -32t-13 -32t-32 -13t-33 13q-13 13 -13 32t13 32z" />
    <glyph glyph-name="divide" unicode="&#xf7;" horiz-adv-x="472" 
d="M279 527q0 -20 -14.5 -34t-35.5 -14t-35 14t-14 34q0 21 14 35t35 14t35.5 -14t14.5 -35zM180 172q0 20 14 34.5t35 14.5t35.5 -14t14.5 -35t-14.5 -34.5t-35.5 -13.5t-35 13.5t-14 34.5zM30 379h412v-58h-412v58z" />
    <glyph glyph-name="oslash" unicode="&#xf8;" horiz-adv-x="573" 
d="M287 513q53 0 102 -20l39 73l44 -21l-40 -76q104 -74 104 -218q0 -115 -69 -188q-69 -74 -180 -74q-54 0 -101 19l-39 -73l-45 22l40 75q-105 74 -105 219q0 115 69 188q71 74 181 74zM288 454q-84 0 -136 -58q-51 -57 -51 -145q0 -105 71 -164l188 353q-34 14 -72 14z
M472 251q0 106 -70 163l-188 -352q36 -14 74 -14q84 0 133 57q51 59 51 146z" />
    <glyph glyph-name="ugrave" unicode="&#xf9;" horiz-adv-x="517" 
d="M374 502h63v-502h-59l-2 75q-16 -37 -54.5 -61.5t-87.5 -24.5q-78 0 -120 50.5t-42 138.5v324h63v-318q0 -65 29 -100t81 -35q57 0 93 46t36 123v284zM89 732h81l122 -158h-66z" />
    <glyph glyph-name="uacute" unicode="&#xfa;" horiz-adv-x="517" 
d="M374 502h63v-502h-59l-2 75q-16 -37 -54.5 -61.5t-87.5 -24.5q-78 0 -120 50.5t-42 138.5v324h63v-318q0 -65 29 -100t81 -35q57 0 93 46t36 123v284zM339 732h81l-137 -158h-66z" />
    <glyph glyph-name="ucircumflex" unicode="&#xfb;" horiz-adv-x="517" 
d="M238 732h35l134 -158h-73l-78 99l-79 -99h-73zM374 502h63v-502h-59l-2 75q-16 -37 -54.5 -61.5t-87.5 -24.5q-78 0 -120 50.5t-42 138.5v324h63v-318q0 -65 29 -100t81 -35q57 0 93 46t36 123v284z" />
    <glyph glyph-name="udieresis" unicode="&#xfc;" horiz-adv-x="517" 
d="M374 502h63v-502h-59l-2 75q-16 -37 -54.5 -61.5t-87.5 -24.5q-78 0 -120 50.5t-42 138.5v324h63v-318q0 -65 29 -100t81 -35q57 0 93 46t36 123v284zM134 663q14 14 33 14t32 -14q13 -13 13 -32t-13 -32t-32 -13t-33 13q-13 13 -13 32t13 32zM312 663q14 14 33 14
t32 -14q13 -13 13 -32t-13 -32t-32 -13t-33 13q-13 13 -13 32t13 32z" />
    <glyph glyph-name="yacute" unicode="&#xfd;" horiz-adv-x="495" 
d="M408 502h68l-283 -717h-67l88 223l-195 494h67l151 -389l10 -35l11 35zM329 732h81l-137 -158h-66z" />
    <glyph glyph-name="thorn" unicode="&#xfe;" horiz-adv-x="601" 
d="M89 730h64v-311q23 39 70.5 66.5t107.5 27.5q107 0 170 -74t63 -188q0 -115 -64 -188q-65 -74 -171 -74q-61 0 -107.5 26.5t-68.5 68.5v-299h-64v945zM325 453q-73 0 -123 -49q-50 -50 -50 -134v-31q0 -87 50 -140q50 -51 121 -51q79 0 128 57q49 56 49 146q0 89 -48 145
q-46 57 -127 57z" />
    <glyph glyph-name="ydieresis" unicode="&#xff;" horiz-adv-x="495" 
d="M408 502h68l-283 -717h-67l88 223l-195 494h67l151 -389l10 -35l11 35zM125 663q14 14 33 14t32 -14q13 -13 13 -32t-13 -32t-32 -13t-33 13q-13 13 -13 32t13 32zM303 663q14 14 33 14t32 -14q13 -13 13 -32t-13 -32t-32 -13t-33 13q-13 13 -13 32t13 32z" />
    <glyph glyph-name="Amacron" unicode="&#x100;" horiz-adv-x="675" 
d="M350 572l-13 37l-13 -37l-126 -306h278zM306 700h63l287 -700h-74l-83 203h-324l-81 -203h-74zM210 797h253v-54h-253v54z" />
    <glyph glyph-name="amacron" unicode="&#x101;" horiz-adv-x="482" 
d="M239 513q83 0 127.5 -46.5t44.5 -131.5v-335h-60l-2 73q-21 -37 -63.5 -60.5t-95.5 -23.5q-65 0 -103.5 37t-38.5 97q0 115 136 143l163 34v33q0 121 -108 121q-52 0 -83 -28t-31 -80h-63q2 73 49 119q49 48 128 48zM347 201v42l-151 -33q-43 -10 -63.5 -29.5
t-20.5 -56.5q0 -36 22.5 -56t63.5 -20q72 0 116 54q33 44 33 99zM123 655h253v-55h-253v55z" />
    <glyph glyph-name="Abreve" unicode="&#x102;" horiz-adv-x="675" 
d="M350 572l-13 37l-13 -37l-126 -306h278zM306 700h63l287 -700h-74l-83 203h-324l-81 -203h-74zM415 843h57q0 -51 -37.5 -82.5t-97.5 -31.5q-61 0 -98.5 31.5t-37.5 82.5h56q0 -29 21.5 -46.5t58.5 -17.5q36 0 57 17.5t21 46.5z" />
    <glyph glyph-name="abreve" unicode="&#x103;" horiz-adv-x="482" 
d="M239 513q83 0 127.5 -46.5t44.5 -131.5v-335h-60l-2 73q-21 -37 -63.5 -60.5t-95.5 -23.5q-65 0 -103.5 37t-38.5 97q0 115 136 143l163 34v33q0 121 -108 121q-52 0 -83 -28t-31 -80h-63q2 73 49 119q49 48 128 48zM347 201v42l-151 -33q-43 -10 -63.5 -29.5
t-20.5 -56.5q0 -36 22.5 -56t63.5 -20q72 0 116 54q33 44 33 99zM325 705h56q0 -57 -37.5 -95t-97.5 -38t-98 37.5t-38 95.5h56q0 -37 22 -60t58 -23q35 0 57 23.5t22 59.5z" />
    <glyph glyph-name="Aogonek" unicode="&#x104;" horiz-adv-x="675" 
d="M306 700h63l287 -700h-14q-60 -30 -60 -84q0 -29 15.5 -45t42.5 -16q25 0 43 9l14 -45q-21 -12 -59 -12q-47 0 -76.5 29.5t-29.5 78.5q0 57 46 93l-79 195h-324l-81 -203h-74zM350 572l-13 37l-13 -37l-126 -306h278z" />
    <glyph glyph-name="aogonek" unicode="&#x105;" horiz-adv-x="482" 
d="M239 513q83 0 127.5 -46.5t44.5 -131.5v-335h-4q-60 -30 -60 -84q0 -29 15.5 -45t42.5 -16q25 0 43 9l14 -45q-21 -12 -59 -12q-47 0 -76.5 29.5t-29.5 78.5q0 62 53 98l-1 60q-21 -37 -63.5 -60.5t-95.5 -23.5q-65 0 -103.5 37t-38.5 97q0 115 136 143l163 34v33
q0 121 -108 121q-52 0 -83 -28t-31 -80h-63q2 73 49 119q49 48 128 48zM347 201v42l-151 -33q-43 -10 -63.5 -29.5t-20.5 -56.5q0 -36 22.5 -56t63.5 -20q72 0 116 54q33 44 33 99z" />
    <glyph glyph-name="Cacute" unicode="&#x106;" horiz-adv-x="723" 
d="M386 713q115 0 195 -55.5t110 -155.5h-74q-25 70 -84 109.5t-147 39.5q-120 0 -198 -86q-77 -86 -77 -215q0 -130 77 -216q78 -85 198 -85q89 0 148 40t84 111h74q-31 -102 -110 -157.5t-196 -55.5q-150 0 -247 103t-97 260q0 156 97 259q98 104 247 104zM443 844h98
l-125 -103h-80z" />
    <glyph glyph-name="cacute" unicode="&#x107;" horiz-adv-x="537" 
d="M276 513q83 0 141 -41t78 -115h-65q-16 45 -57 71t-96 26q-77 0 -126 -58q-50 -59 -50 -146q0 -85 50 -144q51 -58 127 -58q54 0 95 26t57 71h65q-21 -74 -79 -115t-140 -41q-104 0 -172 74q-67 74 -67 187q0 115 67 188q67 75 172 75zM358 732h81l-137 -158h-66z" />
    <glyph glyph-name="Ccircumflex" unicode="&#x108;" horiz-adv-x="723" 
d="M386 713q115 0 195 -55.5t110 -155.5h-74q-25 70 -84 109.5t-147 39.5q-120 0 -198 -86q-77 -86 -77 -215q0 -130 77 -216q78 -85 198 -85q89 0 148 40t84 111h74q-31 -102 -110 -157.5t-196 -55.5q-150 0 -247 103t-97 260q0 156 97 259q98 104 247 104zM363 845h46
l137 -105h-88l-73 57l-73 -57h-87z" />
    <glyph glyph-name="ccircumflex" unicode="&#x109;" horiz-adv-x="537" 
d="M276 513q83 0 141 -41t78 -115h-65q-16 45 -57 71t-96 26q-77 0 -126 -58q-50 -59 -50 -146q0 -85 50 -144q51 -58 127 -58q54 0 95 26t57 71h65q-21 -74 -79 -115t-140 -41q-104 0 -172 74q-67 74 -67 187q0 115 67 188q67 75 172 75zM258 732h35l134 -158h-73l-78 99
l-79 -99h-73z" />
    <glyph glyph-name="Cdotaccent" unicode="&#x10a;" horiz-adv-x="723" 
d="M386 713q115 0 195 -55.5t110 -155.5h-74q-25 70 -84 109.5t-147 39.5q-120 0 -198 -86q-77 -86 -77 -215q0 -130 77 -216q78 -85 198 -85q89 0 148 40t84 111h74q-31 -102 -110 -157.5t-196 -55.5q-150 0 -247 103t-97 260q0 156 97 259q98 104 247 104zM385 839
q19 0 33 -13.5t14 -33.5t-13.5 -33.5t-33.5 -13.5t-34 13.5t-14 33.5t14 33.5t34 13.5z" />
    <glyph glyph-name="cdotaccent" unicode="&#x10b;" horiz-adv-x="537" 
d="M276 513q83 0 141 -41t78 -115h-65q-16 45 -57 71t-96 26q-77 0 -126 -58q-50 -59 -50 -146q0 -85 50 -144q51 -58 127 -58q54 0 95 26t57 71h65q-21 -74 -79 -115t-140 -41q-104 0 -172 74q-67 74 -67 187q0 115 67 188q67 75 172 75zM241 674q15 15 35 15t34 -15
q15 -14 15 -34t-15 -34q-14 -14 -34 -14t-35 14q-14 14 -14 34t14 34z" />
    <glyph glyph-name="Ccaron" unicode="&#x10c;" horiz-adv-x="723" 
d="M386 713q115 0 195 -55.5t110 -155.5h-74q-25 70 -84 109.5t-147 39.5q-120 0 -198 -86q-77 -86 -77 -215q0 -130 77 -216q78 -85 198 -85q89 0 148 40t84 111h74q-31 -102 -110 -157.5t-196 -55.5q-150 0 -247 103t-97 260q0 156 97 259q98 104 247 104zM458 842h88
l-137 -105h-46l-138 105h87l73 -56z" />
    <glyph glyph-name="ccaron" unicode="&#x10d;" horiz-adv-x="537" 
d="M276 513q83 0 141 -41t78 -115h-65q-16 45 -57 71t-96 26q-77 0 -126 -58q-50 -59 -50 -146q0 -85 50 -144q51 -58 127 -58q54 0 95 26t57 71h65q-21 -74 -79 -115t-140 -41q-104 0 -172 74q-67 74 -67 187q0 115 67 188q67 75 172 75zM354 720h73l-134 -158h-35
l-134 158h73l79 -99z" />
    <glyph glyph-name="Dcaron" unicode="&#x10e;" horiz-adv-x="727" 
d="M405 832h88l-137 -105h-46l-138 105h87l73 -56zM82 700h246q161 0 256 -96q96 -94 96 -254q0 -159 -96 -255q-95 -95 -256 -95h-246v700zM328 638h-180v-576h180q130 0 207 77q78 77 78 211q0 133 -77 210q-76 78 -208 78z" />
    <glyph glyph-name="dcaron" unicode="&#x10f;" horiz-adv-x="709" 
d="M449 730h62v-730h-58l-2 85q-23 -41 -71 -68.5t-109 -27.5q-106 0 -171 74q-63 73 -63 188t64 188q65 74 171 74q61 0 108.5 -27t68.5 -68v312zM278 453q-78 0 -128 -57q-49 -56 -49 -145t48 -146t128 -57q71 0 121 51q51 53 51 138v21q0 90 -51 142q-50 53 -120 53z
M643 717q22 0 37 -15.5t15 -39.5q0 -88 -68 -168l-23 10q30 51 37 112q-21 2 -34.5 15.5t-13.5 34.5t14.5 36t35.5 15z" />
    <glyph glyph-name="Dcroat" unicode="&#x110;" horiz-adv-x="736" 
d="M91 700h246q162 0 256 -96q96 -94 96 -254q0 -159 -96 -255q-95 -95 -256 -95h-246v321h-93v55h93v324zM337 638h-180v-262h148v-55h-148v-259h180q131 0 208 77t77 211q0 133 -77 210q-77 78 -208 78z" />
    <glyph glyph-name="dslash" unicode="&#x111;" horiz-adv-x="596" 
d="M449 730h62v-68h80v-53h-80v-609h-58l-2 85q-23 -41 -71 -68.5t-109 -27.5q-106 0 -171 74q-63 73 -63 188t64 188q65 74 171 74q61 0 108.5 -27t68.5 -68v191h-112v53h112v68zM278 453q-78 0 -128 -57q-49 -56 -49 -145t48 -146t128 -57q71 0 121 51q51 53 51 138v21
q0 90 -51 142q-50 53 -120 53z" />
    <glyph glyph-name="Emacron" unicode="&#x112;" horiz-adv-x="505" 
d="M82 700h376v-62h-310v-246h275v-62h-275v-268h310v-62h-376v700zM148 797h253v-54h-253v54z" />
    <glyph glyph-name="emacron" unicode="&#x113;" horiz-adv-x="550" 
d="M272 513q104 0 166 -66.5t62 -184.5v-35h-399q4 -81 52.5 -130t121.5 -49q118 0 154 94h65q-23 -73 -80 -113t-140 -40q-104 0 -171 72q-66 72 -66 189q0 116 64 189q65 74 171 74zM272 454q-71 0 -118 -47t-53 -123h335q0 79 -44.5 124.5t-119.5 45.5zM143 655h253v-55
h-253v55z" />
    <glyph glyph-name="Ebreve" unicode="&#x114;" horiz-adv-x="505" 
d="M82 700h376v-62h-310v-246h275v-62h-275v-268h310v-62h-376v700zM354 843h57q0 -51 -37.5 -82.5t-97.5 -31.5q-61 0 -98.5 31.5t-37.5 82.5h56q0 -29 21.5 -46.5t58.5 -17.5q36 0 57 17.5t21 46.5z" />
    <glyph glyph-name="ebreve" unicode="&#x115;" horiz-adv-x="550" 
d="M272 513q104 0 166 -66.5t62 -184.5v-35h-399q4 -81 52.5 -130t121.5 -49q118 0 154 94h65q-23 -73 -80 -113t-140 -40q-104 0 -171 72q-66 72 -66 189q0 116 64 189q65 74 171 74zM272 454q-71 0 -118 -47t-53 -123h335q0 79 -44.5 124.5t-119.5 45.5zM348 705h56
q0 -57 -38 -95t-97 -38q-60 0 -98 37.5t-38 95.5h56q0 -37 22 -60t58 -23q35 0 57 23.5t22 59.5z" />
    <glyph glyph-name="Edotaccent" unicode="&#x116;" horiz-adv-x="505" 
d="M82 700h376v-62h-310v-246h275v-62h-275v-268h310v-62h-376v700zM277 829q19 0 33 -13.5t14 -33.5t-13.5 -33.5t-33.5 -13.5t-34 13.5t-14 33.5t14 33.5t34 13.5z" />
    <glyph glyph-name="edotaccent" unicode="&#x117;" horiz-adv-x="550" 
d="M272 513q104 0 166 -66.5t62 -184.5v-35h-399q4 -81 52.5 -130t121.5 -49q118 0 154 94h65q-23 -73 -80 -113t-140 -40q-104 0 -171 72q-66 72 -66 189q0 116 64 189q65 74 171 74zM272 454q-71 0 -118 -47t-53 -123h335q0 79 -44.5 124.5t-119.5 45.5zM234 674
q15 15 35 15t34 -15q15 -14 15 -34t-15 -34q-14 -14 -34 -14t-35 14q-14 14 -14 34t14 34z" />
    <glyph glyph-name="Eogonek" unicode="&#x118;" horiz-adv-x="505" 
d="M82 700h376v-62h-310v-246h275v-62h-275v-268h310v-62h-42q-60 -30 -60 -84q0 -29 15.5 -45t42.5 -16q25 0 43 9l14 -45q-21 -12 -59 -12q-47 0 -76.5 29.5t-29.5 78.5q0 51 37 85h-261v700z" />
    <glyph glyph-name="eogonek" unicode="&#x119;" horiz-adv-x="550" 
d="M272 513q104 0 166 -66.5t62 -184.5v-35h-399q4 -81 52.5 -130t121.5 -49q118 0 154 94h65q-29 -93 -108 -130q-38 -26 -38 -71q0 -29 15.5 -45t42.5 -16q25 0 43 9l14 -45q-21 -12 -59 -12q-47 0 -76.5 29.5t-29.5 78.5q0 27 11 51q-30 -2 -35 -2q-104 0 -171 72
q-66 72 -66 189q0 116 64 189q65 74 171 74zM272 454q-71 0 -118 -47t-53 -123h335q0 79 -44.5 124.5t-119.5 45.5z" />
    <glyph glyph-name="Ecaron" unicode="&#x11a;" horiz-adv-x="505" 
d="M349 832h88l-137 -105h-46l-138 105h87l73 -56zM82 700h376v-62h-310v-246h275v-62h-275v-268h310v-62h-376v700z" />
    <glyph glyph-name="ecaron" unicode="&#x11b;" horiz-adv-x="550" 
d="M272 513q104 0 166 -66.5t62 -184.5v-35h-399q4 -81 52.5 -130t121.5 -49q118 0 154 94h65q-23 -73 -80 -113t-140 -40q-104 0 -171 72q-66 72 -66 189q0 116 64 189q65 74 171 74zM272 454q-71 0 -118 -47t-53 -123h335q0 79 -44.5 124.5t-119.5 45.5zM347 720h73
l-134 -158h-35l-134 158h73l79 -99z" />
    <glyph glyph-name="Gcircumflex" unicode="&#x11c;" horiz-adv-x="748" 
d="M386 713q115 0 195 -55.5t110 -155.5h-74q-25 70 -84 109.5t-147 39.5q-120 0 -198 -86q-77 -86 -77 -215q0 -130 77 -216q78 -85 199 -85q115 0 180 60t66 177h-232v63h301v-40q0 -150 -83 -236t-232 -86q-151 0 -248 103t-97 260q0 156 97 259q98 104 247 104zM363 845
h46l137 -105h-88l-73 57l-73 -57h-87z" />
    <glyph glyph-name="gcircumflex" unicode="&#x11d;" horiz-adv-x="489" 
d="M319 502h178v-57h-97q35 -47 35 -111q0 -76 -51 -127t-136 -51q-69 0 -118 34q-29 -24 -29 -60q0 -29 20 -44t54 -15h139q76 0 115.5 -35.5t39.5 -99.5q0 -76 -53.5 -119t-148.5 -43q-104 0 -159.5 39.5t-55.5 113.5q0 71 57 99q-31 12 -50.5 39t-19.5 63q0 61 53 100
q-33 44 -33 106q0 80 51.5 129.5t137.5 49.5q36 0 71 -11zM122 334q0 -54 34 -87.5t91 -33.5t91.5 33.5t34.5 87.5q0 55 -34.5 88.5t-91.5 33.5t-91 -33.5t-34 -88.5zM306 14h-107q-36 -1 -60 -23.5t-24 -61.5q0 -98 152 -98q139 0 139 104q0 38 -26 58.5t-74 20.5zM232 732
h35l134 -158h-73l-78 99l-79 -99h-73z" />
    <glyph glyph-name="Gbreve" unicode="&#x11e;" horiz-adv-x="748" 
d="M386 713q115 0 195 -55.5t110 -155.5h-74q-25 70 -84 109.5t-147 39.5q-120 0 -198 -86q-77 -86 -77 -215q0 -130 77 -216q78 -85 199 -85q115 0 180 60t66 177h-232v63h301v-40q0 -150 -83 -236t-232 -86q-151 0 -248 103t-97 260q0 156 97 259q98 104 247 104zM464 853
h57q0 -51 -37.5 -82.5t-97.5 -31.5q-61 0 -98.5 31.5t-37.5 82.5h56q0 -29 21.5 -46.5t58.5 -17.5q36 0 57 17.5t21 46.5z" />
    <glyph glyph-name="gbreve" unicode="&#x11f;" horiz-adv-x="489" 
d="M319 502h178v-57h-97q35 -47 35 -111q0 -76 -51 -127t-136 -51q-69 0 -118 34q-29 -24 -29 -60q0 -29 20 -44t54 -15h139q76 0 115.5 -35.5t39.5 -99.5q0 -76 -53.5 -119t-148.5 -43q-104 0 -159.5 39.5t-55.5 113.5q0 71 57 99q-31 12 -50.5 39t-19.5 63q0 61 53 100
q-33 44 -33 106q0 80 51.5 129.5t137.5 49.5q36 0 71 -11zM122 334q0 -54 34 -87.5t91 -33.5t91.5 33.5t34.5 87.5q0 55 -34.5 88.5t-91.5 33.5t-91 -33.5t-34 -88.5zM306 14h-107q-36 -1 -60 -23.5t-24 -61.5q0 -98 152 -98q139 0 139 104q0 38 -26 58.5t-74 20.5zM330 705
h56q0 -57 -38 -95t-97 -38q-60 0 -98 37.5t-38 95.5h56q0 -37 22 -60t58 -23q35 0 57 23.5t22 59.5z" />
    <glyph glyph-name="Gdotaccent" unicode="&#x120;" horiz-adv-x="748" 
d="M386 713q115 0 195 -55.5t110 -155.5h-74q-25 70 -84 109.5t-147 39.5q-120 0 -198 -86q-77 -86 -77 -215q0 -130 77 -216q78 -85 199 -85q115 0 180 60t66 177h-232v63h301v-40q0 -150 -83 -236t-232 -86q-151 0 -248 103t-97 260q0 156 97 259q98 104 247 104zM385 839
q19 0 33 -13.5t14 -33.5t-13.5 -33.5t-33.5 -13.5t-34 13.5t-14 33.5t14 33.5t34 13.5z" />
    <glyph glyph-name="gdotaccent" unicode="&#x121;" horiz-adv-x="489" 
d="M319 502h178v-57h-97q35 -47 35 -111q0 -76 -51 -127t-136 -51q-69 0 -118 34q-29 -24 -29 -60q0 -29 20 -44t54 -15h139q76 0 115.5 -35.5t39.5 -99.5q0 -76 -53.5 -119t-148.5 -43q-104 0 -159.5 39.5t-55.5 113.5q0 71 57 99q-31 12 -50.5 39t-19.5 63q0 61 53 100
q-33 44 -33 106q0 80 51.5 129.5t137.5 49.5q36 0 71 -11zM122 334q0 -54 34 -87.5t91 -33.5t91.5 33.5t34.5 87.5q0 55 -34.5 88.5t-91.5 33.5t-91 -33.5t-34 -88.5zM306 14h-107q-36 -1 -60 -23.5t-24 -61.5q0 -98 152 -98q139 0 139 104q0 38 -26 58.5t-74 20.5zM214 674
q15 15 35 15t34 -15q15 -14 15 -34t-15 -34q-14 -14 -34 -14t-35 14q-14 14 -14 34t14 34z" />
    <glyph glyph-name="Gcommaaccent" unicode="&#x122;" horiz-adv-x="748" 
d="M386 713q115 0 195 -55.5t110 -155.5h-74q-25 70 -84 109.5t-147 39.5q-120 0 -198 -86q-77 -86 -77 -215q0 -130 77 -216q78 -85 199 -85q115 0 180 60t66 177h-232v63h301v-40q0 -150 -83 -236t-232 -86q-151 0 -248 103t-97 260q0 156 97 259q98 104 247 104z
M445 -102q0 -39 -19 -82t-49 -74l-21 11q29 46 35 99q-21 2 -34.5 15.5t-13.5 34.5q0 22 14.5 36.5t36.5 14.5t36.5 -15.5t14.5 -39.5z" />
    <glyph glyph-name="gcommaaccent" unicode="&#x123;" horiz-adv-x="489" 
d="M319 502h178v-57h-97q35 -47 35 -111q0 -76 -51 -127t-136 -51q-69 0 -118 34q-29 -24 -29 -60q0 -29 20 -44t54 -15h139q76 0 115.5 -35.5t39.5 -99.5q0 -76 -53.5 -119t-148.5 -43q-104 0 -159.5 39.5t-55.5 113.5q0 71 57 99q-31 12 -50.5 39t-19.5 63q0 61 53 100
q-33 44 -33 106q0 80 51.5 129.5t137.5 49.5q36 0 71 -11zM122 334q0 -54 34 -87.5t91 -33.5t91.5 33.5t34.5 87.5q0 55 -34.5 88.5t-91.5 33.5t-91 -33.5t-34 -88.5zM306 14h-107q-36 -1 -60 -23.5t-24 -61.5q0 -98 152 -98q139 0 139 104q0 38 -26 58.5t-74 20.5zM267 788
l23 -9q-30 -54 -36 -113q21 -2 34.5 -16t13.5 -34q0 -21 -15 -36t-36 -15q-22 0 -36.5 15.5t-14.5 40.5q1 89 67 167z" />
    <glyph glyph-name="Hcircumflex" unicode="&#x124;" horiz-adv-x="704" 
d="M329 835h46l137 -105h-88l-73 57l-73 -57h-87zM556 700h66v-700h-66v330h-408v-330h-66v700h66v-307h408v307z" />
    <glyph glyph-name="hcircumflex" unicode="&#x125;" horiz-adv-x="521" 
d="M93 854h46l137 -105h-88l-73 57l-73 -57h-87zM80 730h63v-301q13 34 53 59t89 25q78 0 121 -51.5t43 -137.5v-324h-63v318q0 65 -29.5 99.5t-81.5 34.5q-58 0 -95 -47.5t-37 -125.5v-279h-63v730z" />
    <glyph glyph-name="Hbar" unicode="&#x126;" horiz-adv-x="717" 
d="M562 700h66v-120h83v-53h-83v-527h-66v330h-408v-330h-66v527h-82v53h82v120h66v-120h408v120zM154 527v-134h408v134h-408z" />
    <glyph glyph-name="hbar" unicode="&#x127;" horiz-adv-x="526" 
d="M85 730h63v-68h112v-53h-112v-180q13 34 53 59t89 25q78 0 121 -51.5t43 -137.5v-324h-63v318q0 65 -29.5 99.5t-81.5 34.5q-58 0 -95 -47.5t-37 -125.5v-279h-63v609h-80v53h80v68z" />
    <glyph glyph-name="Itilde" unicode="&#x128;" 
d="M55 848q27 0 46.5 -11t28.5 -23.5t22 -23.5t28 -11q46 0 46 60h48q0 -52 -25 -82t-72 -30q-27 0 -47 11t-29 24t-22 24t-28 11q-46 0 -46 -61h-48q0 52 25 82t73 30zM82 700h66v-700h-66v700z" />
    <glyph glyph-name="itilde" unicode="&#x129;" 
d="M55 698q26 0 45.5 -12t28.5 -26.5t22.5 -26.5t28.5 -12q46 0 46 68h48q0 -55 -25 -87.5t-72 -32.5q-27 0 -46.5 12t-28.5 27t-22.5 27t-28.5 12q-46 0 -46 -69h-48q0 56 25 88t73 32zM84 502h63v-502h-63v502z" />
    <glyph glyph-name="Imacron" unicode="&#x12a;" 
d="M82 700h66v-700h-66v700zM-11 797h253v-54h-253v54z" />
    <glyph glyph-name="imacron" unicode="&#x12b;" 
d="M84 502h63v-502h-63v502zM-11 655h253v-55h-253v55z" />
    <glyph glyph-name="Ibreve" unicode="&#x12c;" 
d="M193 843h57q0 -51 -37.5 -82.5t-97.5 -31.5q-61 0 -98.5 31.5t-37.5 82.5h56q0 -29 21.5 -46.5t58.5 -17.5q36 0 57 17.5t21 46.5zM82 700h66v-700h-66v700z" />
    <glyph glyph-name="ibreve" unicode="&#x12d;" 
d="M195 705h56q0 -57 -37.5 -95t-97.5 -38t-98 37.5t-38 95.5h56q0 -37 22 -60t58 -23q35 0 57 23.5t22 59.5zM84 502h63v-502h-63v502z" />
    <glyph glyph-name="Iogonek" unicode="&#x12e;" 
d="M82 700h66v-700h-25q-60 -30 -60 -84q0 -29 15.5 -45t42.5 -16q25 0 43 9l14 -45q-21 -12 -59 -12q-47 0 -76.5 29.5t-29.5 78.5q0 69 69 108v677z" />
    <glyph glyph-name="iogonek" unicode="&#x12f;" 
d="M84 502h63v-502h-6q-60 -30 -60 -84q0 -29 15.5 -45t42.5 -16q25 0 43 9l14 -45q-21 -12 -59 -12q-47 0 -76.5 29.5t-29.5 78.5q0 62 53 98v489zM116 710q20 0 34.5 -14.5t14.5 -34.5t-14.5 -34t-34.5 -14q-21 0 -35 14t-14 34t14 34.5t35 14.5z" />
    <glyph glyph-name="Idot" unicode="&#x130;" 
d="M80 815q14 14 34 14t33 -14q14 -13 14 -33t-14 -34q-13 -13 -33 -13t-34 13q-14 14 -14 34t14 33zM82 700h66v-700h-66v700z" />
    <glyph glyph-name="dotlessi" unicode="&#x131;" 
d="M84 502h63v-502h-63v502z" />
    <glyph glyph-name="Jcircumflex" unicode="&#x134;" horiz-adv-x="484" 
d="M354 835h46l137 -105h-88l-73 57l-73 -57h-87zM345 700h66v-506q0 -100 -48 -153t-137 -53q-188 0 -198 214h66q8 -152 132 -152q57 0 88 37.5t31 108.5v504z" />
    <glyph glyph-name="jcircumflex" unicode="&#x135;" 
d="M84 502h63v-574q0 -90 -40 -121q-39 -33 -100 -33q-35 0 -56 7v59q26 -8 50 -8q44 0 63.5 24t19.5 73v573zM99 732h35l134 -158h-73l-78 99l-79 -99h-73z" />
    <glyph glyph-name="Kcommaaccent" unicode="&#x136;" horiz-adv-x="663" 
d="M486 700h83l-242 -307l315 -393h-83l-275 341l-128 -158v-183h-67v700h67v-418zM387 -92q0 -39 -19 -82t-49 -74l-21 11q29 46 35 99q-21 2 -34.5 15.5t-13.5 34.5q0 22 14.5 36.5t36.5 14.5t36.5 -15.5t14.5 -39.5z" />
    <glyph glyph-name="kcommaaccent" unicode="&#x137;" horiz-adv-x="478" 
d="M88 730h63v-480l210 252h79l-171 -206l197 -296h-73l-168 247l-74 -89v-158h-63v730zM312 -92q0 -39 -19 -82t-49 -74l-21 11q29 46 35 99q-21 2 -34.5 15.5t-13.5 34.5q0 22 14.5 36.5t36.5 14.5t36.5 -15.5t14.5 -39.5z" />
    <glyph glyph-name="Lacute" unicode="&#x139;" horiz-adv-x="493" 
d="M172 834h98l-125 -103h-80zM81 700h66v-638h323v-62h-389v700z" />
    <glyph glyph-name="lacute" unicode="&#x13a;" 
d="M185 873h98l-125 -103h-80zM84 730h63v-730h-63v730z" />
    <glyph glyph-name="Lcommaaccent" unicode="&#x13b;" horiz-adv-x="493" 
d="M328 -92q0 -39 -19 -82t-49 -74l-21 11q29 46 35 99q-21 2 -34.5 15.5t-13.5 34.5q0 22 14.5 36.5t36.5 14.5t36.5 -15.5t14.5 -39.5zM81 700h66v-638h323v-62h-389v700z" />
    <glyph glyph-name="lcommaaccent" unicode="&#x13c;" 
d="M165 -92q0 -39 -19 -82t-49 -74l-21 11q29 46 35 99q-21 2 -34.5 15.5t-13.5 34.5q0 22 14.5 36.5t36.5 14.5t36.5 -15.5t14.5 -39.5zM84 730h63v-730h-63v730z" />
    <glyph glyph-name="Lcaron" unicode="&#x13d;" horiz-adv-x="493" 
d="M433 705q22 0 37 -15.5t15 -39.5q0 -88 -68 -168l-23 10q30 51 37 112q-21 2 -34.5 15.5t-13.5 34.5t14.5 36t35.5 15zM81 700h66v-638h323v-62h-389v700z" />
    <glyph glyph-name="lcaron" unicode="&#x13e;" horiz-adv-x="344" 
d="M278 717q22 0 37 -15.5t15 -39.5q0 -88 -68 -168l-23 10q30 51 37 112q-21 2 -34.5 15.5t-13.5 34.5t14.5 36t35.5 15zM84 730h63v-730h-63v730z" />
    <glyph glyph-name="Ldot" unicode="&#x13f;" horiz-adv-x="493" 
d="M81 700h66v-638h323v-62h-389v700zM438 300q0 -23 -15 -38.5t-38 -15.5t-38.5 15.5t-15.5 38.5t15.5 38t38.5 15t38 -15.5t15 -37.5z" />
    <glyph glyph-name="ldot" unicode="&#x140;" horiz-adv-x="375" 
d="M84 730h63v-730h-63v730zM332 260q0 -23 -15 -38.5t-38 -15.5t-38.5 15.5t-15.5 38.5t15.5 38t38.5 15t38 -15.5t15 -37.5z" />
    <glyph glyph-name="Lslash" unicode="&#x141;" horiz-adv-x="501" 
d="M88 700h66v-344l92 44l22 -48l-114 -54v-236h323v-62h-389v266l-77 -36l-21 49l98 46v375z" />
    <glyph glyph-name="lslash" unicode="&#x142;" horiz-adv-x="248" 
d="M92 730h63v-372l84 41l22 -49l-106 -50v-300h-63v270l-84 -40l-21 48l105 50v402z" />
    <glyph glyph-name="Nacute" unicode="&#x143;" horiz-adv-x="701" 
d="M553 700h66v-700h-64l-380 544l-27 41v-585h-66v700h63l378 -541l30 -44v585zM408 834h98l-125 -103h-80z" />
    <glyph glyph-name="nacute" unicode="&#x144;" horiz-adv-x="523" 
d="M285 513q78 0 121 -51.5t43 -137.5v-324h-63v318q0 65 -29.5 99.5t-81.5 34.5q-58 0 -95 -47.5t-37 -125.5v-279h-63v502h58l3 -76q16 37 55.5 62t88.5 25zM355 732h81l-137 -158h-66z" />
    <glyph glyph-name="Ncommaaccent" unicode="&#x145;" horiz-adv-x="701" 
d="M553 700h66v-700h-64l-380 544l-27 41v-585h-66v700h63l378 -541l30 -44v585zM401 -92q0 -39 -19 -82t-49 -74l-21 11q29 46 35 99q-21 2 -34.5 15.5t-13.5 34.5q0 22 14.5 36.5t36.5 14.5t36.5 -15.5t14.5 -39.5z" />
    <glyph glyph-name="ncommaaccent" unicode="&#x146;" horiz-adv-x="523" 
d="M285 513q78 0 121 -51.5t43 -137.5v-324h-63v318q0 65 -29.5 99.5t-81.5 34.5q-58 0 -95 -47.5t-37 -125.5v-279h-63v502h58l3 -76q16 37 55.5 62t88.5 25zM316 -92q0 -39 -19 -82t-49 -74l-21 11q29 46 35 99q-21 2 -34.5 15.5t-13.5 34.5q0 22 14.5 36.5t36.5 14.5
t36.5 -15.5t14.5 -39.5z" />
    <glyph glyph-name="Ncaron" unicode="&#x147;" horiz-adv-x="701" 
d="M553 700h66v-700h-64l-380 544l-27 41v-585h-66v700h63l378 -541l30 -44v585zM423 832h88l-137 -105h-46l-138 105h87l73 -56z" />
    <glyph glyph-name="ncaron" unicode="&#x148;" horiz-adv-x="523" 
d="M350 720h73l-134 -158h-35l-134 158h73l79 -99zM285 513q78 0 121 -51.5t43 -137.5v-324h-63v318q0 65 -29.5 99.5t-81.5 34.5q-58 0 -95 -47.5t-37 -125.5v-279h-63v502h58l3 -76q16 37 55.5 62t88.5 25z" />
    <glyph glyph-name="Eng" unicode="&#x14a;" horiz-adv-x="701" 
d="M553 700h66v-709q0 -100 -48.5 -153t-138.5 -53v60q59 0 90 37t31 107v14l-378 541l-27 41v-585h-66v700h63l378 -541l30 -44v585z" />
    <glyph glyph-name="eng" unicode="&#x14b;" horiz-adv-x="521" 
d="M285 513q78 0 121 -51.5t43 -137.5v-396q0 -90 -42 -121q-41 -33 -106 -33v58q46 0 65.5 24t19.5 73v389q0 65 -29.5 99.5t-81.5 34.5q-58 0 -95 -47.5t-37 -125.5v-279h-63v502h58l3 -76q16 37 55.5 62t88.5 25z" />
    <glyph glyph-name="Omacron" unicode="&#x14c;" horiz-adv-x="793" 
d="M751 351q0 -157 -100 -260q-101 -104 -254 -104q-154 0 -255 104q-100 103 -100 260q0 155 100 258q101 104 255 104q153 0 254 -104q100 -103 100 -258zM397 651q-125 0 -206 -86q-80 -86 -80 -214q0 -130 80 -216q81 -86 206 -86q124 0 204 86q81 85 81 216
q0 128 -81 214q-80 86 -204 86zM269 807h253v-54h-253v54z" />
    <glyph glyph-name="omacron" unicode="&#x14d;" horiz-adv-x="573" 
d="M106 439q71 74 181 74q111 0 180 -74t69 -188q0 -115 -69 -188q-69 -74 -180 -74q-110 0 -181 74q-69 73 -69 188t69 188zM288 454q-84 0 -136 -58q-51 -57 -51 -145q0 -87 51 -146q52 -57 136 -57t133 57q51 59 51 146q0 88 -51 145q-49 58 -133 58zM160 655h253v-55
h-253v55z" />
    <glyph glyph-name="Obreve" unicode="&#x14e;" horiz-adv-x="793" 
d="M751 351q0 -157 -100 -260q-101 -104 -254 -104q-154 0 -255 104q-100 103 -100 260q0 155 100 258q101 104 255 104q153 0 254 -104q100 -103 100 -258zM397 651q-125 0 -206 -86q-80 -86 -80 -214q0 -130 80 -216q81 -86 206 -86q124 0 204 86q81 85 81 216
q0 128 -81 214q-80 86 -204 86zM474 853h57q0 -51 -37.5 -82.5t-97.5 -31.5q-61 0 -98.5 31.5t-37.5 82.5h56q0 -29 21.5 -46.5t58.5 -17.5q36 0 57 17.5t21 46.5z" />
    <glyph glyph-name="obreve" unicode="&#x14f;" horiz-adv-x="573" 
d="M106 439q71 74 181 74q111 0 180 -74t69 -188q0 -115 -69 -188q-69 -74 -180 -74q-110 0 -181 74q-69 73 -69 188t69 188zM288 454q-84 0 -136 -58q-51 -57 -51 -145q0 -87 51 -146q52 -57 136 -57t133 57q51 59 51 146q0 88 -51 145q-49 58 -133 58zM366 705h56
q0 -57 -38 -95t-97 -38q-60 0 -98 37.5t-38 95.5h56q0 -37 22 -60t58 -23q35 0 57 23.5t22 59.5z" />
    <glyph glyph-name="Ohungarumlaut" unicode="&#x150;" horiz-adv-x="793" 
d="M365 843h72l-91 -105h-62zM507 843h72l-90 -105h-64zM751 351q0 -157 -100 -260q-101 -104 -254 -104q-154 0 -255 104q-100 103 -100 260q0 155 100 258q101 104 255 104q153 0 254 -104q100 -103 100 -258zM397 651q-125 0 -206 -86q-80 -86 -80 -214q0 -130 80 -216
q81 -86 206 -86q124 0 204 86q81 85 81 216q0 128 -81 214q-80 86 -204 86z" />
    <glyph glyph-name="ohungarumlaut" unicode="&#x151;" horiz-adv-x="573" 
d="M264 732h70l-103 -158h-61zM419 732h70l-103 -158h-61zM106 439q71 74 181 74q111 0 180 -74t69 -188q0 -115 -69 -188q-69 -74 -180 -74q-110 0 -181 74q-69 73 -69 188t69 188zM288 454q-84 0 -136 -58q-51 -57 -51 -145q0 -87 51 -146q52 -57 136 -57t133 57
q51 59 51 146q0 88 -51 145q-49 58 -133 58z" />
    <glyph glyph-name="OE" unicode="&#x152;" horiz-adv-x="1109" 
d="M684 700h376v-62h-310v-246h275v-62h-275v-268h310v-62h-376v133q-48 -70 -122 -108t-164 -38q-154 0 -255 104q-99 103 -99 260q0 155 99 259q100 103 255 103q90 0 164 -38t122 -108v133zM398 651q-125 0 -206 -86q-80 -86 -80 -214q0 -130 80 -216q81 -86 206 -86
q122 0 201 82q81 84 85 207v25q-4 124 -85 206q-79 82 -201 82z" />
    <glyph glyph-name="oe" unicode="&#x153;" horiz-adv-x="985" 
d="M287 513q71 0 127.5 -32.5t87.5 -90.5q30 58 83 90.5t121 32.5q104 0 166 -66.5t62 -184.5v-35h-399v-3q4 -79 52.5 -127.5t121.5 -48.5q118 0 154 94h65q-23 -73 -80 -113t-140 -40q-69 0 -123 32t-83 91q-33 -58 -89 -90.5t-126 -32.5q-110 0 -181 74q-69 73 -69 188
t69 188q71 74 181 74zM288 454q-84 0 -136 -58q-51 -57 -51 -145q0 -87 51 -146q52 -57 136 -57q78 0 127 51q50 53 56 132v39q-4 80 -55 132q-49 52 -128 52zM706 454q-71 0 -118 -47t-53 -123h335q0 79 -44.5 124.5t-119.5 45.5z" />
    <glyph glyph-name="Racute" unicode="&#x154;" horiz-adv-x="531" 
d="M82 700h177q101 0 160 -56q60 -56 60 -149q0 -71 -36.5 -120t-102.5 -69l169 -306h-76l-161 295h-124v-295h-66v700zM259 638h-111v-282h111q70 0 112 37t42 102q0 66 -42 104.5t-112 38.5zM316 834h98l-125 -103h-80z" />
    <glyph glyph-name="racute" unicode="&#x155;" horiz-adv-x="324" 
d="M301 507v-62q-61 0 -102 -41q-48 -46 -48 -132v-272h-63v502h59l2 -91q16 42 55.5 69t96.5 27zM261 732h81l-137 -158h-66z" />
    <glyph glyph-name="Rcommaaccent" unicode="&#x156;" horiz-adv-x="531" 
d="M82 700h177q101 0 160 -56q60 -56 60 -149q0 -71 -36.5 -120t-102.5 -69l169 -306h-76l-161 295h-124v-295h-66v700zM259 638h-111v-282h111q70 0 112 37t42 102q0 66 -42 104.5t-112 38.5zM330 -92q0 -39 -19 -82t-49 -74l-21 11q29 46 35 99q-21 2 -34.5 15.5
t-13.5 34.5q0 22 14.5 36.5t36.5 14.5t36.5 -15.5t14.5 -39.5z" />
    <glyph glyph-name="rcommaaccent" unicode="&#x157;" horiz-adv-x="324" 
d="M301 507v-62q-61 0 -102 -41q-48 -46 -48 -132v-272h-63v502h59l2 -91q16 42 55.5 69t96.5 27zM168 -92q0 -39 -19 -82t-49 -74l-21 11q29 46 35 99q-21 2 -34.5 15.5t-13.5 34.5q0 22 14.5 36.5t36.5 14.5t36.5 -15.5t14.5 -39.5z" />
    <glyph glyph-name="Rcaron" unicode="&#x158;" horiz-adv-x="531" 
d="M82 700h177q101 0 160 -56q60 -56 60 -149q0 -71 -36.5 -120t-102.5 -69l169 -306h-76l-161 295h-124v-295h-66v700zM259 638h-111v-282h111q70 0 112 37t42 102q0 66 -42 104.5t-112 38.5zM330 832h88l-137 -105h-46l-138 105h87l73 -56z" />
    <glyph glyph-name="rcaron" unicode="&#x159;" horiz-adv-x="324" 
d="M257 720h73l-134 -158h-35l-134 158h73l79 -99zM301 507v-62q-61 0 -102 -41q-48 -46 -48 -132v-272h-63v502h59l2 -91q16 42 55.5 69t96.5 27z" />
    <glyph glyph-name="Sacute" unicode="&#x15a;" horiz-adv-x="517" 
d="M257 713q90 0 142.5 -50.5t53.5 -141.5h-67q-1 62 -35.5 97t-94.5 35q-58 0 -90.5 -33t-32.5 -91q0 -54 31 -81q32 -28 116 -62q110 -43 152 -85q45 -42 45 -116q0 -93 -58 -145q-58 -53 -151 -53q-104 0 -163.5 58t-60.5 157h67q1 -74 42.5 -114.5t115.5 -40.5
q67 0 104 37t37 98q0 48 -35.5 79t-124.5 64q-98 39 -141 81t-43 120q0 80 50 133q50 54 141 54zM317 844h98l-125 -103h-80z" />
    <glyph glyph-name="sacute" unicode="&#x15b;" horiz-adv-x="438" 
d="M216 513q72 0 115 -41t44 -110h-65q-2 92 -96 92q-44 0 -68.5 -21t-24.5 -58t22 -55q25 -18 86 -34q88 -24 125.5 -58t37.5 -91q0 -68 -47 -108t-123 -40q-82 0 -130 43t-49 115h65q1 -47 31 -73t85 -26q50 0 77 23.5t27 62.5q0 37 -26 58t-94 38q-80 21 -115.5 52.5
t-35.5 89.5q0 61 43 101t116 40zM300 732h81l-137 -158h-66z" />
    <glyph glyph-name="Scircumflex" unicode="&#x15c;" horiz-adv-x="517" 
d="M257 713q90 0 142.5 -50.5t53.5 -141.5h-67q-1 62 -35.5 97t-94.5 35q-58 0 -90.5 -33t-32.5 -91q0 -54 31 -81q32 -28 116 -62q110 -43 152 -85q45 -42 45 -116q0 -93 -58 -145q-58 -53 -151 -53q-104 0 -163.5 58t-60.5 157h67q1 -74 42.5 -114.5t115.5 -40.5
q67 0 104 37t37 98q0 48 -35.5 79t-124.5 64q-98 39 -141 81t-43 120q0 80 50 133q50 54 141 54zM237 845h46l137 -105h-88l-73 57l-73 -57h-87z" />
    <glyph glyph-name="scircumflex" unicode="&#x15d;" horiz-adv-x="438" 
d="M216 513q72 0 115 -41t44 -110h-65q-2 92 -96 92q-44 0 -68.5 -21t-24.5 -58t22 -55q25 -18 86 -34q88 -24 125.5 -58t37.5 -91q0 -68 -47 -108t-123 -40q-82 0 -130 43t-49 115h65q1 -47 31 -73t85 -26q50 0 77 23.5t27 62.5q0 37 -26 58t-94 38q-80 21 -115.5 52.5
t-35.5 89.5q0 61 43 101t116 40zM199 732h35l134 -158h-73l-78 99l-79 -99h-73z" />
    <glyph glyph-name="Scedilla" unicode="&#x15e;" horiz-adv-x="517" 
d="M257 713q90 0 142.5 -50.5t53.5 -141.5h-67q-1 62 -35.5 97t-94.5 35q-58 0 -90.5 -33t-32.5 -91q0 -54 31 -81q32 -28 116 -62q110 -43 152 -85q45 -42 45 -116q0 -88 -53.5 -141t-143.5 -57l-12 -50h11q38 0 61.5 -22t23.5 -59q0 -39 -28 -62.5t-71 -23.5q-61 0 -93 38
l29 36q24 -29 64 -29q23 0 37.5 11t14.5 29q0 19 -12.5 29.5t-32.5 10.5q-11 0 -36 -5l-22 7l23 92q-90 8 -141 65t-52 148h67q1 -74 42.5 -114.5t115.5 -40.5q67 0 104 37t37 98q0 48 -35.5 79t-124.5 64q-98 39 -141 81t-43 120q0 80 50 133q50 54 141 54z" />
    <glyph glyph-name="scedilla" unicode="&#x15f;" horiz-adv-x="438" 
d="M216 513q72 0 115 -41t44 -110h-65q-2 92 -96 92q-44 0 -68.5 -21t-24.5 -58t22 -55q25 -18 86 -34q88 -24 125.5 -58t37.5 -91q0 -65 -42 -104t-113 -43l-13 -53h11q38 0 61.5 -22t23.5 -59q0 -39 -28 -62.5t-71 -23.5q-61 0 -93 38l29 36q24 -29 64 -29q23 0 37.5 11
t14.5 29q0 19 -12.5 29.5t-32.5 10.5q-11 0 -36 -5l-22 7l24 94q-71 7 -110.5 48.5t-40.5 107.5h65q1 -47 31 -73t85 -26q50 0 77 23.5t27 62.5q0 37 -26 58t-94 38q-80 21 -115.5 52.5t-35.5 89.5q0 61 43 101t116 40z" />
    <glyph glyph-name="Scaron" unicode="&#x160;" horiz-adv-x="517" 
d="M257 713q90 0 142.5 -50.5t53.5 -141.5h-67q-1 62 -35.5 97t-94.5 35q-58 0 -90.5 -33t-32.5 -91q0 -54 31 -81q32 -28 116 -62q110 -43 152 -85q45 -42 45 -116q0 -93 -58 -145q-58 -53 -151 -53q-104 0 -163.5 58t-60.5 157h67q1 -74 42.5 -114.5t115.5 -40.5
q67 0 104 37t37 98q0 48 -35.5 79t-124.5 64q-98 39 -141 81t-43 120q0 80 50 133q50 54 141 54zM332 842h88l-137 -105h-46l-138 105h87l73 -56z" />
    <glyph glyph-name="scaron" unicode="&#x161;" horiz-adv-x="438" 
d="M216 513q72 0 115 -41t44 -110h-65q-2 92 -96 92q-44 0 -68.5 -21t-24.5 -58t22 -55q25 -18 86 -34q88 -24 125.5 -58t37.5 -91q0 -68 -47 -108t-123 -40q-82 0 -130 43t-49 115h65q1 -47 31 -73t85 -26q50 0 77 23.5t27 62.5q0 37 -26 58t-94 38q-80 21 -115.5 52.5
t-35.5 89.5q0 61 43 101t116 40zM295 720h73l-134 -158h-35l-134 158h73l79 -99z" />
    <glyph glyph-name="Tcommaaccent" unicode="&#x162;" horiz-adv-x="603" 
d="M9 700h584v-62h-259v-638h-66v638h-259v62zM351 -92q0 -39 -19 -82t-49 -74l-21 11q29 46 35 99q-21 2 -34.5 15.5t-13.5 34.5q0 22 14.5 36.5t36.5 14.5t36.5 -15.5t14.5 -39.5z" />
    <glyph glyph-name="tcommaaccent" unicode="&#x163;" horiz-adv-x="335" 
d="M107 630h63l-1 -128h136v-59h-137l-2 -305q0 -47 16 -67t59 -20q34 0 64 10v-57q-27 -11 -71 -11q-67 0 -99 33t-31 104l2 313h-100v59h100zM241 -99q0 -39 -19 -82t-49 -74l-21 11q29 46 35 99q-21 2 -34.5 15.5t-13.5 34.5q0 22 14.5 36.5t36.5 14.5t36.5 -15.5
t14.5 -39.5z" />
    <glyph glyph-name="Tcaron" unicode="&#x164;" horiz-adv-x="603" 
d="M373 832h88l-137 -105h-46l-138 105h87l73 -56zM9 700h584v-62h-259v-638h-66v638h-259v62z" />
    <glyph glyph-name="tcaron" unicode="&#x165;" horiz-adv-x="459" 
d="M107 630h63l-1 -128h136v-59h-137l-2 -305q0 -47 16 -67t59 -20q34 0 64 10v-57q-27 -11 -71 -11q-67 0 -99 33t-31 104l2 313h-100v59h100zM393 717q22 0 37 -15.5t15 -39.5q0 -88 -68 -168l-23 10q30 51 37 112q-21 2 -34.5 15.5t-13.5 34.5t14.5 36t35.5 15z" />
    <glyph glyph-name="Tbar" unicode="&#x166;" horiz-adv-x="603" 
d="M9 700h584v-62h-259v-251h160v-53h-160v-334h-66v334h-160v53h160v251h-259v62z" />
    <glyph glyph-name="tbar" unicode="&#x167;" horiz-adv-x="335" 
d="M107 630h63l-1 -128h136v-55h-137l-1 -135h138v-55h-138l-1 -119q0 -47 16 -67t59 -20q34 0 64 10v-57q-27 -11 -71 -11q-67 0 -99 33t-31 104l1 127h-99v55h99l1 135h-100v55h100z" />
    <glyph glyph-name="Utilde" unicode="&#x168;" horiz-adv-x="684" 
d="M281 848q27 0 46.5 -11t28.5 -23.5t22 -23.5t28 -11q46 0 46 60h48q0 -52 -25 -82t-72 -30q-27 0 -47 11t-29 24t-22 24t-28 11q-46 0 -46 -61h-48q0 52 25 82t73 30zM545 700h67v-426q0 -140 -70 -213.5t-200 -73.5q-129 0 -199 73.5t-70 213.5v426h66v-426
q0 -225 203 -225t203 225v426z" />
    <glyph glyph-name="utilde" unicode="&#x169;" horiz-adv-x="517" 
d="M196 698q26 0 45.5 -12t28.5 -26.5t22.5 -26.5t28.5 -12q46 0 46 68h48q0 -55 -25 -87.5t-72 -32.5q-27 0 -46.5 12t-28.5 27t-22.5 27t-28.5 12q-46 0 -46 -69h-48q0 56 25 88t73 32zM374 502h63v-502h-59l-2 75q-16 -37 -54.5 -61.5t-87.5 -24.5q-78 0 -120 50.5
t-42 138.5v324h63v-318q0 -65 29 -100t81 -35q57 0 93 46t36 123v284z" />
    <glyph glyph-name="Umacron" unicode="&#x16a;" horiz-adv-x="684" 
d="M545 700h67v-426q0 -140 -70 -213.5t-200 -73.5q-129 0 -199 73.5t-70 213.5v426h66v-426q0 -225 203 -225t203 225v426zM215 797h253v-54h-253v54z" />
    <glyph glyph-name="umacron" unicode="&#x16b;" horiz-adv-x="517" 
d="M374 502h63v-502h-59l-2 75q-16 -37 -54.5 -61.5t-87.5 -24.5q-78 0 -120 50.5t-42 138.5v324h63v-318q0 -65 29 -100t81 -35q57 0 93 46t36 123v284zM130 655h253v-55h-253v55z" />
    <glyph glyph-name="Ubreve" unicode="&#x16c;" horiz-adv-x="684" 
d="M420 843h57q0 -51 -37.5 -82.5t-97.5 -31.5q-61 0 -98.5 31.5t-37.5 82.5h56q0 -29 21.5 -46.5t58.5 -17.5q36 0 57 17.5t21 46.5zM545 700h67v-426q0 -140 -70 -213.5t-200 -73.5q-129 0 -199 73.5t-70 213.5v426h66v-426q0 -225 203 -225t203 225v426z" />
    <glyph glyph-name="ubreve" unicode="&#x16d;" horiz-adv-x="517" 
d="M374 502h63v-502h-59l-2 75q-16 -37 -54.5 -61.5t-87.5 -24.5q-78 0 -120 50.5t-42 138.5v324h63v-318q0 -65 29 -100t81 -35q57 0 93 46t36 123v284zM336 705h56q0 -57 -38 -95t-97 -38q-60 0 -98 37.5t-38 95.5h56q0 -37 22 -60t58 -23q35 0 57 23.5t22 59.5z" />
    <glyph glyph-name="Uring" unicode="&#x16e;" horiz-adv-x="684" 
d="M373 847q-13 13 -32 13t-32 -13q-12 -13 -12 -32t12 -32q13 -13 32 -13t32 13t13 32t-13 32zM341 903q40 0 66 -25t26 -63t-26 -63.5t-66 -25.5q-39 0 -65 25.5t-26 63.5t26 63t65 25zM545 700h67v-426q0 -140 -70 -213.5t-200 -73.5q-129 0 -199 73.5t-70 213.5v426h66
v-426q0 -225 203 -225t203 225v426z" />
    <glyph glyph-name="uring" unicode="&#x16f;" horiz-adv-x="517" 
d="M358 656q0 -42 -28.5 -70t-73.5 -28t-73.5 28t-28.5 70q0 44 28.5 72.5t73.5 28.5t73.5 -28.5t28.5 -72.5zM201 657q0 -22 16 -38.5t39 -16.5t39 16.5t16 38.5q0 24 -15.5 39.5t-39.5 15.5t-39.5 -16t-15.5 -39zM374 502h63v-502h-59l-2 75q-16 -37 -54.5 -61.5
t-87.5 -24.5q-78 0 -120 50.5t-42 138.5v324h63v-318q0 -65 29 -100t81 -35q57 0 93 46t36 123v284z" />
    <glyph glyph-name="Uhungarumlaut" unicode="&#x170;" horiz-adv-x="684" 
d="M311 833h72l-91 -105h-62zM453 833h72l-90 -105h-64zM545 700h67v-426q0 -140 -70 -213.5t-200 -73.5q-129 0 -199 73.5t-70 213.5v426h66v-426q0 -225 203 -225t203 225v426z" />
    <glyph glyph-name="uhungarumlaut" unicode="&#x171;" horiz-adv-x="517" 
d="M234 732h70l-103 -158h-61zM389 732h70l-103 -158h-61zM374 502h63v-502h-59l-2 75q-16 -37 -54.5 -61.5t-87.5 -24.5q-78 0 -120 50.5t-42 138.5v324h63v-318q0 -65 29 -100t81 -35q57 0 93 46t36 123v284z" />
    <glyph glyph-name="Uogonek" unicode="&#x172;" horiz-adv-x="684" 
d="M545 700h67v-426q0 -115 -48.5 -186t-139.5 -92q-40 -27 -40 -73q0 -29 15.5 -45t42.5 -16q25 0 43 9l14 -45q-21 -12 -59 -12q-47 0 -76.5 29.5t-29.5 78.5q0 39 19 65h-11q-129 0 -199 73.5t-70 213.5v426h66v-426q0 -225 203 -225t203 225v426z" />
    <glyph glyph-name="uogonek" unicode="&#x173;" horiz-adv-x="517" 
d="M374 502h63v-502h-1q-60 -30 -60 -84q0 -29 15.5 -45t42.5 -16q25 0 43 9l14 -45q-21 -12 -59 -12q-47 0 -76.5 29.5t-29.5 78.5q0 61 51 97l-1 63q-16 -37 -54.5 -61.5t-87.5 -24.5q-78 0 -120 50.5t-42 138.5v324h63v-318q0 -65 29 -100t81 -35q57 0 93 46t36 123v284z
" />
    <glyph glyph-name="Wcircumflex" unicode="&#x174;" horiz-adv-x="980" 
d="M890 700h69l-228 -700h-60l-169 531l-12 46l-12 -46l-168 -531h-60l-229 700h70l178 -542l12 -50l12 50l171 542h52l172 -542l11 -50l13 50zM468 835h46l137 -105h-88l-73 57l-73 -57h-87z" />
    <glyph glyph-name="wcircumflex" unicode="&#x175;" horiz-adv-x="761" 
d="M675 502h67l-164 -502h-61l-137 393l-137 -393h-61l-163 502h67l119 -376l11 -42l11 42l127 376h53l127 -376l11 -42l11 42zM362 732h35l134 -158h-73l-78 99l-79 -99h-73z" />
    <glyph glyph-name="Ycircumflex" unicode="&#x176;" horiz-adv-x="667" 
d="M572 700h78l-283 -432v-268h-67v268l-283 432h78l210 -320l28 -47l28 47zM311 835h46l137 -105h-88l-73 57l-73 -57h-87z" />
    <glyph glyph-name="ycircumflex" unicode="&#x177;" horiz-adv-x="495" 
d="M408 502h68l-283 -717h-67l88 223l-195 494h67l151 -389l10 -35l11 35zM229 732h35l134 -158h-73l-78 99l-79 -99h-73z" />
    <glyph glyph-name="Ydieresis" unicode="&#x178;" horiz-adv-x="667" 
d="M572 700h78l-283 -432v-268h-67v268l-283 432h78l210 -320l28 -47l28 47zM243 824q27 2 38.5 -21.5t0 -47t-38.5 -21.5q-19 0 -32.5 13t-13.5 32t13 32t33 13zM421 824q27 2 38.5 -21.5t0 -47t-38.5 -21.5q-19 0 -32.5 13t-13.5 32t13 32t33 13z" />
    <glyph glyph-name="Zacute" unicode="&#x179;" horiz-adv-x="584" 
d="M40 700h499v-52l-417 -586h428v-62h-515v52l418 586h-413v62zM349 834h98l-125 -103h-80z" />
    <glyph glyph-name="zacute" unicode="&#x17a;" horiz-adv-x="449" 
d="M38 502h370v-49l-289 -395h307v-58h-391v49l289 395h-286v58zM312 732h81l-137 -158h-66z" />
    <glyph glyph-name="Zdotaccent" unicode="&#x17b;" horiz-adv-x="584" 
d="M40 700h499v-52l-417 -586h428v-62h-515v52l418 586h-413v62zM291 829q19 0 33 -13.5t14 -33.5t-13.5 -33.5t-33.5 -13.5t-34 13.5t-14 33.5t14 33.5t34 13.5z" />
    <glyph glyph-name="zdotaccent" unicode="&#x17c;" horiz-adv-x="449" 
d="M38 502h370v-49l-289 -395h307v-58h-391v49l289 395h-286v58zM195 674q15 15 35 15t34 -15q15 -14 15 -34t-15 -34q-14 -14 -34 -14t-35 14q-14 14 -14 34t14 34z" />
    <glyph glyph-name="Zcaron" unicode="&#x17d;" horiz-adv-x="584" 
d="M364 832h88l-137 -105h-46l-138 105h87l73 -56zM40 700h499v-52l-417 -586h428v-62h-515v52l418 586h-413v62z" />
    <glyph glyph-name="zcaron" unicode="&#x17e;" horiz-adv-x="449" 
d="M308 720h73l-134 -158h-35l-134 158h73l79 -99zM38 502h370v-49l-289 -395h307v-58h-391v49l289 395h-286v58z" />
    <glyph glyph-name="florin" unicode="&#x192;" horiz-adv-x="342" 
d="M298 737q43 0 72 -13l-7 -58q-27 13 -63 13q-74 0 -84 -88l-9 -89h139l-6 -58h-139l-57 -530q-7 -66 -44.5 -103t-98.5 -37q-41 0 -71 13l6 58q30 -13 63 -13q74 0 83 88l56 524h-102l6 58h102l11 95q7 66 44.5 103t98.5 37z" />
    <glyph glyph-name="Aringacute" unicode="&#x1fa;" horiz-adv-x="675" 
d="M306 700h63l287 -700h-74l-83 203h-324l-81 -203h-74zM350 572l-13 37l-13 -37l-126 -306h278zM376 973h98l-96 -79q50 -24 50 -79q0 -38 -26 -63.5t-66 -25.5q-39 0 -65 25.5t-26 63.5q0 55 48 78zM336 770q20 0 32.5 13t12.5 32t-13 32t-32 13q-27 2 -38 -21.5t0 -47
t38 -21.5z" />
    <glyph glyph-name="aringacute" unicode="&#x1fb;" horiz-adv-x="482" 
d="M239 513q83 0 127.5 -46.5t44.5 -131.5v-335h-60l-2 73q-21 -37 -63.5 -60.5t-95.5 -23.5q-65 0 -103.5 37t-38.5 97q0 115 136 143l163 34v33q0 121 -108 121q-52 0 -83 -28t-31 -80h-63q2 73 49 119q49 48 128 48zM287 834h98l-101 -83q64 -25 64 -95q0 -42 -28.5 -70
t-73.5 -28t-73.5 28t-28.5 70q0 61 50 88zM347 201v42l-151 -33q-43 -10 -63.5 -29.5t-20.5 -56.5q0 -36 22.5 -56t63.5 -20q72 0 116 54q33 44 33 99zM191 657q0 -22 16 -38.5t39 -16.5t39 16.5t16 38.5q0 24 -15.5 39.5t-39.5 15.5t-39.5 -16t-15.5 -39z" />
    <glyph glyph-name="AEacute" unicode="&#x1fc;" horiz-adv-x="916" 
d="M480 700h388v-62h-310v-246h275v-62h-275v-268h310v-62h-376v205h-262l-140 -205h-77zM492 265v342l-20 -36l-203 -306h223zM634 834h98l-125 -103h-80z" />
    <glyph glyph-name="aeacute" unicode="&#x1fd;" horiz-adv-x="851" 
d="M573 513q104 0 166 -66.5t62 -184.5v-35h-399q4 -81 52.5 -130t121.5 -49q118 0 154 94h65q-23 -73 -80 -113t-140 -40q-68 0 -121.5 32t-83.5 89q-58 -121 -181 -121q-66 0 -103.5 36.5t-37.5 97.5q0 113 136 143l154 33v33q0 122 -105 122q-49 0 -78.5 -28t-29.5 -80
h-63q1 73 47.5 120t123.5 47q117 0 154 -93q67 93 186 93zM573 454q-71 0 -118 -47t-53 -123h335q0 79 -44.5 124.5t-119.5 45.5zM338 196v47l-137 -32q-46 -10 -67.5 -31t-21.5 -57q0 -34 22 -54.5t61 -20.5q69 0 109 52q34 44 34 96zM480 732h81l-137 -158h-66z" />
    <glyph glyph-name="Oslashacute" unicode="&#x1fe;" horiz-adv-x="793" 
d="M397 713q77 0 146 -30l43 78l54 -26l-44 -80q73 -49 114 -129t41 -175q0 -157 -100 -260q-101 -104 -254 -104q-81 0 -150 31l-44 -82l-54 26l46 84q-72 48 -112.5 128.5t-40.5 176.5q0 155 100 258q101 104 255 104zM682 351q0 77 -31 142t-86 105l-287 -525
q52 -24 119 -24q124 0 204 86q81 85 81 216zM397 651q-125 0 -206 -86q-80 -86 -80 -214q0 -160 115 -247l287 523q-56 24 -116 24zM454 842h98l-125 -103h-80z" />
    <glyph glyph-name="oslashacute" unicode="&#x1ff;" horiz-adv-x="573" 
d="M287 513q53 0 102 -20l39 73l44 -21l-40 -76q104 -74 104 -218q0 -115 -69 -188q-69 -74 -180 -74q-54 0 -101 19l-39 -73l-45 22l40 75q-105 74 -105 219q0 115 69 188q71 74 181 74zM288 454q-84 0 -136 -58q-51 -57 -51 -145q0 -105 71 -164l188 353q-34 14 -72 14z
M472 251q0 106 -70 163l-188 -352q36 -14 74 -14q84 0 133 57q51 59 51 146zM368 732h81l-137 -158h-66z" />
    <glyph glyph-name="Scommaaccent" unicode="&#x218;" horiz-adv-x="517" 
d="M257 713q90 0 142.5 -50.5t53.5 -141.5h-67q-1 62 -35.5 97t-94.5 35q-58 0 -90.5 -33t-32.5 -91q0 -54 31 -81q32 -28 116 -62q110 -43 152 -85q45 -42 45 -116q0 -93 -58 -145q-58 -53 -151 -53q-104 0 -163.5 58t-60.5 157h67q1 -74 42.5 -114.5t115.5 -40.5
q67 0 104 37t37 98q0 48 -35.5 79t-124.5 64q-98 39 -141 81t-43 120q0 80 50 133q50 54 141 54zM310 -102q0 -39 -19 -82t-49 -74l-21 11q29 46 35 99q-21 2 -34.5 15.5t-13.5 34.5q0 22 14.5 36.5t36.5 14.5t36.5 -15.5t14.5 -39.5z" />
    <glyph glyph-name="scommaaccent" unicode="&#x219;" horiz-adv-x="438" 
d="M216 513q72 0 115 -41t44 -110h-65q-2 92 -96 92q-44 0 -68.5 -21t-24.5 -58t22 -55q25 -18 86 -34q88 -24 125.5 -58t37.5 -91q0 -68 -47 -108t-123 -40q-82 0 -130 43t-49 115h65q1 -47 31 -73t85 -26q50 0 77 23.5t27 62.5q0 37 -26 58t-94 38q-80 21 -115.5 52.5
t-35.5 89.5q0 61 43 101t116 40zM270 -93q0 -39 -19 -82t-49 -74l-21 11q29 46 35 99q-21 2 -34.5 15.5t-13.5 34.5q0 22 14.5 36.5t36.5 14.5t36.5 -15.5t14.5 -39.5z" />
    <glyph glyph-name="circumflex" unicode="&#x2c6;" horiz-adv-x="323" 
d="M144 732h35l134 -158h-73l-78 99l-79 -99h-73z" />
    <glyph glyph-name="caron" unicode="&#x2c7;" horiz-adv-x="323" 
d="M240 720h73l-134 -158h-35l-134 158h73l79 -99z" />
    <glyph glyph-name="breve" unicode="&#x2d8;" horiz-adv-x="291" 
d="M225 705h56q0 -57 -37.5 -95t-97.5 -38t-98 37.5t-38 95.5h56q0 -37 22 -60t58 -23q35 0 57 23.5t22 59.5z" />
    <glyph glyph-name="dotaccent" unicode="&#x2d9;" horiz-adv-x="118" 
d="M24 674q15 15 35 15t34 -15q15 -14 15 -34t-15 -34q-14 -14 -34 -14t-35 14q-14 14 -14 34t14 34z" />
    <glyph glyph-name="ring" unicode="&#x2da;" horiz-adv-x="224" 
d="M214 656q0 -42 -28.5 -70t-73.5 -28t-73.5 28t-28.5 70q0 44 28.5 72.5t73.5 28.5t73.5 -28.5t28.5 -72.5zM57 657q0 -22 16 -38.5t39 -16.5t39 16.5t16 38.5q0 24 -15.5 39.5t-39.5 15.5t-39.5 -16t-15.5 -39z" />
    <glyph glyph-name="ogonek" unicode="&#x2db;" horiz-adv-x="183" 
d="M90 30l28 -30q-60 -30 -60 -84q0 -29 15.5 -45t42.5 -16q25 0 43 9l14 -45q-21 -12 -59 -12q-47 0 -76.5 29.5t-29.5 78.5q0 73 82 115z" />
    <glyph glyph-name="tilde" unicode="&#x2dc;" horiz-adv-x="337" 
d="M108 698q26 0 45.5 -12t28.5 -26.5t22.5 -26.5t28.5 -12q46 0 46 68h48q0 -55 -25 -87.5t-72 -32.5q-27 0 -46.5 12t-28.5 27t-22.5 27t-28.5 12q-46 0 -46 -69h-48q0 56 25 88t73 32z" />
    <glyph glyph-name="hungarumlaut" unicode="&#x2dd;" horiz-adv-x="339" 
d="M104 732h70l-103 -158h-61zM259 732h70l-103 -158h-61z" />
    <glyph glyph-name="uni03A9" unicode="&#x3a9;" horiz-adv-x="858" 
d="M757 394q0 -188 -168 -329h232v-65h-330v59q198 133 198 333q0 123 -68 202q-67 78 -186 78q-118 0 -187 -79q-68 -79 -68 -201q0 -200 198 -333v-59h-330v65h233q-168 141 -168 329q0 151 88 246q88 97 234 97t234 -97q88 -95 88 -246z" />
    <glyph glyph-name="pi" unicode="&#x3c0;" horiz-adv-x="689" 
d="M620 575l52 -29q-24 -56 -58 -81q-34 -24 -108 -24h-17l-39 -295q-12 -89 46 -89q40 0 75 31l26 -47q-59 -44 -117 -44q-57 0 -78.5 34.5t-12.5 107.5l39 302h-137l-36 -267q-13 -95 -46 -174h-69q40 79 55 185l34 256h-20q-92 0 -154 -65l-32 46q43 44 84 60
q41 18 117 18h250q70 0 97 15q26 16 49 60z" />
    <glyph glyph-name="Wgrave" unicode="&#x1e80;" horiz-adv-x="980" 
d="M890 700h69l-228 -700h-60l-169 531l-12 46l-12 -46l-168 -531h-60l-229 700h70l178 -542l12 -50l12 50l171 542h52l172 -542l11 -50l13 50zM329 834h98l107 -103h-79z" />
    <glyph glyph-name="wgrave" unicode="&#x1e81;" horiz-adv-x="761" 
d="M675 502h67l-164 -502h-61l-137 393l-137 -393h-61l-163 502h67l119 -376l11 -42l11 42l127 376h53l127 -376l11 -42l11 42zM212 732h81l122 -158h-66z" />
    <glyph glyph-name="Wacute" unicode="&#x1e82;" horiz-adv-x="980" 
d="M890 700h69l-228 -700h-60l-169 531l-12 46l-12 -46l-168 -531h-60l-229 700h70l178 -542l12 -50l12 50l171 542h52l172 -542l11 -50l13 50zM550 834h98l-125 -103h-80z" />
    <glyph glyph-name="wacute" unicode="&#x1e83;" horiz-adv-x="761" 
d="M675 502h67l-164 -502h-61l-137 393l-137 -393h-61l-163 502h67l119 -376l11 -42l11 42l127 376h53l127 -376l11 -42l11 42zM461 732h81l-137 -158h-66z" />
    <glyph glyph-name="Wdieresis" unicode="&#x1e84;" horiz-adv-x="980" 
d="M890 700h69l-228 -700h-60l-169 531l-12 46l-12 -46l-168 -531h-60l-229 700h70l178 -542l12 -50l12 50l171 542h52l172 -542l11 -50l13 50zM401 824q27 2 38.5 -21.5t0 -47t-38.5 -21.5q-19 0 -32.5 13t-13.5 32t13 32t33 13zM579 824q27 2 38.5 -21.5t0 -47
t-38.5 -21.5q-19 0 -32.5 13t-13.5 32t13 32t33 13z" />
    <glyph glyph-name="wdieresis" unicode="&#x1e85;" horiz-adv-x="761" 
d="M675 502h67l-164 -502h-61l-137 393l-137 -393h-61l-163 502h67l119 -376l11 -42l11 42l127 376h53l127 -376l11 -42l11 42zM257 663q14 14 33 14t32 -14q13 -13 13 -32t-13 -32t-32 -13t-33 13q-13 13 -13 32t13 32zM435 663q14 14 33 14t32 -14q13 -13 13 -32t-13 -32
t-32 -13t-33 13q-13 13 -13 32t13 32z" />
    <glyph glyph-name="Ygrave" unicode="&#x1ef2;" horiz-adv-x="667" 
d="M572 700h78l-283 -432v-268h-67v268l-283 432h78l210 -320l28 -47l28 47zM172 834h98l107 -103h-79z" />
    <glyph glyph-name="ygrave" unicode="&#x1ef3;" horiz-adv-x="495" 
d="M408 502h68l-283 -717h-67l88 223l-195 494h67l151 -389l10 -35l11 35zM79 732h81l122 -158h-66z" />
    <glyph glyph-name="endash" unicode="&#x2013;" horiz-adv-x="515" 
d="M25 288h465v-57h-465v57z" />
    <glyph glyph-name="emdash" unicode="&#x2014;" horiz-adv-x="705" 
d="M25 288h655v-57h-655v57z" />
    <glyph glyph-name="quoteleft" unicode="&#x2018;" horiz-adv-x="169" 
d="M101 723l23 -9q-30 -54 -36 -113q21 -2 34.5 -15.5t13.5 -34.5t-15 -36t-36 -15q-22 0 -36.5 15.5t-14.5 40.5q1 89 67 167z" />
    <glyph glyph-name="quoteright" unicode="&#x2019;" horiz-adv-x="169" 
d="M84 717q22 0 37 -15.5t15 -39.5q0 -88 -68 -168l-23 10q30 51 37 112q-21 2 -34.5 15.5t-13.5 34.5t14.5 36t35.5 15z" />
    <glyph glyph-name="quotesinglbase" unicode="&#x201a;" horiz-adv-x="169" 
d="M84 92q22 0 37 -15.5t15 -39.5q0 -90 -68 -167l-23 9q30 52 37 113q-21 2 -34.5 15.5t-13.5 34.5t14.5 35.5t35.5 14.5z" />
    <glyph glyph-name="quotedblleft" unicode="&#x201c;" horiz-adv-x="331" 
d="M101 723l23 -9q-30 -54 -36 -113q21 -2 34.5 -15.5t13.5 -34.5t-15 -36t-36 -15q-22 0 -36.5 15.5t-14.5 40.5q1 89 67 167zM261 723l23 -9q-30 -54 -36 -113q21 -2 34.5 -15.5t13.5 -34.5t-15 -36t-36 -15q-22 0 -36.5 15.5t-14.5 40.5q1 89 67 167z" />
    <glyph glyph-name="quotedblright" unicode="&#x201d;" horiz-adv-x="331" 
d="M84 717q22 0 37 -15.5t15 -39.5q0 -88 -68 -168l-23 10q30 51 37 112q-21 2 -34.5 15.5t-13.5 34.5t14.5 36t35.5 15zM244 717q22 0 37 -15.5t15 -39.5q0 -88 -68 -168l-23 10q30 51 37 112q-21 2 -34.5 15.5t-13.5 34.5t14.5 36t35.5 15z" />
    <glyph glyph-name="quotedblbase" unicode="&#x201e;" horiz-adv-x="339" 
d="M84 92q22 0 37 -15.5t15 -39.5q0 -90 -68 -167l-23 9q30 52 37 113q-21 2 -34.5 15.5t-13.5 34.5t14.5 35.5t35.5 14.5zM253 92q22 0 37 -15.5t15 -39.5q0 -90 -68 -167l-23 9q30 52 37 113q-21 2 -34.5 15.5t-13.5 34.5t14.5 35.5t35.5 14.5z" />
    <glyph glyph-name="dagger" unicode="&#x2020;" horiz-adv-x="441" 
d="M189 726h63v-204h173v-60h-173v-529h-63v529h-173v60h173v204z" />
    <glyph glyph-name="daggerdbl" unicode="&#x2021;" horiz-adv-x="441" 
d="M189 726h63v-204h173v-60h-173v-265h173v-60h-173v-204h-63v204h-173v60h173v265h-173v60h173v204z" />
    <glyph glyph-name="bullet" unicode="&#x2022;" horiz-adv-x="355" 
d="M76 360q41 41 101 41t101 -41t41 -101t-41 -101q-40 -40 -101 -40t-101 40t-40 101t40 101z" />
    <glyph glyph-name="ellipsis" unicode="&#x2026;" horiz-adv-x="588" 
d="M149 42q0 -22 -15.5 -37.5t-37.5 -15.5q-35 0 -49.5 33t10.5 58q24 26 59.5 11.5t32.5 -49.5zM348 42q0 -22 -15.5 -37.5t-38.5 -15.5t-38.5 15.5t-15.5 37.5q0 23 15.5 38.5t38.5 15.5t38.5 -15.5t15.5 -38.5zM546 42q0 -22 -15 -37.5t-38 -15.5t-38.5 15t-15.5 38
t15.5 38.5t38.5 15.5t38 -15.5t15 -38.5z" />
    <glyph glyph-name="perthousand" unicode="&#x2030;" horiz-adv-x="1206" 
d="M595 700h73l-443 -700h-73zM196 713q71 0 117 -49q47 -50 47 -123t-47 -122q-47 -48 -117 -48t-117 48q-46 47 -46 122q0 74 46 123t117 49zM87 541q0 -50 31 -83t78 -33t77 33t30 83q0 51 -30 84.5t-77 33.5t-78 -33.5t-31 -84.5zM625 329q70 0 116 -49q47 -50 47 -123
t-47 -122q-47 -48 -116 -48q-71 0 -118 48q-46 47 -46 122q0 74 46 123t118 49zM625 275q-48 0 -78.5 -33.5t-30.5 -84.5q0 -50 30.5 -83t78.5 -33q46 0 76.5 33t30.5 83q0 51 -30.5 84.5t-76.5 33.5zM1010 329q70 0 116 -49q47 -50 47 -123t-47 -122q-46 -48 -116 -48
q-72 0 -118 48q-46 47 -46 122q0 74 46 123t118 49zM901 157q0 -50 31 -83t78 -33t77 33t30 83q0 51 -30 84.5t-77 33.5t-78 -33.5t-31 -84.5z" />
    <glyph glyph-name="guilsinglleft" unicode="&#x2039;" horiz-adv-x="244" 
d="M163 446h67l-154 -196l154 -195h-67l-149 187v17z" />
    <glyph glyph-name="guilsinglright" unicode="&#x203a;" horiz-adv-x="244" 
d="M14 446h68l148 -187v-17l-148 -187h-68l155 195z" />
    <glyph glyph-name="fraction" unicode="&#x2044;" horiz-adv-x="116" 
d="M243 700h73l-443 -700h-73z" />
    <glyph glyph-name="zero.sups" unicode="&#x2070;" horiz-adv-x="364" 
d="M181 807q68 0 105 -53.5t37 -148.5q0 -96 -37 -150t-105 -54q-66 0 -103 54t-37 150q0 94 37 148t103 54zM181 756q-41 0 -62.5 -39.5t-21.5 -111.5q0 -73 21.5 -113t62.5 -40q42 0 64 40t22 113q0 72 -22 111.5t-64 39.5z" />
    <glyph glyph-name="four.sups" unicode="&#x2074;" horiz-adv-x="354" 
d="M199 800h64v-264h58v-49h-58v-79h-55v79h-177v44zM208 536v188l-13 -24l-104 -164h117z" />
    <glyph glyph-name="five.sups" unicode="&#x2075;" horiz-adv-x="348" 
d="M63 800h227v-52h-172v-111q28 15 69 15q57 0 90.5 -32t33.5 -88q0 -58 -36 -94.5t-95 -36.5q-60 0 -94.5 30t-34.5 85h55q0 -64 74 -64q36 0 56.5 21t20.5 57q0 34 -20.5 55t-56.5 21q-40 0 -68 -18h-49v212z" />
    <glyph glyph-name="six.sups" unicode="&#x2076;" horiz-adv-x="353" 
d="M184 807q51 0 84.5 -29.5t35.5 -79.5h-55q-6 58 -67 58q-85 0 -86 -148q12 18 37.5 29.5t54.5 11.5q56 0 90.5 -34t34.5 -87q0 -57 -36 -92t-96 -35q-61 0 -98 40q-43 43 -43 153q0 213 144 213zM180 600q-31 0 -54.5 -20t-24.5 -49v-3q0 -31 22.5 -54t56.5 -23
t55.5 21.5t21.5 54.5q0 31 -22 52t-55 21z" />
    <glyph glyph-name="seven.sups" unicode="&#x2077;" horiz-adv-x="305" 
d="M24 800h251v-44l-169 -348h-60l165 339h-187v53z" />
    <glyph glyph-name="eight.sups" unicode="&#x2078;" horiz-adv-x="348" 
d="M295 696q0 -31 -14.5 -53.5t-36.5 -32.5q64 -30 64 -94q0 -50 -38.5 -82.5t-95.5 -32.5t-95.5 32.5t-38.5 82.5q0 67 64 94q-21 10 -36 33t-15 53q0 48 33.5 79.5t87.5 31.5t87.5 -31.5t33.5 -79.5zM174 451q34 0 56.5 18.5t22.5 48.5t-23 49.5t-56 19.5t-55.5 -19.5
t-22.5 -49.5t22.5 -48.5t55.5 -18.5zM222 740q-18 17 -48 17t-48 -17t-18 -45t18 -45q19 -17 48 -17t48 17t19 45t-19 45z" />
    <glyph glyph-name="nine.sups" unicode="&#x2079;" horiz-adv-x="353" 
d="M171 807q62 0 100 -38q42 -43 42 -155q0 -213 -145 -213q-51 0 -84 29.5t-35 79.5h55q7 -58 66 -58q85 0 87 149q-30 -40 -92 -40q-56 0 -90.5 33.5t-34.5 85.5q0 57 36 92t95 35zM172 606q32 0 55.5 21t24.5 51v2q0 31 -23 54t-57 23q-33 0 -54.5 -22t-21.5 -55
q0 -31 21.5 -52.5t54.5 -21.5z" />
    <glyph glyph-name="n.sups" unicode="&#x207f;" horiz-adv-x="405" 
d="M224 708q56 0 87 -34.5t31 -93.5v-221h-54v212q0 41 -20 63.5t-56 22.5q-39 0 -65 -29.5t-26 -77.5v-191h-53v342h48l3 -53q12 26 40 43t65 17z" />
    <glyph glyph-name="Euro" unicode="&#x20ac;" horiz-adv-x="567" 
d="M158 288h172v-56h-165q18 -88 62 -135.5t110 -47.5q116 0 143 118h72q-27 -93 -77.5 -136.5t-137.5 -43.5q-94 0 -156 64.5t-83 180.5h-83v56h75q-2 26 -2 63t2 65h-75v56h83q21 115 83 178t156 63q177 0 214 -178h-71q-20 116 -143 116q-65 0 -109 -46.5t-62 -132.5h164
v-56h-172q-3 -31 -3 -65q0 -33 3 -63z" />
    <glyph glyph-name="afii61289" unicode="&#x2113;" horiz-adv-x="581" 
d="M322 744q68 0 106.5 -41.5t38.5 -111.5q0 -85 -60 -165q-55 -74 -169 -173v-100q0 -55 19.5 -80.5t66.5 -25.5q49 0 82.5 28.5t71.5 93.5l43 -27q-45 -77 -92 -114.5t-112 -37.5q-71 0 -102 36t-34 105q-4 4 -4 73q-25 -23 -98 -83l-33 47q104 90 128 113v293
q0 81 40 125.5t108 44.5zM321 691q-41 0 -64.5 -30t-23.5 -84v-257q178 154 178 267q0 104 -90 104z" />
    <glyph glyph-name="trademark" unicode="&#x2122;" horiz-adv-x="611" 
d="M21 700h214v-48h-80v-232h-52v232h-82v48zM509 700h59v-280h-51v185l-8 -24l-70 -161h-39l-69 161l-9 24v-185h-52v280h60l83 -188l7 -17l6 17z" />
    <glyph glyph-name="Omega" unicode="&#x2126;" horiz-adv-x="858" 
d="M757 394q0 -188 -168 -329h232v-65h-330v59q198 133 198 333q0 123 -68 202q-67 78 -186 78q-118 0 -187 -79q-68 -79 -68 -201q0 -200 198 -333v-59h-330v65h233q-168 141 -168 329q0 151 88 246q88 97 234 97t234 -97q88 -95 88 -246z" />
    <glyph glyph-name="estimated" unicode="&#x212e;" horiz-adv-x="590" 
d="M308 510q-90 0 -142 -47q-32 -23 -32 -57v-100h327v104q0 44 -28 62q-50 38 -125 38zM308 536q108 0 177 -69q70 -67 70 -188h-421v-158q0 -37 30 -57q61 -49 144 -49q137 0 222 127l22 -14q-87 -139 -244 -139q-116 0 -195 76q-78 77 -78 197t78 197q80 77 195 77z" />
    <glyph glyph-name="partialdiff" unicode="&#x2202;" horiz-adv-x="530" 
d="M247 742q248 0 248 -429q0 -140 -34 -202q-63 -118 -195 -118q-99 0 -164 65q-65 67 -65 168t64 165q65 65 161 65q58 0 102 -24.5t65 -59.5q-3 148 -50.5 229t-136.5 81q-91 0 -143 -76l-47 43q74 93 195 93zM267 398q-72 0 -118 -49q-47 -49 -47 -123q0 -76 47 -126
q46 -49 118 -49q70 0 115 49q46 49 46 126q0 76 -46 123q-45 49 -115 49z" />
    <glyph glyph-name="uni2206" unicode="&#x2206;" horiz-adv-x="721" 
d="M36 0l325 644l324 -644h-649zM596 54l-235 467l-236 -467h471z" />
    <glyph glyph-name="product" unicode="&#x220f;" horiz-adv-x="680" 
d="M35 700h610v-60h-140v-758h-60v758h-210v-758h-60v758h-140v60z" />
    <glyph glyph-name="summation" unicode="&#x2211;" horiz-adv-x="610" 
d="M48 700h501v-60h-414l199 -278l-205 -302h433v-60h-517v40l216 321l-213 299v40z" />
    <glyph glyph-name="minus" unicode="&#x2212;" horiz-adv-x="472" 
d="M30 379h412v-58h-412v58z" />
    <glyph glyph-name="radical" unicode="&#x221a;" horiz-adv-x="697" 
d="M368 71l238 622l56 -20l-291 -743l-173 341l-129 -74l-30 50l187 111z" />
    <glyph glyph-name="infinity" unicode="&#x221e;" horiz-adv-x="739" 
d="M545 453q72 0 117 -50q45 -49 45 -122t-45 -123q-45 -49 -117 -49q-52 0 -95 32q-22 17 -33 27l-32 32l-7 7l-22 23l-22 -24q-75 -81 -147 -81q-66 0 -106 44t-40 111q0 68 40 112.5t106 44.5q39 0 71 -19.5t75 -64.5l23 -25l16 20q45 53 84.5 78.5t88.5 26.5zM545 393
q-67 0 -136 -91l-17 -23l21 -24l37 -40q16 -16 43.5 -31t51.5 -15q45 0 74.5 32t29.5 80t-29.5 80t-74.5 32zM186 380q-41 0 -65.5 -28t-24.5 -72q0 -43 24.5 -70.5t65.5 -27.5q56 0 114 72l20 25l-20 26q-64 75 -114 75z" />
    <glyph glyph-name="integral" unicode="&#x222b;" horiz-adv-x="434" 
d="M315 750q57 0 100 -24l-18 -54q-37 21 -75 21q-75 0 -75 -106v-611q0 -87 -31.5 -127t-97.5 -40t-109 25l21 54q34 -21 79 -21q80 0 80 109v611q0 85 31 124t95 39z" />
    <glyph glyph-name="approxequal" unicode="&#x2248;" horiz-adv-x="572" 
d="M186 329q67 0 112 -47q48 -46 98 -46q77 0 105 85l46 -25q-42 -121 -151 -121q-68 0 -113 47t-98 47q-74 0 -104 -87l-46 26q43 121 151 121zM186 531q67 0 112 -47q48 -46 98 -46q75 0 104 86l47 -26q-42 -120 -152 -120q-66 0 -112 46q-45 47 -98 47q-75 0 -104 -86
l-47 25q42 121 152 121z" />
    <glyph glyph-name="notequal" unicode="&#x2260;" horiz-adv-x="459" 
d="M233 276h209v-58h-230l-36 -100h-63l36 100h-119v58h140l54 147h-194v58h215l40 111h64l-41 -111h134v-58h-155z" />
    <glyph glyph-name="lessequal" unicode="&#x2264;" horiz-adv-x="333" 
d="M225 579h85l-204 -171l204 -170h-85l-202 168v4zM23 179h287v-53h-287v53z" />
    <glyph glyph-name="greaterequal" unicode="&#x2265;" horiz-adv-x="333" 
d="M23 579h84l203 -169v-4l-203 -168h-84l203 170zM23 179h287v-53h-287v53z" />
    <glyph glyph-name="lozenge" unicode="&#x25ca;" horiz-adv-x="550" 
d="M255 738h41l228 -402l-228 -401h-41l-229 401zM460 336l-184 310l-185 -310l185 -311z" />
    <glyph glyph-name="commaaccent" unicode="&#xf6c3;" horiz-adv-x="186" 
d="M144 -92q0 -39 -19 -82t-49 -74l-21 11q29 46 35 99q-21 2 -34.5 15.5t-13.5 34.5q0 22 14.5 36.5t36.5 14.5t36.5 -15.5t14.5 -39.5z" />
    <glyph glyph-name="g.alt" horiz-adv-x="600" 
d="M275 453q-80 0 -127 -56t-47 -145q0 -88 48 -144q50 -56 128 -56q71 0 120 52q51 52 51 141v21q0 85 -51 136q-49 51 -122 51zM269 513q61 0 109.5 -28t70.5 -69l2 86h59v-495q0 -105 -62 -169q-61 -64 -167 -64q-89 0 -148 41.5t-77 123.5h66q26 -107 159 -107
q79 0 122.5 45t43.5 129v81q-20 -40 -68 -67.5t-109 -27.5q-106 0 -170 73q-63 74 -63 187q0 114 63 188q63 73 169 73z" />
    <glyph glyph-name="a.alt" horiz-adv-x="591" 
d="M278 453q-80 0 -129 -57q-48 -56 -48 -145t48 -146t128 -57q71 0 121 51q51 53 51 138v23q0 87 -50 140t-121 53zM272 513q63 0 109.5 -27t69.5 -71l2 87h58v-502h-58l-2 85q-23 -41 -71 -68.5t-109 -27.5q-106 0 -171 74q-63 73 -63 188t64 188q65 74 171 74z" />
    <glyph glyph-name="parenleft.cap" horiz-adv-x="262" 
d="M203 753l46 -34q-72 -90 -103 -176q-32 -88 -32 -202t32 -202q31 -86 103 -176l-46 -34q-77 98 -114 196t-37 216t37 216t114 196z" />
    <glyph glyph-name="parenright.cap" horiz-adv-x="262" 
d="M13 719l46 34q77 -98 114 -196t37 -216t-37 -216t-114 -196l-46 34q72 90 103 176q32 88 32 202t-32 202q-31 86 -103 176z" />
    <glyph glyph-name="bracketleft.cap" horiz-adv-x="265" 
d="M70 736h170v-58h-109v-677h109v-58h-170v793z" />
    <glyph glyph-name="bracketright.cap" horiz-adv-x="265" 
d="M25 736h170v-793h-170v58h108v677h-108v58z" />
    <glyph glyph-name="braceleft.cap" horiz-adv-x="271" 
d="M215 736h31v-58h-30q-65 0 -65 -72v-171q0 -73 -54 -96q54 -23 54 -95v-171q0 -72 65 -72h30v-58h-31q-60 0 -92 34.5t-32 95.5v166q0 72 -65 72h-18v57h18q65 0 65 72v166q0 61 32 95.5t92 34.5z" />
    <glyph glyph-name="braceright.cap" horiz-adv-x="271" 
d="M25 736h31q60 0 92 -34.5t32 -95.5v-166q0 -72 65 -72h18v-57h-18q-65 0 -65 -72v-166q0 -61 -32 -95.5t-92 -34.5h-31v58h30q65 0 65 72v171q0 72 54 95q-54 23 -54 96v171q0 72 -65 72h-30v58z" />
    <glyph glyph-name="hyphen.cap" horiz-adv-x="365" 
d="M25 359h315v-57h-315v57z" />
    <glyph glyph-name="endash.cap" horiz-adv-x="515" 
d="M25 358h465v-57h-465v57z" />
    <glyph glyph-name="emdash.cap" horiz-adv-x="705" 
d="M25 359h655v-57h-655v57z" />
    <glyph glyph-name="at.cap" horiz-adv-x="798" 
d="M389 501q-62 0 -98 -42t-36 -111t36 -110t96 -41q58 0 96 37.5t38 99.5v23q0 65 -38 104.5t-94 39.5zM401 713q160 0 259 -103q99 -104 99 -261q0 -100 -39 -152t-100 -52q-77 0 -95 64q-19 -29 -57 -47.5t-86 -18.5q-83 0 -134 58q-51 59 -51 147q0 90 51 148t135 58
q49 0 85.5 -21.5t52.5 -54.5l2 67h52v-297q0 -54 50 -54q80 0 80 155q0 136 -84 224q-84 89 -220 89q-138 0 -224 -89q-84 -88 -84 -224q0 -137 84 -225q86 -89 224 -89q73 0 136 29l18 -49q-69 -31 -154 -31q-163 0 -263 103q-99 103 -99 262q0 160 99 262q100 102 263 102
z" />
    <glyph glyph-name="periodcentered.cap" horiz-adv-x="191" 
d="M96 402q22 0 37.5 -15t15.5 -38t-15 -38.5t-38 -15.5t-38.5 15.5t-15.5 38.5t15.5 38t38.5 15z" />
    <glyph glyph-name="exclamdown.cap" 
d="M147 0h-63v507h63v-507zM61 658q0 22 15.5 37.5t38.5 15.5t38.5 -15t15.5 -38t-15.5 -38.5t-38.5 -15.5t-38.5 15.5t-15.5 38.5z" />
    <glyph glyph-name="questiondown.cap" horiz-adv-x="400" 
d="M205 -14q-81 0 -137 50q-55 51 -55 140q0 93 58 151q10 10 35.5 33.5t37 35.5t23 32.5t11.5 40.5v41h63v-42q0 -35 -17 -64t-41.5 -51t-49 -44.5t-41.5 -56t-17 -74.5q0 -64 35.5 -100t93.5 -36q63 0 98 37t35 105h62q-1 -93 -54 -145.5t-140 -52.5zM155 661
q0 22 15.5 37.5t38.5 15.5t38.5 -15t15.5 -38t-15.5 -38.5t-38.5 -15.5t-38.5 15.5t-15.5 38.5z" />
    <glyph glyph-name="endash_guilsinglright" horiz-adv-x="656" 
d="M298 494l34 41l281 -256l-281 -256l-34 41l207 187h-462v56h463z" />
    <glyph glyph-name="emdash_guilsinglright" horiz-adv-x="986" 
d="M627 494l33 41l284 -256l-284 -256l-33 41l207 187h-791v56h792z" />
    <glyph glyph-name="guilsinglleft_endash" horiz-adv-x="656" 
d="M43 279l283 256l33 -41l-208 -187h462v-56h-461l207 -187l-33 -41z" />
    <glyph glyph-name="guilsinglleft_emdash" horiz-adv-x="986" 
d="M43 279l283 256l33 -41l-208 -187h793v-56h-792l207 -187l-33 -41z" />
    <glyph glyph-name="guilsinglleft.cap" horiz-adv-x="244" 
d="M163 536h67l-154 -196l154 -195h-67l-149 187v17z" />
    <glyph glyph-name="guilsinglright.cap" horiz-adv-x="244" 
d="M14 536h68l148 -187v-17l-148 -187h-68l155 195z" />
    <glyph glyph-name="guillemotleft.cap" horiz-adv-x="441" 
d="M158 536h67l-149 -196l149 -195h-67l-144 187v17zM359 536h68l-150 -196l150 -195h-68l-144 187v17z" />
    <glyph glyph-name="guillemotright.cap" horiz-adv-x="441" 
d="M14 536h68l143 -187v-17l-143 -187h-68l150 195zM215 536h68l144 -187v-17l-144 -187h-68l150 195z" />
    <glyph glyph-name="germandbls.cap" horiz-adv-x="605" 
d="M323 713q68 0 116.5 -20.5t94.5 -66.5l-165 -220q91 -5 146 -60q56 -56 56 -141q0 -97 -63 -154.5t-176 -57.5q-55 0 -99 10l6 63q42 -11 92 -11q82 0 127 38t45 111q0 72 -53 111.5t-148 39.5l-21 25l169 228q-43 43 -128 43q-74 0 -123 -48q-49 -46 -49 -130v-473h-67
v472q0 106 66 173q66 68 174 68z" />
    <glyph glyph-name="grave.cap" horiz-adv-x="225" 
d="M10 834h98l107 -103h-79z" />
    <glyph glyph-name="acute.cap" horiz-adv-x="225" 
d="M117 834h98l-125 -103h-80z" />
    <glyph glyph-name="circumflex.cap" horiz-adv-x="341" 
d="M148 835h46l137 -105h-88l-73 57l-73 -57h-87z" />
    <glyph glyph-name="caron.cap" horiz-adv-x="341" 
d="M243 832h88l-137 -105h-46l-138 105h87l73 -56z" />
    <glyph glyph-name="tilde.cap" horiz-adv-x="337" 
d="M108 848q27 0 46.5 -11t28.5 -23.5t22 -23.5t28 -11q46 0 46 60h48q0 -52 -25 -82t-72 -30q-27 0 -47 11t-29 24t-22 24t-28 11q-46 0 -46 -61h-48q0 52 25 82t73 30z" />
    <glyph glyph-name="dieresis.cap" horiz-adv-x="289" 
d="M56 824q27 2 38.5 -21.5t0 -47t-38.5 -21.5q-19 0 -32.5 13t-13.5 32t13 32t33 13zM234 824q27 2 38.5 -21.5t0 -47t-38.5 -21.5q-19 0 -32.5 13t-13.5 32t13 32t33 13z" />
    <glyph glyph-name="macron.cap" horiz-adv-x="273" 
d="M10 797h253v-54h-253v54z" />
    <glyph glyph-name="breve.cap" horiz-adv-x="291" 
d="M224 843h57q0 -51 -37.5 -82.5t-97.5 -31.5q-61 0 -98.5 31.5t-37.5 82.5h56q0 -29 21.5 -46.5t58.5 -17.5q36 0 57 17.5t21 46.5z" />
    <glyph glyph-name="ring.cap" horiz-adv-x="200" 
d="M131 847q-13 13 -32 13t-32 -13q-12 -13 -12 -32t12 -32q13 -13 32 -13t32 13t13 32t-13 32zM99 903q40 0 66 -25t26 -63t-26 -63.5t-66 -25.5q-39 0 -65 25.5t-26 63.5t26 63t65 25z" />
    <glyph glyph-name="hungarumlaut.cap" horiz-adv-x="315" 
d="M91 833h72l-91 -105h-62zM233 833h72l-90 -105h-64z" />
    <glyph glyph-name="dotaccent.cap" horiz-adv-x="115" 
d="M24 815q14 14 34 14t33 -14q14 -13 14 -33t-14 -34q-13 -13 -33 -13t-34 13q-14 14 -14 34t14 33z" />
    <glyph glyph-name="aogonek.alt" horiz-adv-x="591" 
d="M272 513q63 0 109.5 -27t69.5 -71l2 87h58v-502h-1q-60 -30 -60 -84q0 -29 15.5 -45t42.5 -16q25 0 43 9l14 -45q-21 -12 -59 -12q-47 0 -76.5 29.5t-29.5 78.5q0 60 52 97l-1 73q-23 -41 -71 -68.5t-109 -27.5q-106 0 -171 74q-63 73 -63 188t64 188q65 74 171 74z
M278 453q-80 0 -129 -57q-48 -56 -48 -145t48 -146t128 -57q71 0 121 51q51 53 51 138v23q0 87 -50 140t-121 53z" />
    <glyph glyph-name="aringacute.alt" horiz-adv-x="591" 
d="M272 513q63 0 109.5 -27t69.5 -71l2 87h58v-502h-58l-2 85q-23 -41 -71 -68.5t-109 -27.5q-106 0 -171 74q-63 73 -63 188t64 188q65 74 171 74zM278 453q-80 0 -129 -57q-48 -56 -48 -145t48 -146t128 -57q71 0 121 51q51 53 51 138v23q0 87 -50 140t-121 53zM322 834
h98l-101 -83q30 -11 47.5 -36.5t17.5 -58.5q0 -42 -28.5 -70t-73.5 -28t-73.5 28t-28.5 70q0 58 47 87zM227 657q0 -22 16 -38.5t39 -16.5t39 16.5t16 38.5q0 24 -15.5 39.5t-39.5 15.5t-39.5 -16t-15.5 -39z" />
    <glyph glyph-name="aacute.alt" horiz-adv-x="591" 
d="M278 453q-80 0 -129 -57q-48 -56 -48 -145t48 -146t128 -57q71 0 121 51q51 53 51 138v23q0 87 -50 140t-121 53zM272 513q63 0 109.5 -27t69.5 -71l2 87h58v-502h-58l-2 85q-23 -41 -71 -68.5t-109 -27.5q-106 0 -171 74q-63 73 -63 188t64 188q65 74 171 74zM357 732
h81l-137 -158h-66z" />
    <glyph glyph-name="abreve.alt" horiz-adv-x="591" 
d="M278 453q-80 0 -129 -57q-48 -56 -48 -145t48 -146t128 -57q71 0 121 51q51 53 51 138v23q0 87 -50 140t-121 53zM272 513q63 0 109.5 -27t69.5 -71l2 87h58v-502h-58l-2 85q-23 -41 -71 -68.5t-109 -27.5q-106 0 -171 74q-63 73 -63 188t64 188q65 74 171 74zM354 705
h56q0 -57 -38 -95t-97 -38q-60 0 -98 37.5t-38 95.5h56q0 -37 22 -60t58 -23q35 0 57 23.5t22 59.5z" />
    <glyph glyph-name="adieresis.alt" horiz-adv-x="591" 
d="M278 453q-80 0 -129 -57q-48 -56 -48 -145t48 -146t128 -57q71 0 121 51q51 53 51 138v23q0 87 -50 140t-121 53zM272 513q63 0 109.5 -27t69.5 -71l2 87h58v-502h-58l-2 85q-23 -41 -71 -68.5t-109 -27.5q-106 0 -171 74q-63 73 -63 188t64 188q65 74 171 74zM153 663
q14 14 33 14t32 -14q13 -13 13 -32t-13 -32t-32 -13t-33 13q-13 13 -13 32t13 32zM331 663q14 14 33 14t32 -14q13 -13 13 -32t-13 -32t-32 -13t-33 13q-13 13 -13 32t13 32z" />
    <glyph glyph-name="agrave.alt" horiz-adv-x="591" 
d="M278 453q-80 0 -129 -57q-48 -56 -48 -145t48 -146t128 -57q71 0 121 51q51 53 51 138v23q0 87 -50 140t-121 53zM272 513q63 0 109.5 -27t69.5 -71l2 87h58v-502h-58l-2 85q-23 -41 -71 -68.5t-109 -27.5q-106 0 -171 74q-63 73 -63 188t64 188q65 74 171 74zM107 732
h81l122 -158h-66z" />
    <glyph glyph-name="amacron.alt" horiz-adv-x="591" 
d="M278 453q-80 0 -129 -57q-48 -56 -48 -145t48 -146t128 -57q71 0 121 51q51 53 51 138v23q0 87 -50 140t-121 53zM272 513q63 0 109.5 -27t69.5 -71l2 87h58v-502h-58l-2 85q-23 -41 -71 -68.5t-109 -27.5q-106 0 -171 74q-63 73 -63 188t64 188q65 74 171 74zM148 655
h253v-55h-253v55z" />
    <glyph glyph-name="aring.alt" horiz-adv-x="591" 
d="M278 453q-80 0 -129 -57q-48 -56 -48 -145t48 -146t128 -57q71 0 121 51q51 53 51 138v23q0 87 -50 140t-121 53zM272 513q63 0 109.5 -27t69.5 -71l2 87h58v-502h-58l-2 85q-23 -41 -71 -68.5t-109 -27.5q-106 0 -171 74q-63 73 -63 188t64 188q65 74 171 74zM375 656
q0 -42 -28.5 -70t-73.5 -28t-73.5 28t-28.5 70q0 44 28.5 72.5t73.5 28.5t73.5 -28.5t28.5 -72.5zM218 657q0 -22 16 -38.5t39 -16.5t39 16.5t16 38.5q0 24 -15.5 39.5t-39.5 15.5t-39.5 -16t-15.5 -39z" />
    <glyph glyph-name="atilde.alt" horiz-adv-x="591" 
d="M278 453q-80 0 -129 -57q-48 -56 -48 -145t48 -146t128 -57q71 0 121 51q51 53 51 138v23q0 87 -50 140t-121 53zM272 513q63 0 109.5 -27t69.5 -71l2 87h58v-502h-58l-2 85q-23 -41 -71 -68.5t-109 -27.5q-106 0 -171 74q-63 73 -63 188t64 188q65 74 171 74zM214 698
q26 0 45.5 -12t28.5 -26.5t22.5 -26.5t28.5 -12q46 0 46 68h48q0 -55 -25 -87.5t-72 -32.5q-27 0 -46.5 12t-28.5 27t-22.5 27t-28.5 12q-46 0 -46 -69h-48q0 56 25 88t73 32z" />
    <glyph glyph-name="gbreve.alt" horiz-adv-x="600" 
d="M352 705h56q0 -57 -38 -95t-97 -38q-60 0 -98 37.5t-38 95.5h56q0 -37 22 -60t58 -23q35 0 57 23.5t22 59.5zM275 453q-80 0 -127 -56t-47 -145q0 -88 48 -144q50 -56 128 -56q71 0 120 52q51 52 51 141v21q0 85 -51 136q-49 51 -122 51zM269 513q61 0 109.5 -28
t70.5 -69l2 86h59v-495q0 -105 -62 -169q-61 -64 -167 -64q-89 0 -148 41.5t-77 123.5h66q26 -107 159 -107q79 0 122.5 45t43.5 129v81q-20 -40 -68 -67.5t-109 -27.5q-106 0 -170 73q-63 74 -63 187q0 114 63 188q63 73 169 73z" />
    <glyph glyph-name="gcircumflex.alt" horiz-adv-x="600" 
d="M275 453q-80 0 -127 -56t-47 -145q0 -88 48 -144q50 -56 128 -56q71 0 120 52q51 52 51 141v21q0 85 -51 136q-49 51 -122 51zM269 513q61 0 109.5 -28t70.5 -69l2 86h59v-495q0 -105 -62 -169q-61 -64 -167 -64q-89 0 -148 41.5t-77 123.5h66q26 -107 159 -107
q79 0 122.5 45t43.5 129v81q-20 -40 -68 -67.5t-109 -27.5q-106 0 -170 73q-63 74 -63 187q0 114 63 188q63 73 169 73zM255 732h35l134 -158h-73l-78 99l-79 -99h-73z" />
    <glyph glyph-name="gcommaaccent.alt" horiz-adv-x="600" 
d="M275 453q-80 0 -127 -56t-47 -145q0 -88 48 -144q50 -56 128 -56q71 0 120 52q51 52 51 141v21q0 85 -51 136q-49 51 -122 51zM269 513q61 0 109.5 -28t70.5 -69l2 86h59v-495q0 -105 -62 -169q-61 -64 -167 -64q-89 0 -148 41.5t-77 123.5h66q26 -107 159 -107
q79 0 122.5 45t43.5 129v81q-20 -40 -68 -67.5t-109 -27.5q-106 0 -170 73q-63 74 -63 187q0 114 63 188q63 73 169 73zM296 786l23 -9q-30 -54 -36 -113q21 -2 34.5 -16t13.5 -34q0 -21 -15 -36t-36 -15q-22 0 -36.5 15.5t-14.5 40.5q1 89 67 167z" />
    <glyph glyph-name="gdotaccent.alt" horiz-adv-x="600" 
d="M275 453q-80 0 -127 -56t-47 -145q0 -88 48 -144q50 -56 128 -56q71 0 120 52q51 52 51 141v21q0 85 -51 136q-49 51 -122 51zM269 513q61 0 109.5 -28t70.5 -69l2 86h59v-495q0 -105 -62 -169q-61 -64 -167 -64q-89 0 -148 41.5t-77 123.5h66q26 -107 159 -107
q79 0 122.5 45t43.5 129v81q-20 -40 -68 -67.5t-109 -27.5q-106 0 -170 73q-63 74 -63 187q0 114 63 188q63 73 169 73zM238 674q15 15 35 15t34 -15q15 -14 15 -34t-15 -34q-14 -14 -34 -14t-35 14q-14 14 -14 34t14 34z" />
    <glyph glyph-name="acircumflex.alt" horiz-adv-x="591" 
d="M278 453q-80 0 -129 -57q-48 -56 -48 -145t48 -146t128 -57q71 0 121 51q51 53 51 138v23q0 87 -50 140t-121 53zM272 513q63 0 109.5 -27t69.5 -71l2 87h58v-502h-58l-2 85q-23 -41 -71 -68.5t-109 -27.5q-106 0 -171 74q-63 73 -63 188t64 188q65 74 171 74zM263 732
h35l134 -158h-73l-78 99l-79 -99h-73z" />
    <glyph glyph-name="zero.tnum" horiz-adv-x="549" 
d="M274 553q106 0 168 -78q61 -76 61 -204q0 -129 -61 -206q-62 -78 -168 -78t-167 78q-61 77 -61 206q0 128 61 204q62 78 167 78zM274 492q-74 0 -117.5 -60.5t-43.5 -160.5q0 -101 43.5 -162t117.5 -61q75 0 118 61t43 162t-43 161t-118 60z" />
    <glyph glyph-name="one.tnum" horiz-adv-x="319" 
d="M186 540h53v-540h-66v411h-147v48q82 0 114 16q34 16 46 65z" />
    <glyph glyph-name="two.tnum" horiz-adv-x="482" 
d="M240 553q88 0 138 -48.5t50 -130.5q0 -108 -108 -197l-140 -115h266v-62h-387v44l220 181q46 38 63.5 69t17.5 78q0 119 -120 119q-53 0 -85.5 -34t-31.5 -96h-67q0 88 50.5 140t133.5 52z" />
    <glyph glyph-name="three.tnum" horiz-adv-x="524" 
d="M446 365q0 -59 -29 -98.5t-75 -54.5q55 -13 91.5 -59.5t36.5 -112.5q0 -84 -58 -138q-56 -55 -147 -55q-102 0 -160 54.5t-58 152.5h65q1 -72 41.5 -108.5t112.5 -36.5q60 0 98 36t38 96q0 68 -49 104.5t-140 36.5h-13v60h13q86 0 125.5 29t39.5 93q0 60 -31 93.5
t-90 33.5q-58 0 -92.5 -37t-34.5 -106h-66q0 94 52.5 149.5t140.5 55.5q86 0 137.5 -52.5t51.5 -135.5z" />
    <glyph glyph-name="four.tnum" horiz-adv-x="523" 
d="M320 540h71v-476h103v-61h-103v-143h-66v143h-295v54zM325 64v366l-24 -44l-195 -322h219z" />
    <glyph glyph-name="five.tnum" horiz-adv-x="528" 
d="M91 540h361v-62h-294v-228q46 30 122 30q96 0 153 -59q57 -58 57 -151q0 -97 -58 -159q-57 -64 -155 -64q-95 0 -150.5 51.5t-55.5 145.5h66q1 -67 38 -101t102 -34q67 0 106 43.5t39 115.5q0 69 -39 110t-107 41q-73 0 -127 -36h-58v357z" />
    <glyph glyph-name="six.tnum" horiz-adv-x="538" 
d="M287 693q82 0 134.5 -49t56.5 -132h-67q-14 119 -126 119q-81 0 -121 -71.5t-42 -225.5q20 39 65 64q47 26 98 26q96 0 152 -62q57 -62 57 -153q0 -95 -58 -159q-58 -63 -154 -63t-159 68q-68 74 -68 265q0 186 56.5 279.5t175.5 93.5zM281 363q-61 0 -106 -45
q-44 -44 -44 -109q0 -63 42 -112t108 -49q65 0 105 45q40 46 40 115q0 66 -40 110q-40 45 -105 45z" />
    <glyph glyph-name="seven.tnum" horiz-adv-x="476" 
d="M40 540h407v-54l-295 -626h-72l291 617h-331v63z" />
    <glyph glyph-name="eight.tnum" horiz-adv-x="540" 
d="M270 693q86 0 139 -54q54 -53 54 -133q0 -57 -27.5 -98t-64.5 -57q114 -49 114 -169q0 -85 -61 -140q-59 -55 -154 -55q-94 0 -155 55t-61 140q0 61 31.5 105.5t82.5 63.5q-38 17 -64.5 58t-26.5 97q0 80 53 133q52 54 140 54zM270 48q62 0 105 36q43 37 43 99
q0 61 -44 99t-104 38q-61 0 -105 -38q-43 -37 -43 -99q0 -61 42 -98t106 -37zM270 631q-57 0 -92 -34.5t-35 -91.5q0 -56 35 -89.5t92 -33.5t91.5 33.5t34.5 89.5t-35.5 91t-90.5 35z" />
    <glyph glyph-name="nine.tnum" horiz-adv-x="538" 
d="M250 -153q-82 0 -134.5 49t-56.5 132h67q14 -119 126 -119q81 0 121 71.5t42 224.5q-20 -39 -66 -64q-44 -25 -97 -25q-96 0 -153 61q-56 62 -56 154q0 96 58 158q58 64 154 64t159 -68q68 -74 68 -265q0 -186 -56.5 -279.5t-175.5 -93.5zM256 177q62 0 105 43t45 107v4
q0 61 -42 111t-108 50q-65 0 -105 -46q-40 -44 -40 -114q0 -66 40 -110q41 -45 105 -45z" />
    <glyph glyph-name="zero.dnom" horiz-adv-x="364" 
d="M181 399q68 0 105 -53.5t37 -148.5q0 -96 -37 -150t-105 -54q-66 0 -103 54t-37 150q0 94 37 148t103 54zM181 348q-41 0 -62.5 -39.5t-21.5 -111.5q0 -73 21.5 -113t62.5 -40q42 0 64 40t22 113q0 72 -22 111.5t-64 39.5z" />
    <glyph glyph-name="one.dnom" horiz-adv-x="234" 
d="M132 392h42v-392h-55v301h-88v42q49 0 71.5 11t29.5 38z" />
    <glyph glyph-name="two.dnom" horiz-adv-x="320" 
d="M161 399q57 0 88 -29t31 -80q0 -54 -51 -114l-107 -124h164v-52h-240v40l135 156q43 49 43 91q0 61 -64 61q-29 0 -47 -18.5t-18 -52.5h-55q0 56 33.5 89t87.5 33z" />
    <glyph glyph-name="three.dnom" horiz-adv-x="347" 
d="M171 399q54 0 86.5 -31t32.5 -79q0 -66 -59 -86q32 -9 52.5 -33.5t20.5 -61.5q0 -52 -36 -83.5t-94 -31.5q-62 0 -97.5 31.5t-35.5 88.5h55q0 -34 21 -52t58 -18q33 0 53.5 18.5t20.5 48.5q0 69 -99 69h-15v47h14q85 0 85 61q0 28 -16.5 44.5t-46.5 16.5t-48 -17.5
t-18 -49.5h-55q0 55 32.5 86.5t88.5 31.5z" />
    <glyph glyph-name="four.dnom" horiz-adv-x="354" 
d="M199 392h64v-264h58v-49h-58v-79h-55v79h-177v44zM208 128v188l-13 -24l-104 -164h117z" />
    <glyph glyph-name="five.dnom" horiz-adv-x="348" 
d="M63 392h227v-52h-172v-111q28 15 69 15q57 0 90.5 -32t33.5 -88q0 -58 -36 -94.5t-95 -36.5q-60 0 -94.5 30t-34.5 85h55q0 -64 74 -64q36 0 56.5 21t20.5 57q0 34 -20.5 55t-56.5 21q-40 0 -68 -18h-49v212z" />
    <glyph glyph-name="six.dnom" horiz-adv-x="353" 
d="M184 399q51 0 84.5 -29.5t35.5 -79.5h-55q-6 58 -67 58q-85 0 -86 -148q12 18 37.5 29.5t54.5 11.5q56 0 90.5 -34t34.5 -87q0 -57 -36 -92t-96 -35q-61 0 -98 40q-43 43 -43 153q0 213 144 213zM180 192q-31 0 -54.5 -20t-24.5 -49v-3q0 -31 22.5 -54t56.5 -23
t55.5 21.5t21.5 54.5q0 31 -22 52t-55 21z" />
    <glyph glyph-name="seven.dnom" horiz-adv-x="305" 
d="M24 392h251v-44l-169 -348h-60l165 339h-187v53z" />
    <glyph glyph-name="eight.dnom" horiz-adv-x="348" 
d="M295 288q0 -31 -14.5 -53.5t-36.5 -32.5q64 -30 64 -94q0 -50 -38.5 -82.5t-95.5 -32.5t-95.5 32.5t-38.5 82.5q0 67 64 94q-21 10 -36 33t-15 53q0 48 33.5 79.5t87.5 31.5t87.5 -31.5t33.5 -79.5zM174 43q34 0 56.5 18.5t22.5 48.5t-23 49.5t-56 19.5t-55.5 -19.5
t-22.5 -49.5t22.5 -48.5t55.5 -18.5zM222 332q-18 17 -48 17t-48 -17t-18 -45t18 -45q19 -17 48 -17t48 17t19 45t-19 45z" />
    <glyph glyph-name="nine.dnom" horiz-adv-x="353" 
d="M171 399q62 0 100 -38q42 -43 42 -155q0 -213 -145 -213q-51 0 -84 29.5t-35 79.5h55q7 -58 66 -58q85 0 87 149q-30 -40 -92 -40q-56 0 -90.5 33.5t-34.5 85.5q0 57 36 92t95 35zM172 198q32 0 55.5 21t24.5 51v2q0 31 -23 54t-57 23q-33 0 -54.5 -22t-21.5 -55
q0 -31 21.5 -52.5t54.5 -21.5z" />
    <glyph glyph-name="zero.subs" horiz-adv-x="364" 
d="M181 299q68 0 105 -53.5t37 -148.5q0 -96 -37 -150t-105 -54q-66 0 -103 54t-37 150q0 94 37 148t103 54zM181 248q-41 0 -62.5 -39.5t-21.5 -111.5q0 -73 21.5 -113t62.5 -40q42 0 64 40t22 113q0 72 -22 111.5t-64 39.5z" />
    <glyph glyph-name="one.subs" horiz-adv-x="234" 
d="M132 292h42v-392h-55v301h-88v42q49 0 71.5 11t29.5 38z" />
    <glyph glyph-name="two.subs" horiz-adv-x="320" 
d="M161 299q57 0 88 -29t31 -80q0 -54 -51 -114l-107 -124h164v-52h-240v40l135 156q43 49 43 91q0 61 -64 61q-29 0 -47 -18.5t-18 -52.5h-55q0 56 33.5 89t87.5 33z" />
    <glyph glyph-name="three.subs" horiz-adv-x="347" 
d="M171 299q54 0 86.5 -31t32.5 -79q0 -66 -59 -86q32 -9 52.5 -33.5t20.5 -61.5q0 -52 -36 -83.5t-94 -31.5q-62 0 -97.5 31.5t-35.5 88.5h55q0 -34 21 -52t58 -18q33 0 53.5 18.5t20.5 48.5q0 69 -99 69h-15v47h14q85 0 85 61q0 28 -16.5 44.5t-46.5 16.5t-48 -17.5
t-18 -49.5h-55q0 55 32.5 86.5t88.5 31.5z" />
    <glyph glyph-name="four.subs" horiz-adv-x="354" 
d="M199 292h64v-264h58v-49h-58v-79h-55v79h-177v44zM208 28v188l-13 -24l-104 -164h117z" />
    <glyph glyph-name="five.subs" horiz-adv-x="348" 
d="M63 292h227v-52h-172v-111q28 15 69 15q57 0 90.5 -32t33.5 -88q0 -58 -36 -94.5t-95 -36.5q-60 0 -94.5 30t-34.5 85h55q0 -64 74 -64q36 0 56.5 21t20.5 57q0 34 -20.5 55t-56.5 21q-40 0 -68 -18h-49v212z" />
    <glyph glyph-name="six.subs" horiz-adv-x="353" 
d="M184 299q51 0 84.5 -29.5t35.5 -79.5h-55q-6 58 -67 58q-85 0 -86 -148q12 18 37.5 29.5t54.5 11.5q56 0 90.5 -34t34.5 -87q0 -57 -36 -92t-96 -35q-61 0 -98 40q-43 43 -43 153q0 213 144 213zM180 92q-31 0 -54.5 -20t-24.5 -49v-3q0 -31 22.5 -54t56.5 -23t55.5 21.5
t21.5 54.5q0 31 -22 52t-55 21z" />
    <glyph glyph-name="seven.subs" horiz-adv-x="305" 
d="M24 292h251v-44l-169 -348h-60l165 339h-187v53z" />
    <glyph glyph-name="eight.subs" horiz-adv-x="348" 
d="M295 188q0 -31 -14.5 -53.5t-36.5 -32.5q64 -30 64 -94q0 -50 -38.5 -82.5t-95.5 -32.5t-95.5 32.5t-38.5 82.5q0 67 64 94q-21 10 -36 33t-15 53q0 48 33.5 79.5t87.5 31.5t87.5 -31.5t33.5 -79.5zM174 -57q34 0 56.5 18.5t22.5 48.5t-23 49.5t-56 19.5t-55.5 -19.5
t-22.5 -49.5t22.5 -48.5t55.5 -18.5zM222 232q-18 17 -48 17t-48 -17t-18 -45t18 -45q19 -17 48 -17t48 17t19 45t-19 45z" />
    <glyph glyph-name="nine.subs" horiz-adv-x="353" 
d="M171 299q62 0 100 -38q42 -43 42 -155q0 -213 -145 -213q-51 0 -84 29.5t-35 79.5h55q7 -58 66 -58q85 0 87 149q-30 -40 -92 -40q-56 0 -90.5 33.5t-34.5 85.5q0 57 36 92t95 35zM172 98q32 0 55.5 21t24.5 51v2q0 31 -23 54t-57 23q-33 0 -54.5 -22t-21.5 -55
q0 -31 21.5 -52.5t54.5 -21.5z" />
    <glyph glyph-name="zero.numr" horiz-adv-x="364" 
d="M181 707q68 0 105 -53.5t37 -148.5q0 -96 -37 -150t-105 -54q-66 0 -103 54t-37 150q0 94 37 148t103 54zM181 656q-41 0 -62.5 -39.5t-21.5 -111.5q0 -73 21.5 -113t62.5 -40q42 0 64 40t22 113q0 72 -22 111.5t-64 39.5z" />
    <glyph glyph-name="one.numr" horiz-adv-x="234" 
d="M132 700h42v-392h-55v301h-88v42q49 0 71.5 11t29.5 38z" />
    <glyph glyph-name="two.numr" horiz-adv-x="320" 
d="M161 707q57 0 88 -29t31 -80q0 -54 -51 -114l-107 -124h164v-52h-240v40l135 156q43 49 43 91q0 61 -64 61q-29 0 -47 -18.5t-18 -52.5h-55q0 56 33.5 89t87.5 33z" />
    <glyph glyph-name="three.numr" horiz-adv-x="347" 
d="M171 707q54 0 86.5 -31t32.5 -79q0 -66 -59 -86q32 -9 52.5 -33.5t20.5 -61.5q0 -52 -36 -83.5t-94 -31.5q-62 0 -97.5 31.5t-35.5 88.5h55q0 -34 21 -52t58 -18q33 0 53.5 18.5t20.5 48.5q0 69 -99 69h-15v47h14q85 0 85 61q0 28 -16.5 44.5t-46.5 16.5t-48 -17.5
t-18 -49.5h-55q0 55 32.5 86.5t88.5 31.5z" />
    <glyph glyph-name="four.numr" horiz-adv-x="354" 
d="M199 700h64v-264h58v-49h-58v-79h-55v79h-177v44zM208 436v188l-13 -24l-104 -164h117z" />
    <glyph glyph-name="five.numr" horiz-adv-x="348" 
d="M63 700h227v-52h-172v-111q28 15 69 15q57 0 90.5 -32t33.5 -88q0 -58 -36 -94.5t-95 -36.5q-60 0 -94.5 30t-34.5 85h55q0 -64 74 -64q36 0 56.5 21t20.5 57q0 34 -20.5 55t-56.5 21q-40 0 -68 -18h-49v212z" />
    <glyph glyph-name="six.numr" horiz-adv-x="353" 
d="M184 707q51 0 84.5 -29.5t35.5 -79.5h-55q-6 58 -67 58q-85 0 -86 -148q12 18 37.5 29.5t54.5 11.5q56 0 90.5 -34t34.5 -87q0 -57 -36 -92t-96 -35q-61 0 -98 40q-43 43 -43 153q0 213 144 213zM180 500q-31 0 -54.5 -20t-24.5 -49v-3q0 -31 22.5 -54t56.5 -23
t55.5 21.5t21.5 54.5q0 31 -22 52t-55 21z" />
    <glyph glyph-name="seven.numr" horiz-adv-x="305" 
d="M24 700h251v-44l-169 -348h-60l165 339h-187v53z" />
    <glyph glyph-name="eight.numr" horiz-adv-x="348" 
d="M295 596q0 -31 -14.5 -53.5t-36.5 -32.5q64 -30 64 -94q0 -50 -38.5 -82.5t-95.5 -32.5t-95.5 32.5t-38.5 82.5q0 67 64 94q-21 10 -36 33t-15 53q0 48 33.5 79.5t87.5 31.5t87.5 -31.5t33.5 -79.5zM174 351q34 0 56.5 18.5t22.5 48.5t-23 49.5t-56 19.5t-55.5 -19.5
t-22.5 -49.5t22.5 -48.5t55.5 -18.5zM222 640q-18 17 -48 17t-48 -17t-18 -45t18 -45q19 -17 48 -17t48 17t19 45t-19 45z" />
    <glyph glyph-name="nine.numr" horiz-adv-x="353" 
d="M171 707q62 0 100 -38q42 -43 42 -155q0 -213 -145 -213q-51 0 -84 29.5t-35 79.5h55q7 -58 66 -58q85 0 87 149q-30 -40 -92 -40q-56 0 -90.5 33.5t-34.5 85.5q0 57 36 92t95 35zM172 506q32 0 55.5 21t24.5 51v2q0 31 -23 54t-57 23q-33 0 -54.5 -22t-21.5 -55
q0 -31 21.5 -52.5t54.5 -21.5z" />
    <glyph glyph-name="zero.lnum" horiz-adv-x="575" 
d="M59 351q0 167 60 264q60 98 169 98t168 -98q60 -97 60 -264t-60 -266q-59 -98 -168 -98t-169 98q-60 99 -60 266zM126 351q0 -142 42.5 -222t119.5 -80t119 80t42 222q0 140 -42 220t-119 80t-119.5 -80t-42.5 -220z" />
    <glyph glyph-name="one.lnum" horiz-adv-x="575" 
d="M301 700h53v-641h138v-59h-342v59h138v505h-147v56q83 0 115 16q33 17 45 64z" />
    <glyph glyph-name="two.lnum" horiz-adv-x="575" 
d="M293 713q90 0 138.5 -50t48.5 -139q0 -97 -83 -206l-197 -256h298v-62h-388v49l231 299q40 52 56 90.5t16 83.5q0 129 -121 129q-56 0 -90.5 -38.5t-34.5 -108.5h-66q-1 95 52 152t140 57z" />
    <glyph glyph-name="three.lnum" horiz-adv-x="575" 
d="M480 520q0 -61 -29 -102t-74 -56q54 -13 90.5 -61.5t36.5 -115.5q0 -87 -58 -142q-59 -56 -150 -56q-99 0 -157 55.5t-58 151.5h66q0 -71 40.5 -108t109.5 -37q63 0 101.5 37t38.5 100q0 71 -49 108.5t-140 37.5h-14v60h13q86 0 126 30.5t40 96.5q0 62 -31.5 97t-89.5 35
t-93 -37t-35 -106h-65q0 94 52 149.5t140 55.5q89 0 138 -55q51 -54 51 -138z" />
    <glyph glyph-name="four.lnum" horiz-adv-x="575" 
d="M344 700h71v-486h103v-61h-103v-153h-66v153h-293v54zM349 214v378l-24 -45l-195 -333h219z" />
    <glyph glyph-name="five.lnum" horiz-adv-x="575" 
d="M112 700h361v-62h-294v-238q47 30 124 30q95 0 151 -60q57 -58 57 -155q0 -99 -58 -163q-57 -65 -155 -65q-95 0 -150.5 51.5t-55.5 145.5h66q1 -67 38 -101t102 -34q68 0 106.5 44.5t38.5 119.5q0 71 -39 113t-107 42q-71 0 -127 -35h-58v367z" />
    <glyph glyph-name="six.lnum" horiz-adv-x="575" 
d="M305 713q80 0 133 -50t57 -133h-66q-13 121 -126 121q-82 0 -122 -76t-41 -237q21 37 66 61.5t95 24.5q98 0 153 -61q57 -61 57 -154q0 -95 -58 -159q-57 -63 -153 -63q-97 0 -159 68q-68 76 -68 275q0 192 56.5 287.5t175.5 95.5zM299 363q-61 0 -105 -44t-45 -106v-4
q0 -63 42 -112t108 -49q63 0 104 45q41 47 41 115q0 64 -41 110q-40 45 -104 45z" />
    <glyph glyph-name="seven.lnum" horiz-adv-x="575" 
d="M86 700h411v-54l-295 -646h-72l291 637h-335v63z" />
    <glyph glyph-name="eight.lnum" horiz-adv-x="575" 
d="M480 521q0 -59 -27 -102t-65 -58q50 -21 83 -65t33 -108q0 -87 -62 -144t-155 -57t-155 57t-62 144q0 63 32.5 110t82.5 63q-38 16 -64.5 58.5t-26.5 101.5q0 81 53 137q52 55 140 55t140 -55q53 -56 53 -137zM287 48q61 0 105 38q44 39 44 103t-44 103t-105 39t-106 -39
q-44 -39 -44 -103t44 -103q44 -38 106 -38zM287 652q-56 0 -91.5 -36.5t-35.5 -95.5q0 -58 35 -93t92 -35t92 35t35 93q0 59 -36 95.5t-91 36.5z" />
    <glyph glyph-name="nine.lnum" horiz-adv-x="575" 
d="M270 -13q-81 0 -133 49t-57 134h66q13 -121 126 -121q82 0 122 75.5t41 236.5q-21 -37 -66 -61t-95 -24q-97 0 -154 61q-56 62 -56 154q0 95 57 158q58 64 154 64q97 0 159 -68q68 -76 68 -275q0 -192 -56.5 -287.5t-175.5 -95.5zM276 337q61 0 104 43q45 45 46 106v5
q0 61 -42 111t-108 50q-65 0 -105 -46q-40 -44 -40 -114q0 -66 40 -110q41 -45 105 -45z" />
    <glyph glyph-name="b.sups" horiz-adv-x="446" 
d="M68 855h53v-208q16 26 48 43.5t73 17.5q74 0 119 -51q46 -49 46 -128q0 -77 -45 -127t-120 -50q-82 0 -123 63l-3 -56h-48v496zM234 658q-48 0 -80 -32.5t-33 -87.5v-19q0 -53 32.5 -85.5t81.5 -32.5q53 0 84.5 35.5t31.5 92.5t-32.5 93t-84.5 36z" />
    <glyph glyph-name="c.sups" horiz-adv-x="407" 
d="M209 708q60 0 101 -29t54 -82h-53q-23 62 -101 62q-50 0 -83 -37t-33 -93q0 -55 33 -91.5t83 -36.5q35 0 62.5 17t37.5 45h55q-14 -53 -56 -82t-100 -29q-72 0 -122 50q-48 50 -48 127t48 128q49 51 122 51z" />
    <glyph glyph-name="d.sups" horiz-adv-x="446" 
d="M325 855h53v-496h-49l-2 56q-43 -63 -124 -63q-74 0 -119 50t-45 127q0 79 45 128q46 51 120 51q82 0 121 -61v208zM211 658q-52 0 -84.5 -36.5t-32.5 -92.5q0 -57 31.5 -92.5t84.5 -35.5q49 0 82 32.5t33 85.5v19q-1 55 -33 87.5t-81 32.5z" />
    <glyph glyph-name="e.sups" horiz-adv-x="414" 
d="M205 708q74 0 118.5 -45.5t44.5 -126.5v-25h-274q1 -50 33.5 -80t81.5 -30q78 0 99 58h55q-15 -51 -55.5 -79t-100.5 -28q-75 0 -121.5 48.5t-46.5 128.5q0 79 46 128q47 51 120 51zM204 659q-45 0 -75.5 -29t-34.5 -75h218q0 49 -29 76.5t-79 27.5z" />
    <glyph glyph-name="f.sups" horiz-adv-x="256" 
d="M189 860q30 0 48 -8v-48q-21 8 -44 8q-51 0 -51 -56v-55h90v-48h-90v-294h-54v294h-64v48h64v56q0 49 26.5 76t74.5 27z" />
    <glyph glyph-name="g.sups" horiz-adv-x="392" 
d="M243 701h127v-48h-59q20 -29 20 -66q0 -52 -38.5 -86.5t-98.5 -34.5q-45 0 -81 21q-16 -13 -16 -38q0 -39 47 -39h99q54 0 83.5 -25t29.5 -68q0 -53 -40 -82.5t-109 -29.5q-75 0 -115.5 26.5t-40.5 76.5t39 69q-45 21 -45 69q0 43 35 69q-24 31 -24 72q0 53 38.5 87
t99.5 34q25 0 49 -7zM109 587q0 -34 23.5 -56.5t61.5 -22.5t61.5 22.5t23.5 56.5q0 35 -23.5 57t-61.5 22t-61.5 -22t-23.5 -57zM234 368h-76q-23 -2 -38.5 -17.5t-15.5 -39.5q0 -63 104 -63q95 0 95 66q0 25 -18.5 39.5t-50.5 14.5z" />
    <glyph glyph-name="h.sups" horiz-adv-x="405" 
d="M68 855h53v-203q12 24 40.5 40t62.5 16q56 0 87 -34.5t31 -93.5v-221h-54v212q0 41 -20 63.5t-56 22.5q-39 0 -65 -29.5t-26 -77.5v-191h-53v496z" />
    <glyph glyph-name="i.sups" horiz-adv-x="195" 
d="M70 701h54v-342h-54v342zM70 835q15 17 37 9.5t27.5 -26.5t-10.5 -37q-16 -17 -37 -9.5t-26.5 26.5t9.5 37z" />
    <glyph glyph-name="j.sups" horiz-adv-x="195" 
d="M70 701h54v-383q0 -113 -102 -113q-18 0 -43 5v50q18 -6 37 -6q29 0 41.5 16t12.5 49v382zM98 846q15 0 26.5 -11t11.5 -27t-11.5 -27t-26.5 -11q-24 -1 -33.5 18.5t0 39t33.5 18.5z" />
    <glyph glyph-name="k.sups" horiz-adv-x="372" 
d="M74 855h53v-318l138 164h65l-116 -141l135 -201h-61l-111 159l-50 -59v-100h-53v496z" />
    <glyph glyph-name="l.sups" horiz-adv-x="196" 
d="M71 855h54v-496h-54v496z" />
    <glyph glyph-name="m.sups" horiz-adv-x="620" 
d="M442 708q54 0 84.5 -34.5t30.5 -93.5v-221h-53v212q0 41 -20 63.5t-54 22.5q-39 0 -64 -27.5t-26 -74.5v-196h-54v212q0 42 -19.5 64t-55.5 22q-39 0 -64.5 -29.5t-25.5 -77.5v-191h-53v342h48l3 -53q12 26 40 43t64 17q79 0 107 -70q12 31 42.5 50.5t69.5 19.5z" />
    <glyph glyph-name="o.sups" horiz-adv-x="433" 
d="M394 529q0 -77 -50 -127t-128 -50t-128 50q-49 49 -49 127q0 80 49 129q50 50 128 50t128 -50t50 -129zM217 659q-54 0 -88.5 -36t-34.5 -93t34.5 -93t88.5 -36q53 0 87.5 37t34.5 92q0 56 -34 92.5t-88 36.5z" />
    <glyph glyph-name="p.sups" horiz-adv-x="452" 
d="M249 708q74 0 119 -50t45 -128t-46 -128q-45 -50 -119 -50q-41 0 -73 17.5t-47 43.5v-200h-54v488h49l2 -56q42 63 124 63zM242 659q-49 0 -82 -32t-33 -85v-19q1 -55 33.5 -88t80.5 -33q52 0 84.5 36t32.5 92q0 58 -31.5 93.5t-84.5 35.5z" />
    <glyph glyph-name="q.sups" horiz-adv-x="452" 
d="M203 708q82 0 124 -63l2 56h49v-488h-53v200q-39 -61 -121 -61q-73 0 -120 50q-45 51 -45 128q0 78 45 128t119 50zM210 659q-53 0 -84.5 -35.5t-31.5 -93.5q0 -56 32.5 -92t84.5 -36q48 0 80.5 33t33.5 88v19q0 53 -33 85t-82 32z" />
    <glyph glyph-name="r.sups" horiz-adv-x="264" 
d="M233 704v-52q-46 0 -73 -27q-33 -30 -33 -83v-183h-53v342h48l3 -58q12 27 40 44t68 17z" />
    <glyph glyph-name="s.sups" horiz-adv-x="343" 
d="M170 708q53 0 85 -27.5t32 -74.5l-55 -1q0 54 -64 54q-61 0 -61 -47q0 -24 14.5 -34.5t61.5 -21.5q61 -14 88.5 -38t27.5 -63q0 -48 -35 -75.5t-91 -27.5q-59 0 -94 29.5t-36 77.5h55q0 -58 77 -58q33 0 51.5 14t18.5 38q0 23 -18 35.5t-66 23.5q-57 15 -83 37t-26 61
q0 44 31.5 71t86.5 27z" />
    <glyph glyph-name="t.sups" horiz-adv-x="269" 
d="M88 787h53l-1 -86h93v-50h-93l-1 -191q0 -32 10.5 -44.5t39.5 -12.5q21 0 44 6v-47q-24 -8 -51 -8q-97 0 -96 97l1 200h-68v50h68z" />
    <glyph glyph-name="u.sups" horiz-adv-x="401" 
d="M279 701h54v-342h-49l-2 51q-12 -24 -40.5 -41t-63.5 -17q-54 0 -84.5 34.5t-30.5 93.5v221h53v-213q0 -41 19.5 -63t55.5 -22q38 0 63 29t25 76v193z" />
    <glyph glyph-name="v.sups" horiz-adv-x="377" 
d="M294 701h58l-137 -342h-53l-136 342h57l98 -251l7 -26l8 26z" />
    <glyph glyph-name="w.sups" horiz-adv-x="563" 
d="M480 701h57l-112 -342h-54l-90 252l-90 -252h-52l-113 342h56l78 -245l8 -30l8 30l83 245h45l84 -245l7 -30l8 30z" />
    <glyph glyph-name="x.sups" horiz-adv-x="382" 
d="M279 701h63l-116 -165l125 -177h-63l-97 134l-97 -134h-63l125 177l-116 165h63l88 -123z" />
    <glyph glyph-name="y.sups" horiz-adv-x="378" 
d="M294 701h58l-195 -488h-57l60 151l-134 337h57l98 -251l7 -26l8 26z" />
    <glyph glyph-name="z.sups" horiz-adv-x="346" 
d="M41 701h263v-41l-194 -253h206v-48h-277v41l194 253h-192v48z" />
    <glyph glyph-name="a.sups" horiz-adv-x="377" 
d="M187 708q61 0 94.5 -31t33.5 -90v-228h-49l-2 48q-36 -55 -111 -55q-48 0 -76 25t-28 67q0 78 100 97l112 22v22q0 75 -74 75q-35 0 -55 -17.5t-20 -49.5h-54q2 52 37 83.5t92 31.5zM261 492v28l-101 -21q-57 -11 -57 -52q0 -22 15.5 -35.5t42.5 -13.5q49 0 78 35
q22 26 22 59z" />
    <glyph glyph-name="g.alt.sups" horiz-adv-x="450" 
d="M209 658q-52 0 -83.5 -35t-31.5 -91t32 -91t83 -35q48 0 81 32.5t33 85.5v19q0 53 -32.5 84t-81.5 31zM202 708q81 0 123 -63l2 56h49v-337q0 -72 -44.5 -115.5t-120.5 -43.5q-135 0 -160 117h54q18 -68 106 -68q53 0 82.5 28.5t29.5 80.5v53q-39 -61 -121 -61
q-73 0 -118 50q-45 49 -45 127q0 79 44.5 127.5t118.5 48.5z" />
    <glyph glyph-name="a.alt.sups" horiz-adv-x="446" 
d="M204 708q82 0 123 -63l2 56h49v-342h-49l-2 56q-41 -63 -124 -63q-74 0 -119 50q-45 51 -45 128q0 78 45 127q46 51 120 51zM211 659q-52 0 -84.5 -36.5t-32.5 -92.5q0 -57 32.5 -93t83.5 -36q49 0 82 32.5t33 85.5v19q0 55 -32.5 88t-81.5 33z" />
    <glyph glyph-name="g_i.alt" horiz-adv-x="578" 
d="M290 741q116 0 186 -75q72 -75 72 -190q0 -114 -72 -190q-70 -75 -186 -75t-188 75q-72 76 -72 190q0 115 72 190t188 75zM290 693q-93 0 -152 -62q-57 -61 -57 -155t57 -156q58 -61 152 -61q93 0 150 61q57 62 57 156t-57 155q-57 62 -150 62z" />
    <glyph glyph-name="zero.slash" horiz-adv-x="549" 
d="M503 351q0 -167 -60 -266q-60 -98 -168 -98q-109 0 -169 98q-59 100 -59 266t59 264q60 98 169 98t168 -98q60 -97 60 -264zM435 351q0 113 -29 191l-234 -439q40 -54 103 -54q77 0 118.5 80t41.5 222zM275 651q-78 0 -119.5 -79t-41.5 -221q0 -121 28 -193l235 439
q-39 54 -102 54z" />
    <glyph glyph-name="L_a_r_s_s_e_i_t" horiz-adv-x="2948" 
d="M2105 513q104 0 166 -66.5t62 -184.5v-35h-399q4 -81 52.5 -130t121.5 -49q118 0 154 94h65q-23 -73 -80 -113t-140 -40q-103 0 -171 72q-66 72 -66 189q0 116 64 189q65 74 171 74zM1561 732v-61q-60 0 -89.5 -31.5t-29.5 -100.5v-37h332v-51l-167 -242q102 -8 158 -68
q57 -61 57 -143q0 -102 -60.5 -160t-173.5 -58q-37 0 -82 8l6 64q46 -11 72 -11q84 0 128.5 40t44.5 117q0 71 -50 112t-132 41h-47v41l171 251h-257v-443h-65v539q0 193 184 193zM731 513q83 0 127.5 -46.5t44.5 -131.5v-335h-60l-2 73q-21 -37 -63.5 -60.5t-95.5 -23.5
q-65 0 -103.5 37t-38.5 97q0 115 136 143l163 34v33q0 121 -108 121q-52 0 -83 -28t-31 -80h-63q2 73 49 119q49 48 128 48zM81 700h66v-638h323v-62h-389v700zM2720 630h63l-1 -128h136v-59h-137l-2 -305q0 -47 16 -67t59 -20q34 0 64 10v-57q-27 -11 -71 -11q-67 0 -99 33
t-31 104l2 313h-100v59h100zM2105 454q-71 0 -118 -47t-53 -123h335q0 79 -44.5 124.5t-119.5 45.5zM1269 507v-62q-61 0 -102 -41q-48 -46 -48 -132v-272h-63v502h59l2 -91q16 42 55.5 69t96.5 27zM839 201v42l-151 -33q-43 -10 -63.5 -29.5t-20.5 -56.5q0 -36 22.5 -56
t63.5 -20q72 0 116 54q33 44 33 99zM2466 502h63v-502h-63v502zM2498 710q20 0 34.5 -14.5t14.5 -34.5t-14.5 -34t-34.5 -14q-21 0 -35 14t-14 34t14 34.5t35 14.5z" />
    <glyph glyph-name="A.smcp" horiz-adv-x="557" 
d="M246 539h65l227 -539h-71l-63 148h-251l-62 -148h-71zM289 425l-11 30l-10 -30l-94 -219h209z" />
    <glyph glyph-name="B.smcp" horiz-adv-x="475" 
d="M78 539h150q81 0 127.5 -39t46.5 -106q0 -70 -62 -111q46 -15 71.5 -49.5t25.5 -79.5q0 -70 -49.5 -112t-133.5 -42h-176v539zM254 247h-111v-187h111q55 0 86 25.5t31 69.5q0 42 -31.5 67t-85.5 25zM228 479h-85v-175h90q47 0 75.5 24t28.5 63q0 41 -29.5 64.5
t-79.5 23.5z" />
    <glyph glyph-name="C.smcp" horiz-adv-x="590" 
d="M317 549q92 0 154 -44t86 -124h-72q-39 108 -168 108q-91 0 -148 -62q-56 -62 -56 -157q0 -94 56 -158q57 -62 148 -62q130 0 171 110h70q-50 -170 -241 -170q-120 0 -195 79t-75 201q0 120 75 200q75 79 195 79z" />
    <glyph glyph-name="D.smcp" horiz-adv-x="607" 
d="M78 539h199q129 0 206 -74t77 -195q0 -123 -77 -197q-76 -73 -206 -73h-199v539zM277 478h-134v-417h134q102 0 160 55.5t58 153.5q0 97 -58.5 152.5t-159.5 55.5z" />
    <glyph glyph-name="E.smcp" horiz-adv-x="434" 
d="M78 539h305v-61h-240v-170h212v-61h-212v-186h240v-61h-305v539z" />
    <glyph glyph-name="F.smcp" horiz-adv-x="410" 
d="M78 539h298v-61h-233v-178h197v-60h-197v-240h-65v539z" />
    <glyph glyph-name="G.smcp" horiz-adv-x="617" 
d="M320 549q94 0 156.5 -44t86.5 -124h-72q-41 108 -172 108q-90 0 -149 -62q-57 -61 -57 -157t58 -158q59 -62 150 -62q85 0 133 41.5t49 121.5h-172v61h240v-35q0 -117 -66 -183t-184 -66q-122 0 -198 79t-76 201q0 120 76 199q77 80 197 80z" />
    <glyph glyph-name="H.smcp" horiz-adv-x="594" 
d="M451 539h65v-539h-65v248h-308v-248h-65v539h65v-230h308v230z" />
    <glyph glyph-name="I.smcp" horiz-adv-x="220" 
d="M78 539h65v-539h-65v539z" />
    <glyph glyph-name="J.smcp" horiz-adv-x="415" 
d="M280 539h65v-385q0 -77 -40.5 -119.5t-112.5 -42.5q-157 0 -164 169h64q6 -108 99 -108q43 0 66 26.5t23 76.5v383z" />
    <glyph glyph-name="K.smcp" horiz-adv-x="562" 
d="M398 539h79l-189 -238l244 -301h-81l-206 250l-98 -116v-134h-65v539h65v-310z" />
    <glyph glyph-name="L.smcp" horiz-adv-x="418" 
d="M77 539h65v-478h253v-61h-318v539z" />
    <glyph glyph-name="M.smcp" horiz-adv-x="727" 
d="M579 539h70v-539h-65v411l-15 -40l-180 -371h-51l-180 371l-15 40v-411h-65v539h70l199 -403l16 -36l15 36z" />
    <glyph glyph-name="N.smcp" horiz-adv-x="594" 
d="M451 539h65v-539h-62l-289 396l-22 33v-429h-65v539h63l288 -394l22 -35v429z" />
    <glyph glyph-name="O.smcp" horiz-adv-x="650" 
d="M326 549q122 0 199 -80q78 -79 78 -199t-78 -200q-77 -80 -199 -80q-124 0 -202 79q-77 80 -77 201q0 120 77 200q78 79 202 79zM326 489q-95 0 -154 -62t-59 -157q0 -94 59 -158q59 -62 154 -62q92 0 151 62q59 64 59 158q0 95 -59 157t-151 62z" />
    <glyph glyph-name="P.smcp" horiz-adv-x="454" 
d="M78 539h162q81 0 130.5 -45.5t49.5 -118.5q0 -72 -49.5 -117t-130.5 -45h-97v-213h-65v539zM240 478h-97v-204h97q52 0 83.5 27t31.5 74q0 48 -31.5 75.5t-83.5 27.5z" />
    <glyph glyph-name="Q.smcp" horiz-adv-x="650" 
d="M326 549q122 0 199 -80q78 -79 78 -199q0 -74 -30.5 -134.5t-85.5 -97.5l116 -112h-89l-85 82q-53 -18 -103 -18q-124 0 -202 79q-77 80 -77 201q0 120 77 200q78 79 202 79zM326 489q-95 0 -154 -62t-59 -157q0 -94 59 -158q59 -62 154 -62q28 0 53 6l-97 96h89l71 -70
q45 29 69.5 78.5t24.5 109.5q0 95 -59 157t-151 62z" />
    <glyph glyph-name="R.smcp" horiz-adv-x="450" 
d="M78 539h148q83 0 132 -44t49 -118q0 -52 -28.5 -90t-78.5 -55l131 -232h-74l-124 221h-90v-221h-65v539zM226 478h-83v-198h83q54 0 85 26t31 71q0 47 -31.5 74t-84.5 27z" />
    <glyph glyph-name="S.smcp" horiz-adv-x="437" 
d="M219 549q74 0 116.5 -39.5t43.5 -111.5h-65q-1 44 -26.5 68.5t-70.5 24.5q-43 0 -67 -22.5t-24 -63.5q0 -39 24 -59q24 -19 90 -43q86 -32 122 -66t36 -92q0 -71 -47 -113t-124 -42q-85 0 -133.5 45.5t-49.5 122.5h65q1 -54 32 -82.5t87 -28.5q49 0 76.5 25.5t27.5 68.5
q0 35 -27 57t-94 46q-81 29 -115.5 63t-34.5 94q0 65 42.5 106.5t115.5 41.5z" />
    <glyph glyph-name="T.smcp" horiz-adv-x="488" 
d="M9 539h469v-61h-202v-478h-64v478h-203v61z" />
    <glyph glyph-name="U.smcp" horiz-adv-x="577" 
d="M442 539h65v-327q0 -107 -57 -164.5t-161 -57.5q-105 0 -161.5 57t-56.5 165v327h65v-327q0 -162 153 -162t153 162v327z" />
    <glyph glyph-name="V.smcp" horiz-adv-x="551" 
d="M462 539h70l-228 -539h-58l-227 539h69l176 -416l11 -33l11 33z" />
    <glyph glyph-name="W.smcp" horiz-adv-x="798" 
d="M709 539h68l-180 -539h-62l-127 384l-9 36l-9 -36l-127 -384h-61l-181 539h68l136 -399l9 -39l9 39l130 399h53l130 -399l8 -39l11 39z" />
    <glyph glyph-name="X.smcp" horiz-adv-x="558" 
d="M440 539h78l-196 -264l205 -275h-77l-172 226l-170 -226h-77l205 275l-196 264h78l160 -214z" />
    <glyph glyph-name="Y.smcp" horiz-adv-x="546" 
d="M453 539h75l-223 -334v-205h-65v205l-223 334h75l159 -236l22 -36l22 36z" />
    <glyph glyph-name="Z.smcp" horiz-adv-x="482" 
d="M38 539h401v-52l-320 -426h329v-61h-413v52l321 426h-318v61z" />
    <glyph glyph-name="Aringacute.smcp" horiz-adv-x="557" 
d="M246 539h65l227 -539h-71l-63 148h-251l-62 -148h-71zM316 860h98l-101 -83q30 -11 47.5 -36.5t17.5 -58.5q0 -42 -28.5 -70t-73.5 -28t-73.5 28t-28.5 70q0 58 47 87zM289 425l-11 30l-10 -30l-94 -219h209zM221 683q0 -22 16 -38.5t39 -16.5t39 16.5t16 38.5
q0 24 -15.5 39.5t-39.5 15.5t-39.5 -16t-15.5 -39z" />
    <glyph glyph-name="Aogonek.smcp" horiz-adv-x="557" 
d="M246 539h65l227 -539h-18q-60 -30 -60 -84q0 -29 15.5 -45t42.5 -16q25 0 43 9l14 -45q-21 -12 -59 -12q-47 0 -76.5 29.5t-29.5 78.5q0 60 52 97l-58 136h-251l-62 -148h-71zM289 425l-11 30l-10 -30l-94 -219h209z" />
    <glyph glyph-name="AE.smcp" horiz-adv-x="756" 
d="M384 539h322v-61h-241v-170h213v-61h-213v-186h241v-61h-305v148h-206l-106 -148h-75zM401 206v248l-17 -29l-152 -219h169z" />
    <glyph glyph-name="AEacute.smcp" horiz-adv-x="765" 
d="M389 539h322v-61h-241v-170h213v-61h-213v-186h241v-61h-305v148h-206l-106 -148h-75zM406 206v248l-17 -29l-152 -219h169zM571 762h81l-137 -158h-66z" />
    <glyph glyph-name="Ccedilla.smcp" horiz-adv-x="590" 
d="M317 549q92 0 154 -44t86 -124h-72q-39 108 -168 108q-91 0 -148 -62q-56 -62 -56 -157q0 -94 56 -158q57 -62 148 -62q130 0 171 110h70q-47 -164 -229 -170l-11 -43h11q38 0 61.5 -22t23.5 -59q0 -39 -28 -62.5t-71 -23.5q-61 0 -93 38l29 36q24 -29 64 -29
q23 0 37.5 11t14.5 29q0 19 -12.5 29.5t-32.5 10.5q-11 0 -36 -5l-22 7l21 85q-107 11 -173 87q-65 79 -65 191q0 120 75 200q75 79 195 79z" />
    <glyph glyph-name="Dcaron.smcp" horiz-adv-x="610" 
d="M357 698h82l-133 -126h-47l-134 126h82l75 -74zM78 539h199q129 0 206 -74t77 -195q0 -123 -77 -197q-76 -73 -206 -73h-199v539zM277 478h-134v-417h134q102 0 160 55.5t58 153.5q0 97 -58.5 152.5t-159.5 55.5z" />
    <glyph glyph-name="Dcroat.smcp" horiz-adv-x="618" 
d="M89 539h199q129 0 206 -74t77 -195q0 -123 -77 -197q-76 -73 -206 -73h-199v244h-71v50h71v245zM288 478h-134v-184h110v-50h-110v-183h134q102 0 160 55.5t58 153.5q0 97 -58.5 152.5t-159.5 55.5z" />
    <glyph glyph-name="Eogonek.smcp" horiz-adv-x="434" 
d="M78 539h305v-61h-240v-170h212v-61h-212v-186h240v-61h-31q-60 -30 -60 -84q0 -29 15.5 -45t42.5 -16q25 0 43 9l14 -45q-21 -12 -59 -12q-47 0 -76.5 29.5t-29.5 78.5q0 51 37 85h-201v539z" />
    <glyph glyph-name="Gcommaaccent.smcp" horiz-adv-x="612" 
d="M320 549q94 0 156.5 -44t86.5 -124h-72q-41 108 -172 108q-90 0 -149 -62q-57 -61 -57 -157t58 -158q59 -62 150 -62q85 0 133 41.5t49 121.5h-172v61h240v-35q0 -117 -66 -183t-184 -66q-122 0 -198 79t-76 201q0 120 76 199q77 80 197 80zM366 -101q0 -39 -19 -82
t-49 -74l-21 11q29 46 35 99q-21 2 -34.5 15.5t-13.5 34.5q0 22 14.5 36.5t36.5 14.5t36.5 -15.5t14.5 -39.5z" />
    <glyph glyph-name="Hbar.smcp" horiz-adv-x="598" 
d="M452 539h65v-87h64v-47h-64v-405h-65v248h-308v-248h-65v405h-63v47h63v87h65v-87h308v87zM144 405v-96h308v96h-308z" />
    <glyph glyph-name="Kcommaaccent.smcp" horiz-adv-x="562" 
d="M398 539h79l-189 -238l244 -301h-81l-206 250l-98 -116v-134h-65v539h65v-310zM331 -92q0 -39 -19 -82t-49 -74l-21 11q29 46 35 99q-21 2 -34.5 15.5t-13.5 34.5q0 22 14.5 36.5t36.5 14.5t36.5 -15.5t14.5 -39.5z" />
    <glyph glyph-name="Lcaron.smcp" horiz-adv-x="427" 
d="M362 574q22 0 37 -15.5t15 -39.5q0 -88 -68 -168l-23 10q30 51 37 112q-21 2 -34.5 15.5t-13.5 34.5t14.5 36t35.5 15zM77 539h65v-478h253v-61h-318v539z" />
    <glyph glyph-name="Lcommaaccent.smcp" horiz-adv-x="427" 
d="M77 539h65v-478h253v-61h-318v539zM287 -90q0 -39 -19 -82t-49 -74l-21 11q29 46 35 99q-21 2 -34.5 15.5t-13.5 34.5q0 22 14.5 36.5t36.5 14.5t36.5 -15.5t14.5 -39.5z" />
    <glyph glyph-name="Lslash.smcp" horiz-adv-x="427" 
d="M84 539h65v-254l72 31l19 -45l-91 -39v-171h253v-61h-318v204l-61 -26l-18 45l79 34v282z" />
    <glyph glyph-name="Ldot.smcp" horiz-adv-x="419" 
d="M77 539h65v-478h253v-61h-318v539zM326 298q22 0 37.5 -15t15.5 -38t-15 -38.5t-38 -15.5t-38.5 15.5t-15.5 38.5t15.5 38t38.5 15z" />
    <glyph glyph-name="Oslash.smcp" horiz-adv-x="659" 
d="M330 549q62 0 117 -24l37 64l46 -25l-37 -64q114 -81 114 -230q0 -120 -78 -200q-77 -80 -199 -80q-64 0 -119 23l-37 -65l-46 25l38 65q-54 39 -84.5 99.5t-30.5 132.5q0 120 77 200q78 79 202 79zM330 489q-95 0 -154 -62t-59 -157q0 -115 80 -177l219 379
q-40 17 -86 17zM540 270q0 114 -79 175l-219 -379q36 -16 88 -16q92 0 151 62q59 64 59 158z" />
    <glyph glyph-name="OE.smcp" horiz-adv-x="895" 
d="M537 539h305v-61h-240v-170h212v-61h-212v-186h240v-61h-305v91q-77 -101 -213 -101q-122 0 -200 79q-77 80 -77 201q0 120 77 200q76 79 200 79q135 0 213 -101v91zM326 489q-95 0 -154 -62t-59 -157q0 -94 59 -158q59 -62 154 -62q91 0 150 59q58 59 61 151v19
q-3 93 -61 151q-59 59 -150 59z" />
    <glyph glyph-name="Scedilla.smcp" horiz-adv-x="447" 
d="M223 549q74 0 116.5 -39.5t43.5 -111.5h-65q-1 44 -26.5 68.5t-70.5 24.5q-43 0 -67 -22.5t-24 -63.5q0 -39 24 -59q24 -19 90 -43q86 -32 122 -66t36 -92q0 -69 -44 -110.5t-118 -44.5l-11 -43h11q38 0 61.5 -22t23.5 -59q0 -39 -28 -62.5t-71 -23.5q-61 0 -93 38l29 36
q24 -29 64 -29q23 0 37.5 11t14.5 29q0 19 -12.5 29.5t-32.5 10.5q-11 0 -36 -5l-22 7l22 85q-69 9 -108.5 53t-40.5 113h65q1 -54 32 -82.5t87 -28.5q49 0 76.5 25.5t27.5 68.5q0 35 -27 57t-94 46q-81 29 -115.5 63t-34.5 94q0 65 42.5 106.5t115.5 41.5z" />
    <glyph glyph-name="Scommaaccent.smcp" horiz-adv-x="446" 
d="M223 549q74 0 116.5 -39.5t43.5 -111.5h-65q-1 44 -26.5 68.5t-70.5 24.5q-43 0 -67 -22.5t-24 -63.5q0 -39 24 -59q24 -19 90 -43q86 -32 122 -66t36 -92q0 -71 -47 -113t-124 -42q-85 0 -133.5 45.5t-49.5 122.5h65q1 -54 32 -82.5t87 -28.5q49 0 76.5 25.5t27.5 68.5
q0 35 -27 57t-94 46q-81 29 -115.5 63t-34.5 94q0 65 42.5 106.5t115.5 41.5zM275 -95q0 -39 -19 -82t-49 -74l-21 11q29 46 35 99q-21 2 -34.5 15.5t-13.5 34.5q0 22 14.5 36.5t36.5 14.5t36.5 -15.5t14.5 -39.5z" />
    <glyph glyph-name="germandbls.smcp" horiz-adv-x="512" 
d="M273 549q56 0 96 -17t80 -54l-127 -163q69 -5 112 -46.5t43 -106.5q0 -78 -50.5 -122.5t-142.5 -44.5q-41 0 -77 7l4 61q34 -8 71 -8q61 0 95 27t34 78t-41.5 79.5t-114.5 28.5l-15 26l126 165q-33 30 -94 30q-56 0 -92.5 -34.5t-36.5 -93.5v-361h-65v360q0 83 53 136
t142 53z" />
    <glyph glyph-name="Tcommaaccent.smcp" horiz-adv-x="488" 
d="M9 539h469v-61h-202v-478h-64v478h-203v61zM293 -93q0 -39 -19 -82t-49 -74l-21 11q29 46 35 99q-21 2 -34.5 15.5t-13.5 34.5q0 22 14.5 36.5t36.5 14.5t36.5 -15.5t14.5 -39.5z" />
    <glyph glyph-name="Tbar.smcp" horiz-adv-x="488" 
d="M9 539h469v-61h-202v-181h125v-49h-125v-248h-64v248h-126v49h126v181h-203v61z" />
    <glyph glyph-name="Uogonek.smcp" horiz-adv-x="577" 
d="M442 539h65v-327q0 -86 -37 -140.5t-106 -72.5q-45 -28 -45 -76q0 -29 15.5 -45t42.5 -16q25 0 43 9l14 -45q-21 -12 -59 -12q-47 0 -76.5 29.5t-29.5 78.5q0 40 21 68h-1q-105 0 -161.5 57t-56.5 165v327h65v-327q0 -162 153 -162t153 162v327z" />
    <glyph glyph-name="Eng.smcp" horiz-adv-x="594" 
d="M451 539h65v-543q0 -79 -40.5 -120.5t-115.5 -41.5v58q91 0 91 102v10l-286 392l-22 33v-429h-65v539h63l288 -394l22 -35v429z" />
    <glyph glyph-name="Eth.smcp" horiz-adv-x="618" 
d="M89 539h199q129 0 206 -74t77 -195q0 -123 -77 -197q-76 -73 -206 -73h-199v244h-71v50h71v245zM288 478h-134v-184h110v-50h-110v-183h134q102 0 160 55.5t58 153.5q0 97 -58.5 152.5t-159.5 55.5z" />
    <glyph glyph-name="Thorn.smcp" horiz-adv-x="471" 
d="M78 539h65v-86h109q81 0 129 -42t48 -111q0 -70 -48 -111.5t-129 -41.5h-109v-147h-65v539zM252 392h-109v-184h109q51 0 81.5 24.5t30.5 67.5t-30.5 67.5t-81.5 24.5z" />
    <glyph glyph-name="exclam.smcp" horiz-adv-x="220" 
d="M78 539h62v-385h-62v385zM110 83q20 0 33.5 -13.5t13.5 -32.5t-13.5 -32t-33.5 -13q-21 0 -34.5 12.5t-13.5 32.5t13.5 33t34.5 13z" />
    <glyph glyph-name="question.smcp" horiz-adv-x="356" 
d="M175 552q68 0 112 -40t44 -107q0 -43 -19 -79t-46 -56q-65 -47 -65 -87v-29h-62v30q0 59 66 106q67 47 67 113q0 45 -26.5 70.5t-70.5 25.5q-48 0 -74.5 -26.5t-26.5 -74.5h-58q0 72 44 113t115 41zM217 37q0 -19 -13.5 -32t-33.5 -13t-34 13t-14 32t14 32.5t34 13.5
t33.5 -13t13.5 -33z" />
    <glyph glyph-name="parenleft.smcp" 
d="M174 586l43 -32q-57 -69 -81.5 -135t-24.5 -152t24.5 -152t81.5 -135l-43 -31q-63 74 -93 149.5t-30 168.5q0 173 123 319z" />
    <glyph glyph-name="parenright.smcp" 
d="M13 554l44 32q122 -146 122 -319q0 -172 -122 -318l-44 31q56 67 81 133.5t25 153.5t-25 153.5t-81 133.5z" />
    <glyph glyph-name="bracketleft.smcp" horiz-adv-x="240" 
d="M70 571h145v-56h-87v-498h87v-56h-145v610z" />
    <glyph glyph-name="bracketright.smcp" horiz-adv-x="240" 
d="M25 571h146v-610h-146v56h87v498h-87v56z" />
    <glyph glyph-name="braceleft.smcp" horiz-adv-x="231" 
d="M182 571h24v-56h-22q-52 0 -52 -55v-118q0 -59 -47 -76q47 -20 47 -76v-118q0 -55 52 -55h22v-56h-24q-53 0 -80.5 29t-27.5 81v112q0 56 -52 56h-14v54h14q52 0 52 56v112q0 53 27.5 81.5t80.5 28.5z" />
    <glyph glyph-name="braceright.smcp" horiz-adv-x="231" 
d="M25 571h24q53 0 80.5 -29t27.5 -81v-112q0 -56 52 -56h13v-54h-13q-52 0 -52 -56v-112q0 -52 -28 -81t-80 -29h-24v56h22q52 0 52 55v118q0 56 47 76q-47 17 -47 76v118q0 55 -52 55h-22v56z" />
    <glyph glyph-name="Euro.smcp" horiz-adv-x="491" 
d="M151 225h131v-49h-124q28 -126 128 -126q90 0 109 88h69q-19 -75 -62 -111.5t-116 -36.5q-75 0 -126.5 49t-68.5 137h-65v49h58q-1 9 -1 45q0 27 2 47h-59v49h66q18 87 68.5 135t125.5 48q146 0 178 -147h-69q-17 87 -109 87q-98 0 -127 -123h123v-49h-131q-2 -20 -2 -47
t2 -45z" />
    <glyph glyph-name="dollar.smcp" horiz-adv-x="460" 
d="M202 617h50v-70q61 -8 95.5 -46.5t35.5 -102.5h-65q-1 72 -66 89v-187q82 -31 116 -65.5t34 -89.5q0 -66 -40.5 -107t-109.5 -47v-76h-50v77q-72 7 -112.5 51.5t-41.5 114.5h65q1 -94 89 -109v199q-74 28 -105.5 61.5t-31.5 91.5q0 60 36.5 100t100.5 47v69zM336 141
q0 29 -19.5 49.5t-64.5 39.5v-182q39 5 61.5 30.5t22.5 62.5zM130 405q0 -32 16.5 -51t55.5 -35v170q-72 -11 -72 -84z" />
    <glyph glyph-name="cent.smcp" horiz-adv-x="461" 
d="M213 464h50v-70q58 -6 98 -39t53 -86h-61q-22 56 -90 67v-286q69 11 89 68h63q-15 -54 -55 -86.5t-97 -38.5v-70h-50v70q-75 7 -123 63q-47 56 -47 137t47 137q49 57 123 64v70zM106 193q0 -55 30 -94t77 -48v286q-48 -9 -77.5 -48.5t-29.5 -95.5z" />
    <glyph glyph-name="sterling.smcp" horiz-adv-x="431" 
d="M158 283h127v-51h-113q4 -21 4 -39q0 -60 -37 -112l-12 -20h148q73 0 73 71h59q-1 -65 -36 -98.5t-99 -33.5h-234v27l32 43q43 58 43 124q0 23 -4 38h-81v51h65q-31 69 -31 112q0 69 43 111.5t112 42.5q70 0 110 -37.5t42 -108.5h-61q0 42 -23.5 65t-65.5 23
q-43 0 -67.5 -25.5t-24.5 -71.5q0 -27 10 -57q9 -27 21 -54z" />
    <glyph glyph-name="florin.smcp" horiz-adv-x="305" 
d="M258 568q34 0 56 -9l-6 -55q-22 9 -48 9q-58 0 -66 -65l-7 -61h108l-5 -55h-108l-44 -392q-6 -55 -38.5 -84.5t-85.5 -29.5q-34 0 -56 9l6 56q21 -10 48 -10q58 0 66 65l42 386h-78l6 55h78l8 67q7 54 39 84t85 30z" />
    <glyph glyph-name="yen.smcp" horiz-adv-x="559" 
d="M334 235h87v-49h-107v-55h107v-48h-107v-83h-65v83h-105v48h105v55h-105v49h85l-203 304h75l159 -236l22 -36l22 36l158 236h75z" />
    <glyph glyph-name="zero.smcp" horiz-adv-x="471" 
d="M236 549q87 0 136 -74.5t49 -204.5t-49 -205t-136 -75q-88 0 -137 75t-49 205t49 204.5t137 74.5zM236 489q-59 0 -90 -57.5t-31 -161.5t31 -162t90 -58q57 0 88.5 58t31.5 162q0 103 -31.5 161t-88.5 58z" />
    <glyph glyph-name="one.smcp" horiz-adv-x="295" 
d="M167 539h51v-539h-65v419h-117v55q67 0 94.5 13.5t36.5 51.5z" />
    <glyph glyph-name="two.smcp" horiz-adv-x="416" 
d="M211 549q74 0 114 -39t40 -109q0 -77 -67 -157l-149 -183h226v-61h-315v47l182 222q32 39 44.5 67t12.5 62q0 91 -89 91q-43 0 -68 -27t-24 -77h-65q-1 75 42.5 119.5t115.5 44.5z" />
    <glyph glyph-name="three.smcp" horiz-adv-x="452" 
d="M377 399q0 -46 -23 -77t-58 -43q43 -10 71.5 -46t28.5 -87q0 -69 -48 -113q-47 -43 -124 -43q-81 0 -127.5 43t-46.5 120h64q0 -50 30 -76.5t82 -26.5q47 0 75.5 26.5t28.5 70.5q0 50 -36.5 76.5t-103.5 26.5h-15v57h14q63 0 92.5 21.5t29.5 67.5q0 43 -23 68t-67 25
q-43 0 -68 -26t-25 -75h-65q0 74 43 117.5t115 43.5q71 0 113.5 -42t42.5 -108z" />
    <glyph glyph-name="four.smcp" horiz-adv-x="454" 
d="M265 539h71v-367h80v-60h-80v-112h-64v112h-234v52zM273 171v273l-19 -34l-147 -239h166z" />
    <glyph glyph-name="five.smcp" horiz-adv-x="453" 
d="M83 539h296v-61h-232v-165q37 21 95 21q76 0 121.5 -44.5t45.5 -120.5q0 -77 -47 -129q-47 -50 -127 -50q-78 0 -123 40.5t-45 115.5h64q0 -47 27.5 -71.5t76.5 -24.5q50 0 79 32t29 84q0 51 -29 81t-79 30q-61 0 -95 -24h-57v286z" />
    <glyph glyph-name="six.smcp" horiz-adv-x="463" 
d="M245 549q66 0 109.5 -40t47.5 -106h-65q-9 86 -93 86q-122 0 -123 -223q16 27 51.5 45t75.5 18q76 0 121 -46t45 -120q0 -75 -48 -124q-46 -49 -125 -49q-80 0 -130 53q-55 59 -55 212q0 294 189 294zM240 273q-45 0 -78 -30.5t-34 -75.5v-4q0 -46 31 -80t81 -34
q48 0 78.5 32.5t30.5 81.5q0 46 -31 78t-78 32z" />
    <glyph glyph-name="seven.smcp" horiz-adv-x="414" 
d="M45 539h331v-53l-230 -486h-70l226 478h-257v61z" />
    <glyph glyph-name="eight.smcp" horiz-adv-x="463" 
d="M389 398q0 -43 -20.5 -75.5t-49.5 -44.5q89 -41 89 -131q0 -68 -51 -113q-50 -44 -125 -44q-74 0 -126 44q-51 45 -51 113q0 47 25 82.5t63 48.5q-29 13 -49 45t-20 75q0 66 43.5 108.5t114.5 42.5q70 0 113.5 -42.5t43.5 -108.5zM232 249q-47 0 -79 -28t-32 -72
t32 -71.5t79 -27.5t79 27.5t32 71.5t-32.5 72t-78.5 28zM232 489q-42 0 -68 -25.5t-26 -67.5q0 -40 26 -65t68 -25q41 0 67 25t26 65q0 42 -26 67.5t-67 25.5z" />
    <glyph glyph-name="nine.smcp" horiz-adv-x="463" 
d="M220 -10q-66 0 -109.5 40t-47.5 106h65q9 -86 93 -86q61 0 91.5 53.5t31.5 168.5q-18 -27 -53.5 -44.5t-73.5 -17.5q-76 0 -121 46t-45 120t47 124q48 49 126 49q80 0 130 -53q55 -59 55 -212q0 -294 -189 -294zM225 266q46 0 79 32t33 78q0 44 -32 79t-80 35
t-78.5 -32.5t-30.5 -81.5q0 -46 31 -78t78 -32z" />
    <glyph glyph-name="ampersand.smcp" horiz-adv-x="530" 
d="M230 549q61 0 98 -33.5t37 -89.5q0 -55 -37 -89q-20 -18 -33 -27l-42 -26l-2 -1l126 -135q2 9 8 44q4 42 -8 84l60 7q14 -47 9 -97q-4 -43 -24 -85l95 -101h-79l-50 53q-60 -63 -158 -63q-86 0 -137 40t-51 109q0 48 27 82t82 67l11 6l-13 14q-57 62 -57 119
q0 54 37.5 88t100.5 34zM231 42q77 0 119 51l-150 160l-5 -3q-48 -30 -67.5 -52.5t-19.5 -56.5q0 -48 32.5 -73.5t90.5 -25.5zM156 426q-1 -39 44 -89l12 -13l4 2q2 2 12.5 8t12.5 7q21 13 32 23q27 24 27 60q0 33 -18 53t-51 20t-53.5 -19.5t-21.5 -51.5z" />
    <glyph glyph-name="exclamdown.smcp" horiz-adv-x="220" 
d="M141 -2h-62v385h62v-385zM109 454q-20 0 -33.5 13.5t-13.5 32.5t13.5 32t33.5 13q21 0 34.5 -12.5t13.5 -32.5t-13.5 -33t-34.5 -13z" />
    <glyph glyph-name="questiondown.smcp" horiz-adv-x="356" 
d="M176 -9q-68 0 -112 40t-44 107q0 43 19 79t46 55q65 49 65 88v29h62v-30q0 -59 -67 -106q-66 -47 -66 -113q0 -45 26.5 -70.5t70.5 -25.5q48 0 74.5 26.5t26.5 74.5h58q0 -72 -44 -113t-115 -41zM134 506q0 19 13.5 32t33.5 13t34 -13t14 -32t-14 -32.5t-34 -13.5
t-33.5 13t-13.5 33z" />
    <glyph glyph-name="F.smcp_I.smcp" horiz-adv-x="631" 
d="M78 539h298v-61h-233v-178h197v-60h-197v-240h-65v539zM488 539h65v-539h-65v539z" />
    <glyph glyph-name="F.smcp_J.smcp" horiz-adv-x="774" 
d="M638 539h65v-385q0 -77 -40.5 -119.5t-112.5 -42.5q-157 0 -164 169h64q6 -108 99 -108q43 0 66 26.5t23 76.5v383zM78 539h298v-61h-233v-178h197v-60h-197v-240h-65v539z" />
    <glyph glyph-name="Iogonek.smcp" horiz-adv-x="220" 
d="M78 539h65v-539h-23q-60 -30 -60 -84q0 -29 15.5 -45t42.5 -16q25 0 43 9l14 -45q-21 -12 -59 -12q-47 0 -76.5 29.5t-29.5 78.5q0 68 68 107v517z" />
    <glyph glyph-name="Oslashacute.smcp" horiz-adv-x="659" 
d="M330 549q61 0 116 -23l36 63l49 -25l-38 -64q54 -38 84 -98t30 -132q0 -120 -78 -200q-77 -80 -199 -80q-63 0 -118 23l-37 -65l-48 25l38 66q-54 37 -84 97.5t-30 133.5q0 120 77 200q78 79 202 79zM330 489q-95 0 -154 -62t-59 -157q0 -115 79 -176l219 379
q-41 16 -85 16zM540 270q0 110 -78 175l-219 -379q41 -16 87 -16q92 0 151 62q59 64 59 158zM415 755h81l-137 -158h-66z" />
    <glyph glyph-name="Rcommaaccent.smcp" horiz-adv-x="450" 
d="M78 539h148q83 0 132 -44t49 -118q0 -52 -28.5 -90t-78.5 -55l131 -232h-74l-124 221h-90v-221h-65v539zM226 478h-83v-198h83q54 0 85 26t31 71q0 47 -31.5 74t-84.5 27zM300 -90q0 -39 -19 -82t-49 -74l-21 11q29 46 35 99q-21 2 -34.5 15.5t-13.5 34.5q0 22 14.5 36.5
t36.5 14.5t36.5 -15.5t14.5 -39.5z" />
    <glyph glyph-name="Aacute.smcp" horiz-adv-x="557" 
d="M246 539h65l227 -539h-71l-63 148h-251l-62 -148h-71zM289 425l-11 30l-10 -30l-94 -219h209zM362 762h81l-137 -158h-66z" />
    <glyph glyph-name="Abreve.smcp" horiz-adv-x="557" 
d="M360 735h56q0 -57 -38 -95t-97 -38q-60 0 -98 37.5t-38 95.5h56q0 -37 22 -60t58 -23q35 0 57 23.5t22 59.5zM246 539h65l227 -539h-71l-63 148h-251l-62 -148h-71zM289 425l-11 30l-10 -30l-94 -219h209z" />
    <glyph glyph-name="Acircumflex.smcp" horiz-adv-x="557" 
d="M246 539h65l227 -539h-71l-63 148h-251l-62 -148h-71zM289 425l-11 30l-10 -30l-94 -219h209zM262 762h35l134 -158h-73l-78 99l-79 -99h-73z" />
    <glyph glyph-name="Adieresis.smcp" horiz-adv-x="557" 
d="M246 539h65l227 -539h-71l-63 148h-251l-62 -148h-71zM289 425l-11 30l-10 -30l-94 -219h209zM158 693q14 14 33 14t32 -14q13 -13 13 -32t-13 -32t-32 -13t-33 13q-13 13 -13 32t13 32zM336 693q14 14 33 14t32 -14q13 -13 13 -32t-13 -32t-32 -13t-33 13q-13 13 -13 32
t13 32z" />
    <glyph glyph-name="Agrave.smcp" horiz-adv-x="557" 
d="M246 539h65l227 -539h-71l-63 148h-251l-62 -148h-71zM289 425l-11 30l-10 -30l-94 -219h209zM112 762h81l122 -158h-66z" />
    <glyph glyph-name="Amacron.smcp" horiz-adv-x="557" 
d="M246 539h65l227 -539h-71l-63 148h-251l-62 -148h-71zM289 425l-11 30l-10 -30l-94 -219h209zM154 685h253v-55h-253v55z" />
    <glyph glyph-name="Aring.smcp" horiz-adv-x="557" 
d="M246 539h65l227 -539h-71l-63 148h-251l-62 -148h-71zM289 425l-11 30l-10 -30l-94 -219h209zM382 686q0 -42 -28.5 -70t-73.5 -28t-73.5 28t-28.5 70q0 44 28.5 72.5t73.5 28.5t73.5 -28.5t28.5 -72.5zM225 687q0 -22 16 -38.5t39 -16.5t39 16.5t16 38.5
q0 24 -15.5 39.5t-39.5 15.5t-39.5 -16t-15.5 -39z" />
    <glyph glyph-name="Atilde.smcp" horiz-adv-x="557" 
d="M246 539h65l227 -539h-71l-63 148h-251l-62 -148h-71zM289 425l-11 30l-10 -30l-94 -219h209zM220 728q26 0 45.5 -12t28.5 -26.5t22.5 -26.5t28.5 -12q46 0 46 68h48q0 -55 -25 -87.5t-72 -32.5q-27 0 -46.5 12t-28.5 27t-22.5 27t-28.5 12q-46 0 -46 -69h-48
q0 56 25 88t73 32z" />
    <glyph glyph-name="Cacute.smcp" horiz-adv-x="590" 
d="M317 549q92 0 154 -44t86 -124h-72q-39 108 -168 108q-91 0 -148 -62q-56 -62 -56 -157q0 -94 56 -158q57 -62 148 -62q130 0 171 110h70q-50 -170 -241 -170q-120 0 -195 79t-75 201q0 120 75 200q75 79 195 79zM396 762h81l-137 -158h-66z" />
    <glyph glyph-name="Ccaron.smcp" horiz-adv-x="590" 
d="M317 549q92 0 154 -44t86 -124h-72q-39 108 -168 108q-91 0 -148 -62q-56 -62 -56 -157q0 -94 56 -158q57 -62 148 -62q130 0 171 110h70q-50 -170 -241 -170q-120 0 -195 79t-75 201q0 120 75 200q75 79 195 79zM392 750h73l-134 -158h-35l-134 158h73l79 -99z" />
    <glyph glyph-name="Ccircumflex.smcp" horiz-adv-x="590" 
d="M317 549q92 0 154 -44t86 -124h-72q-39 108 -168 108q-91 0 -148 -62q-56 -62 -56 -157q0 -94 56 -158q57 -62 148 -62q130 0 171 110h70q-50 -170 -241 -170q-120 0 -195 79t-75 201q0 120 75 200q75 79 195 79zM296 762h35l134 -158h-73l-78 99l-79 -99h-73z" />
    <glyph glyph-name="Cdotaccent.smcp" horiz-adv-x="590" 
d="M317 549q92 0 154 -44t86 -124h-72q-39 108 -168 108q-91 0 -148 -62q-56 -62 -56 -157q0 -94 56 -158q57 -62 148 -62q130 0 171 110h70q-50 -170 -241 -170q-120 0 -195 79t-75 201q0 120 75 200q75 79 195 79zM279 704q15 15 35 15t34 -15q15 -14 15 -34t-15 -34
q-14 -14 -34 -14t-35 14q-14 14 -14 34t14 34z" />
    <glyph glyph-name="Eacute.smcp" horiz-adv-x="434" 
d="M78 539h305v-61h-240v-170h212v-61h-212v-186h240v-61h-305v539zM323 762h81l-137 -158h-66z" />
    <glyph glyph-name="Ebreve.smcp" horiz-adv-x="434" 
d="M78 539h305v-61h-240v-170h212v-61h-212v-186h240v-61h-305v539zM313 735h56q0 -57 -37.5 -95t-97.5 -38t-98 37.5t-38 95.5h56q0 -37 22 -60t58 -23q35 0 57 23.5t22 59.5z" />
    <glyph glyph-name="Ecaron.smcp" horiz-adv-x="434" 
d="M311 750h73l-134 -158h-35l-134 158h73l79 -99zM78 539h305v-61h-240v-170h212v-61h-212v-186h240v-61h-305v539z" />
    <glyph glyph-name="Ecircumflex.smcp" horiz-adv-x="434" 
d="M218 762h35l134 -158h-73l-78 99l-79 -99h-73zM78 539h305v-61h-240v-170h212v-61h-212v-186h240v-61h-305v539z" />
    <glyph glyph-name="Edieresis.smcp" horiz-adv-x="434" 
d="M78 539h305v-61h-240v-170h212v-61h-212v-186h240v-61h-305v539zM113 693q14 14 33 14t32 -14q13 -13 13 -32t-13 -32t-32 -13t-33 13q-13 13 -13 32t13 32zM291 693q14 14 33 14t32 -14q13 -13 13 -32t-13 -32t-32 -13t-33 13q-13 13 -13 32t13 32z" />
    <glyph glyph-name="Edotaccent.smcp" horiz-adv-x="434" 
d="M78 539h305v-61h-240v-170h212v-61h-212v-186h240v-61h-305v539zM202 704q15 15 35 15t34 -15q15 -14 15 -34t-15 -34q-14 -14 -34 -14t-35 14q-14 14 -14 34t14 34z" />
    <glyph glyph-name="Egrave.smcp" horiz-adv-x="434" 
d="M78 539h305v-61h-240v-170h212v-61h-212v-186h240v-61h-305v539zM74 762h81l122 -158h-66z" />
    <glyph glyph-name="Emacron.smcp" horiz-adv-x="434" 
d="M78 539h305v-61h-240v-170h212v-61h-212v-186h240v-61h-305v539zM107 685h253v-55h-253v55z" />
    <glyph glyph-name="Gbreve.smcp" horiz-adv-x="612" 
d="M320 549q94 0 156.5 -44t86.5 -124h-72q-41 108 -172 108q-90 0 -149 -62q-57 -61 -57 -157t58 -158q59 -62 150 -62q85 0 133 41.5t49 121.5h-172v61h240v-35q0 -117 -66 -183t-184 -66q-122 0 -198 79t-76 201q0 120 76 199q77 80 197 80zM397 735h56q0 -57 -37.5 -95
t-97.5 -38t-98 37.5t-38 95.5h56q0 -37 22 -60t58 -23q35 0 57 23.5t22 59.5z" />
    <glyph glyph-name="Gcircumflex.smcp" horiz-adv-x="612" 
d="M320 549q94 0 156.5 -44t86.5 -124h-72q-41 108 -172 108q-90 0 -149 -62q-57 -61 -57 -157t58 -158q59 -62 150 -62q85 0 133 41.5t49 121.5h-172v61h240v-35q0 -117 -66 -183t-184 -66q-122 0 -198 79t-76 201q0 120 76 199q77 80 197 80zM300 762h35l134 -158h-73
l-78 99l-79 -99h-73z" />
    <glyph glyph-name="Gdotaccent.smcp" horiz-adv-x="612" 
d="M320 549q94 0 156.5 -44t86.5 -124h-72q-41 108 -172 108q-90 0 -149 -62q-57 -61 -57 -157t58 -158q59 -62 150 -62q85 0 133 41.5t49 121.5h-172v61h240v-35q0 -117 -66 -183t-184 -66q-122 0 -198 79t-76 201q0 120 76 199q77 80 197 80zM282 704q15 15 35 15t34 -15
q15 -14 15 -34t-15 -34q-14 -14 -34 -14t-35 14q-14 14 -14 34t14 34z" />
    <glyph glyph-name="Hcircumflex.smcp" horiz-adv-x="594" 
d="M279 762h35l134 -158h-73l-78 99l-79 -99h-73zM451 539h65v-539h-65v248h-308v-248h-65v539h65v-230h308v230z" />
    <glyph glyph-name="Iacute.smcp" horiz-adv-x="220" 
d="M194 761h81l-137 -158h-66zM78 539h65v-539h-65v539z" />
    <glyph glyph-name="Ibreve.smcp" horiz-adv-x="220" 
d="M193 734h56q0 -58 -37.5 -95.5t-97.5 -37.5t-98 37.5t-38 95.5h56q0 -37 22 -60t58 -23q35 0 57 23.5t22 59.5zM78 539h65v-539h-65v539z" />
    <glyph glyph-name="Idotaccent.smcp" horiz-adv-x="220" 
d="M77 703q15 15 35 15t34 -15q15 -14 15 -34t-15 -34q-14 -14 -34 -14t-35 14q-14 14 -14 34t14 34zM78 539h65v-539h-65v539z" />
    <glyph glyph-name="Icircumflex.smcp" horiz-adv-x="220" 
d="M95 761h35l134 -158h-73l-78 99l-79 -99h-73zM78 539h65v-539h-65v539z" />
    <glyph glyph-name="Idieresis.smcp" horiz-adv-x="220" 
d="M-9 692q14 14 33 14t32 -14q13 -13 13 -32t-13 -32t-32 -13t-32 13q-14 13 -14 32t13 32zM169 692q14 14 33 14t32 -14q13 -13 13 -32t-13 -32t-32 -13t-33 13q-13 13 -13 32t13 32zM78 539h65v-539h-65v539z" />
    <glyph glyph-name="Igrave.smcp" horiz-adv-x="220" 
d="M-54 761h81l122 -158h-66zM78 539h65v-539h-65v539z" />
    <glyph glyph-name="Imacron.smcp" horiz-adv-x="220" 
d="M-13 684h253v-55h-253v55zM78 539h65v-539h-65v539z" />
    <glyph glyph-name="Itilde.smcp" horiz-adv-x="220" 
d="M53 727q26 0 45.5 -12t28.5 -26.5t22.5 -26.5t28.5 -12q46 0 46 68h48q0 -55 -25 -87.5t-72 -32.5q-27 0 -46.5 12t-28.5 27t-22.5 27t-28.5 12q-46 0 -46 -69h-48q0 56 25 88t73 32zM78 539h65v-539h-65v539z" />
    <glyph glyph-name="Jcircumflex.smcp" horiz-adv-x="415" 
d="M296 761h35l134 -158h-73l-78 99l-79 -99h-73zM280 539h65v-385q0 -77 -40.5 -119.5t-112.5 -42.5q-157 0 -164 169h64q6 -108 99 -108q43 0 66 26.5t23 76.5v383z" />
    <glyph glyph-name="Lacute.smcp" horiz-adv-x="418" 
d="M193 762h81l-137 -158h-66zM77 539h65v-478h253v-61h-318v539z" />
    <glyph glyph-name="Nacute.smcp" horiz-adv-x="594" 
d="M451 539h65v-539h-62l-289 396l-22 33v-429h-65v539h63l288 -394l22 -35v429zM386 761h81l-137 -158h-66z" />
    <glyph glyph-name="Ncaron.smcp" horiz-adv-x="594" 
d="M451 539h65v-539h-62l-289 396l-22 33v-429h-65v539h63l288 -394l22 -35v429zM382 749h73l-134 -158h-35l-134 158h73l79 -99z" />
    <glyph glyph-name="Ncommaaccent.smcp" horiz-adv-x="594" 
d="M451 539h65v-539h-62l-289 396l-22 33v-429h-65v539h63l288 -394l22 -35v429zM348 -90q0 -39 -19 -82t-49 -74l-21 11q29 46 35 99q-21 2 -34.5 15.5t-13.5 34.5q0 22 14.5 36.5t36.5 14.5t36.5 -15.5t14.5 -39.5z" />
    <glyph glyph-name="Ntilde.smcp" horiz-adv-x="594" 
d="M451 539h65v-539h-62l-289 396l-22 33v-429h-65v539h63l288 -394l22 -35v429zM244 727q26 0 45.5 -12t28.5 -26.5t22.5 -26.5t28.5 -12q46 0 46 68h48q0 -55 -25 -87.5t-72 -32.5q-27 0 -46.5 12t-28.5 27t-22.5 27t-28.5 12q-46 0 -46 -69h-48q0 56 25 88t73 32z" />
    <glyph glyph-name="Oacute.smcp" horiz-adv-x="659" 
d="M330 549q122 0 199 -80q78 -79 78 -199t-78 -200q-77 -80 -199 -80q-124 0 -202 79q-77 80 -77 201q0 120 77 200q78 79 202 79zM330 489q-95 0 -154 -62t-59 -157q0 -94 59 -158q59 -62 154 -62q92 0 151 62q59 64 59 158q0 95 -59 157t-151 62zM413 762h81l-137 -158
h-66z" />
    <glyph glyph-name="Obreve.smcp" horiz-adv-x="659" 
d="M410 735h56q0 -57 -38 -95t-97 -38q-60 0 -98 37.5t-38 95.5h56q0 -37 22 -60t58 -23q35 0 57 23.5t22 59.5zM330 549q122 0 199 -80q78 -79 78 -199t-78 -200q-77 -80 -199 -80q-124 0 -202 79q-77 80 -77 201q0 120 77 200q78 79 202 79zM330 489q-95 0 -154 -62
t-59 -157q0 -94 59 -158q59 -62 154 -62q92 0 151 62q59 64 59 158q0 95 -59 157t-151 62z" />
    <glyph glyph-name="Ocircumflex.smcp" horiz-adv-x="659" 
d="M313 762h35l134 -158h-73l-78 99l-79 -99h-73zM330 549q122 0 199 -80q78 -79 78 -199t-78 -200q-77 -80 -199 -80q-124 0 -202 79q-77 80 -77 201q0 120 77 200q78 79 202 79zM330 489q-95 0 -154 -62t-59 -157q0 -94 59 -158q59 -62 154 -62q92 0 151 62q59 64 59 158
q0 95 -59 157t-151 62z" />
    <glyph glyph-name="Odieresis.smcp" horiz-adv-x="659" 
d="M330 549q122 0 199 -80q78 -79 78 -199t-78 -200q-77 -80 -199 -80q-124 0 -202 79q-77 80 -77 201q0 120 77 200q78 79 202 79zM330 489q-95 0 -154 -62t-59 -157q0 -94 59 -158q59 -62 154 -62q92 0 151 62q59 64 59 158q0 95 -59 157t-151 62zM209 693q14 14 33 14
t32 -14q13 -13 13 -32t-13 -32t-32 -13t-33 13q-13 13 -13 32t13 32zM387 693q14 14 33 14t32 -14q13 -13 13 -32t-13 -32t-32 -13t-33 13q-13 13 -13 32t13 32z" />
    <glyph glyph-name="Ograve.smcp" horiz-adv-x="659" 
d="M330 549q122 0 199 -80q78 -79 78 -199t-78 -200q-77 -80 -199 -80q-124 0 -202 79q-77 80 -77 201q0 120 77 200q78 79 202 79zM330 489q-95 0 -154 -62t-59 -157q0 -94 59 -158q59 -62 154 -62q92 0 151 62q59 64 59 158q0 95 -59 157t-151 62zM163 762h81l122 -158
h-66z" />
    <glyph glyph-name="Ohungarumlaut.smcp" horiz-adv-x="659" 
d="M309 762h70l-103 -158h-61zM464 762h70l-103 -158h-61zM330 549q122 0 199 -80q78 -79 78 -199t-78 -200q-77 -80 -199 -80q-124 0 -202 79q-77 80 -77 201q0 120 77 200q78 79 202 79zM330 489q-95 0 -154 -62t-59 -157q0 -94 59 -158q59 -62 154 -62q92 0 151 62
q59 64 59 158q0 95 -59 157t-151 62z" />
    <glyph glyph-name="Omacron.smcp" horiz-adv-x="659" 
d="M330 549q122 0 199 -80q78 -79 78 -199t-78 -200q-77 -80 -199 -80q-124 0 -202 79q-77 80 -77 201q0 120 77 200q78 79 202 79zM330 489q-95 0 -154 -62t-59 -157q0 -94 59 -158q59 -62 154 -62q92 0 151 62q59 64 59 158q0 95 -59 157t-151 62zM205 685h253v-55h-253
v55z" />
    <glyph glyph-name="Otilde.smcp" horiz-adv-x="659" 
d="M271 728q26 0 45.5 -12t28.5 -26.5t22.5 -26.5t28.5 -12q46 0 46 68h48q0 -55 -25 -87.5t-72 -32.5q-27 0 -46.5 12t-28.5 27t-22.5 27t-28.5 12q-46 0 -46 -69h-48q0 56 25 88t73 32zM330 549q122 0 199 -80q78 -79 78 -199t-78 -200q-77 -80 -199 -80q-124 0 -202 79
q-77 80 -77 201q0 120 77 200q78 79 202 79zM330 489q-95 0 -154 -62t-59 -157q0 -94 59 -158q59 -62 154 -62q92 0 151 62q59 64 59 158q0 95 -59 157t-151 62z" />
    <glyph glyph-name="Racute.smcp" horiz-adv-x="450" 
d="M78 539h148q83 0 132 -44t49 -118q0 -52 -28.5 -90t-78.5 -55l131 -232h-74l-124 221h-90v-221h-65v539zM226 478h-83v-198h83q54 0 85 26t31 71q0 47 -31.5 74t-84.5 27zM306 761h81l-137 -158h-66z" />
    <glyph glyph-name="Rcaron.smcp" horiz-adv-x="450" 
d="M78 539h148q83 0 132 -44t49 -118q0 -52 -28.5 -90t-78.5 -55l131 -232h-74l-124 221h-90v-221h-65v539zM226 478h-83v-198h83q54 0 85 26t31 71q0 47 -31.5 74t-84.5 27zM300 749h73l-134 -158h-35l-134 158h73l79 -99z" />
    <glyph glyph-name="Sacute.smcp" horiz-adv-x="437" 
d="M219 549q74 0 116.5 -39.5t43.5 -111.5h-65q-1 44 -26.5 68.5t-70.5 24.5q-43 0 -67 -22.5t-24 -63.5q0 -39 24 -59q24 -19 90 -43q86 -32 122 -66t36 -92q0 -71 -47 -113t-124 -42q-85 0 -133.5 45.5t-49.5 122.5h65q1 -54 32 -82.5t87 -28.5q49 0 76.5 25.5t27.5 68.5
q0 35 -27 57t-94 46q-81 29 -115.5 63t-34.5 94q0 65 42.5 106.5t115.5 41.5zM305 761h81l-137 -158h-66z" />
    <glyph glyph-name="Scaron.smcp" horiz-adv-x="437" 
d="M219 549q74 0 116.5 -39.5t43.5 -111.5h-65q-1 44 -26.5 68.5t-70.5 24.5q-43 0 -67 -22.5t-24 -63.5q0 -39 24 -59q24 -19 90 -43q86 -32 122 -66t36 -92q0 -71 -47 -113t-124 -42q-85 0 -133.5 45.5t-49.5 122.5h65q1 -54 32 -82.5t87 -28.5q49 0 76.5 25.5t27.5 68.5
q0 35 -27 57t-94 46q-81 29 -115.5 63t-34.5 94q0 65 42.5 106.5t115.5 41.5zM301 749h73l-134 -158h-35l-134 158h73l79 -99z" />
    <glyph glyph-name="Scircumflex.smcp" horiz-adv-x="437" 
d="M219 549q74 0 116.5 -39.5t43.5 -111.5h-65q-1 44 -26.5 68.5t-70.5 24.5q-43 0 -67 -22.5t-24 -63.5q0 -39 24 -59q24 -19 90 -43q86 -32 122 -66t36 -92q0 -71 -47 -113t-124 -42q-85 0 -133.5 45.5t-49.5 122.5h65q1 -54 32 -82.5t87 -28.5q49 0 76.5 25.5t27.5 68.5
q0 35 -27 57t-94 46q-81 29 -115.5 63t-34.5 94q0 65 42.5 106.5t115.5 41.5zM205 761h35l134 -158h-73l-78 99l-79 -99h-73z" />
    <glyph glyph-name="Tcaron.smcp" horiz-adv-x="488" 
d="M323 749h73l-134 -158h-35l-134 158h73l79 -99zM9 539h469v-61h-202v-478h-64v478h-203v61z" />
    <glyph glyph-name="Uacute.smcp" horiz-adv-x="577" 
d="M442 539h65v-327q0 -107 -57 -164.5t-161 -57.5q-105 0 -161.5 57t-56.5 165v327h65v-327q0 -162 153 -162t153 162v327zM372 761h81l-137 -158h-66z" />
    <glyph glyph-name="Ubreve.smcp" horiz-adv-x="577" 
d="M369 734h56q0 -58 -37.5 -95.5t-97.5 -37.5t-98 37.5t-38 95.5h56q0 -37 22 -60t58 -23q35 0 57 23.5t22 59.5zM442 539h65v-327q0 -107 -57 -164.5t-161 -57.5q-105 0 -161.5 57t-56.5 165v327h65v-327q0 -162 153 -162t153 162v327z" />
    <glyph glyph-name="Ucircumflex.smcp" horiz-adv-x="577" 
d="M272 761h35l134 -158h-73l-78 99l-79 -99h-73zM442 539h65v-327q0 -107 -57 -164.5t-161 -57.5q-105 0 -161.5 57t-56.5 165v327h65v-327q0 -162 153 -162t153 162v327z" />
    <glyph glyph-name="Udieresis.smcp" horiz-adv-x="577" 
d="M442 539h65v-327q0 -107 -57 -164.5t-161 -57.5q-105 0 -161.5 57t-56.5 165v327h65v-327q0 -162 153 -162t153 162v327zM168 692q14 14 33 14t32 -14q13 -13 13 -32t-13 -32t-32 -13t-33 13q-13 13 -13 32t13 32zM346 692q14 14 33 14t32 -14q13 -13 13 -32t-13 -32
t-32 -13t-33 13q-13 13 -13 32t13 32z" />
    <glyph glyph-name="Ugrave.smcp" horiz-adv-x="577" 
d="M442 539h65v-327q0 -107 -57 -164.5t-161 -57.5q-105 0 -161.5 57t-56.5 165v327h65v-327q0 -162 153 -162t153 162v327zM122 761h81l122 -158h-66z" />
    <glyph glyph-name="Uhungarumlaut.smcp" horiz-adv-x="577" 
d="M268 761h70l-103 -158h-61zM423 761h70l-103 -158h-61zM442 539h65v-327q0 -107 -57 -164.5t-161 -57.5q-105 0 -161.5 57t-56.5 165v327h65v-327q0 -162 153 -162t153 162v327z" />
    <glyph glyph-name="Umacron.smcp" horiz-adv-x="577" 
d="M442 539h65v-327q0 -107 -57 -164.5t-161 -57.5q-105 0 -161.5 57t-56.5 165v327h65v-327q0 -162 153 -162t153 162v327zM163 684h253v-55h-253v55z" />
    <glyph glyph-name="Uring.smcp" horiz-adv-x="577" 
d="M391 685q0 -42 -28.5 -70t-73.5 -28t-73.5 28t-28.5 70q0 44 28.5 72.5t73.5 28.5t73.5 -28.5t28.5 -72.5zM234 686q0 -22 16 -38.5t39 -16.5t39 16.5t16 38.5q0 24 -15.5 39.5t-39.5 15.5t-39.5 -16t-15.5 -39zM442 539h65v-327q0 -107 -57 -164.5t-161 -57.5
q-105 0 -161.5 57t-56.5 165v327h65v-327q0 -162 153 -162t153 162v327z" />
    <glyph glyph-name="Utilde.smcp" horiz-adv-x="577" 
d="M229 727q26 0 45.5 -12t28.5 -26.5t22.5 -26.5t28.5 -12q46 0 46 68h48q0 -55 -25 -87.5t-72 -32.5q-27 0 -46.5 12t-28.5 27t-22.5 27t-28.5 12q-46 0 -46 -69h-48q0 56 25 88t73 32zM442 539h65v-327q0 -107 -57 -164.5t-161 -57.5q-105 0 -161.5 57t-56.5 165v327h65
v-327q0 -162 153 -162t153 162v327z" />
    <glyph glyph-name="Wacute.smcp" horiz-adv-x="798" 
d="M709 539h68l-180 -539h-62l-127 384l-9 36l-9 -36l-127 -384h-61l-181 539h68l136 -399l9 -39l9 39l130 399h53l130 -399l8 -39l11 39zM481 762h81l-137 -158h-66z" />
    <glyph glyph-name="Wcircumflex.smcp" horiz-adv-x="798" 
d="M709 539h68l-180 -539h-62l-127 384l-9 36l-9 -36l-127 -384h-61l-181 539h68l136 -399l9 -39l9 39l130 399h53l130 -399l8 -39l11 39zM381 762h35l134 -158h-73l-78 99l-79 -99h-73z" />
    <glyph glyph-name="Wdieresis.smcp" horiz-adv-x="798" 
d="M709 539h68l-180 -539h-62l-127 384l-9 36l-9 -36l-127 -384h-61l-181 539h68l136 -399l9 -39l9 39l130 399h53l130 -399l8 -39l11 39zM277 693q14 14 33 14t32 -14q13 -13 13 -32t-13 -32t-32 -13t-33 13q-13 13 -13 32t13 32zM455 693q14 14 33 14t32 -14
q13 -13 13 -32t-13 -32t-32 -13t-33 13q-13 13 -13 32t13 32z" />
    <glyph glyph-name="Wgrave.smcp" horiz-adv-x="798" 
d="M709 539h68l-180 -539h-62l-127 384l-9 36l-9 -36l-127 -384h-61l-181 539h68l136 -399l9 -39l9 39l130 399h53l130 -399l8 -39l11 39zM231 762h81l122 -158h-66z" />
    <glyph glyph-name="Yacute.smcp" horiz-adv-x="546" 
d="M453 539h75l-223 -334v-205h-65v205l-223 334h75l159 -236l22 -36l22 36zM353 762h81l-137 -158h-66z" />
    <glyph glyph-name="Ycircumflex.smcp" horiz-adv-x="546" 
d="M453 539h75l-223 -334v-205h-65v205l-223 334h75l159 -236l22 -36l22 36zM254 762h35l134 -158h-73l-78 99l-79 -99h-73z" />
    <glyph glyph-name="Ydieresis.smcp" horiz-adv-x="546" 
d="M453 539h75l-223 -334v-205h-65v205l-223 334h75l159 -236l22 -36l22 36zM149 693q14 14 33 14t32 -14q13 -13 13 -32t-13 -32t-32 -13t-33 13q-13 13 -13 32t13 32zM327 693q14 14 33 14t32 -14q13 -13 13 -32t-13 -32t-32 -13t-33 13q-13 13 -13 32t13 32z" />
    <glyph glyph-name="Ygrave.smcp" horiz-adv-x="546" 
d="M453 539h75l-223 -334v-205h-65v205l-223 334h75l159 -236l22 -36l22 36zM104 762h81l122 -158h-66z" />
    <glyph glyph-name="Zacute.smcp" horiz-adv-x="482" 
d="M38 539h401v-52l-320 -426h329v-61h-413v52l321 426h-318v61zM332 762h81l-137 -158h-66z" />
    <glyph glyph-name="Zcaron.smcp" horiz-adv-x="482" 
d="M328 750h73l-134 -158h-35l-134 158h73l79 -99zM38 539h401v-52l-320 -426h329v-61h-413v52l321 426h-318v61z" />
    <glyph glyph-name="Zdotaccent.smcp" horiz-adv-x="482" 
d="M38 539h401v-52l-320 -426h329v-61h-413v52l321 426h-318v61zM215 704q15 15 35 15t34 -15q15 -14 15 -34t-15 -34q-14 -14 -34 -14t-35 14q-14 14 -14 34t14 34z" />
    </font>
</defs>
</svg>
